%TF.GenerationSoftware,KiCad,Pcbnew,(7.0.0)*%
%TF.CreationDate,2023-05-30T16:09:47+02:00*%
%TF.ProjectId,connecteurs,636f6e6e-6563-4746-9575-72732e6b6963,1.0*%
%TF.SameCoordinates,Original*%
%TF.FileFunction,Soldermask,Top*%
%TF.FilePolarity,Negative*%
%FSLAX46Y46*%
G04 Gerber Fmt 4.6, Leading zero omitted, Abs format (unit mm)*
G04 Created by KiCad (PCBNEW (7.0.0)) date 2023-05-30 16:09:47*
%MOMM*%
%LPD*%
G01*
G04 APERTURE LIST*
G04 Aperture macros list*
%AMRoundRect*
0 Rectangle with rounded corners*
0 $1 Rounding radius*
0 $2 $3 $4 $5 $6 $7 $8 $9 X,Y pos of 4 corners*
0 Add a 4 corners polygon primitive as box body*
4,1,4,$2,$3,$4,$5,$6,$7,$8,$9,$2,$3,0*
0 Add four circle primitives for the rounded corners*
1,1,$1+$1,$2,$3*
1,1,$1+$1,$4,$5*
1,1,$1+$1,$6,$7*
1,1,$1+$1,$8,$9*
0 Add four rect primitives between the rounded corners*
20,1,$1+$1,$2,$3,$4,$5,0*
20,1,$1+$1,$4,$5,$6,$7,0*
20,1,$1+$1,$6,$7,$8,$9,0*
20,1,$1+$1,$8,$9,$2,$3,0*%
G04 Aperture macros list end*
%ADD10RoundRect,0.250000X0.650000X-0.412500X0.650000X0.412500X-0.650000X0.412500X-0.650000X-0.412500X0*%
%ADD11RoundRect,0.250000X-0.650000X0.412500X-0.650000X-0.412500X0.650000X-0.412500X0.650000X0.412500X0*%
%ADD12RoundRect,0.150000X-0.512500X-0.150000X0.512500X-0.150000X0.512500X0.150000X-0.512500X0.150000X0*%
%ADD13C,4.700000*%
%ADD14RoundRect,0.250000X-0.600000X-0.750000X0.600000X-0.750000X0.600000X0.750000X-0.600000X0.750000X0*%
%ADD15O,1.700000X2.000000*%
%ADD16R,1.700000X1.700000*%
%ADD17O,1.700000X1.700000*%
%ADD18C,1.700000*%
G04 APERTURE END LIST*
D10*
%TO.C,C4*%
X75100000Y-105237500D03*
X75100000Y-108362500D03*
%TD*%
D11*
%TO.C,C3*%
X91700000Y-78662500D03*
X91700000Y-75537500D03*
%TD*%
%TO.C,C2*%
X88000000Y-56875000D03*
X88000000Y-60000000D03*
%TD*%
%TO.C,C1*%
X78000000Y-56875000D03*
X78000000Y-60000000D03*
%TD*%
D12*
%TO.C,U2*%
X83000000Y-56687500D03*
X83000000Y-57637500D03*
X83000000Y-58587500D03*
X85275000Y-58587500D03*
X85275000Y-56687500D03*
%TD*%
D13*
%TO.C,H3*%
X93000000Y-108000000D03*
%TD*%
%TO.C,H4*%
X70000000Y-108000000D03*
%TD*%
D14*
%TO.C,J1*%
X80950000Y-50275000D03*
D15*
X83449999Y-50274999D03*
%TD*%
D16*
%TO.C,IC1*%
X71269999Y-103124999D03*
D17*
X68729999Y-103124999D03*
X71269999Y-100584999D03*
X68729999Y-100584999D03*
X71269999Y-98044999D03*
X68729999Y-98044999D03*
X71269999Y-95504999D03*
X68729999Y-95504999D03*
X71269999Y-92964999D03*
X68729999Y-92964999D03*
X71269999Y-90424999D03*
X68729999Y-90424999D03*
X71269999Y-87884999D03*
X68729999Y-87884999D03*
X71269999Y-85344999D03*
X68729999Y-85344999D03*
X71269999Y-82804999D03*
X68729999Y-82804999D03*
X71269999Y-80264999D03*
X68729999Y-80264999D03*
X71269999Y-77724999D03*
X68729999Y-77724999D03*
X71269999Y-75184999D03*
X68729999Y-75184999D03*
X71269999Y-72644999D03*
X68729999Y-72644999D03*
X71269999Y-70104999D03*
X68729999Y-70104999D03*
X71269999Y-67564999D03*
X68729999Y-67564999D03*
X71269999Y-65024999D03*
X68729999Y-65024999D03*
X71269999Y-62484999D03*
X68729999Y-62484999D03*
X71269999Y-59944999D03*
X68729999Y-59944999D03*
X71269999Y-57404999D03*
X68729999Y-57404999D03*
X71269999Y-54864999D03*
X68729999Y-54864999D03*
%TD*%
D16*
%TO.C,U1*%
X87924999Y-72899999D03*
D18*
X87925000Y-75440000D03*
X85385000Y-72900000D03*
X85385000Y-75440000D03*
X82845000Y-72900000D03*
X82845000Y-75440000D03*
X80305000Y-72900000D03*
X80305000Y-75440000D03*
%TD*%
D13*
%TO.C,H1*%
X70000000Y-50000000D03*
%TD*%
%TO.C,H2*%
X93000000Y-50000000D03*
%TD*%
M02*
