%TF.GenerationSoftware,KiCad,Pcbnew,(7.0.0)*%
%TF.CreationDate,2023-05-30T16:09:46+02:00*%
%TF.ProjectId,connecteurs,636f6e6e-6563-4746-9575-72732e6b6963,1.0*%
%TF.SameCoordinates,Original*%
%TF.FileFunction,Copper,L1,Top*%
%TF.FilePolarity,Positive*%
%FSLAX46Y46*%
G04 Gerber Fmt 4.6, Leading zero omitted, Abs format (unit mm)*
G04 Created by KiCad (PCBNEW (7.0.0)) date 2023-05-30 16:09:46*
%MOMM*%
%LPD*%
G01*
G04 APERTURE LIST*
G04 Aperture macros list*
%AMRoundRect*
0 Rectangle with rounded corners*
0 $1 Rounding radius*
0 $2 $3 $4 $5 $6 $7 $8 $9 X,Y pos of 4 corners*
0 Add a 4 corners polygon primitive as box body*
4,1,4,$2,$3,$4,$5,$6,$7,$8,$9,$2,$3,0*
0 Add four circle primitives for the rounded corners*
1,1,$1+$1,$2,$3*
1,1,$1+$1,$4,$5*
1,1,$1+$1,$6,$7*
1,1,$1+$1,$8,$9*
0 Add four rect primitives between the rounded corners*
20,1,$1+$1,$2,$3,$4,$5,0*
20,1,$1+$1,$4,$5,$6,$7,0*
20,1,$1+$1,$6,$7,$8,$9,0*
20,1,$1+$1,$8,$9,$2,$3,0*%
G04 Aperture macros list end*
%ADD10C,0.300000*%
%TA.AperFunction,NonConductor*%
%ADD11C,0.300000*%
%TD*%
%TA.AperFunction,SMDPad,CuDef*%
%ADD12RoundRect,0.250000X0.650000X-0.412500X0.650000X0.412500X-0.650000X0.412500X-0.650000X-0.412500X0*%
%TD*%
%TA.AperFunction,SMDPad,CuDef*%
%ADD13RoundRect,0.250000X-0.650000X0.412500X-0.650000X-0.412500X0.650000X-0.412500X0.650000X0.412500X0*%
%TD*%
%TA.AperFunction,SMDPad,CuDef*%
%ADD14RoundRect,0.150000X-0.512500X-0.150000X0.512500X-0.150000X0.512500X0.150000X-0.512500X0.150000X0*%
%TD*%
%TA.AperFunction,ComponentPad*%
%ADD15C,4.700000*%
%TD*%
%TA.AperFunction,ComponentPad*%
%ADD16RoundRect,0.250000X-0.600000X-0.750000X0.600000X-0.750000X0.600000X0.750000X-0.600000X0.750000X0*%
%TD*%
%TA.AperFunction,ComponentPad*%
%ADD17O,1.700000X2.000000*%
%TD*%
%TA.AperFunction,ComponentPad*%
%ADD18R,1.700000X1.700000*%
%TD*%
%TA.AperFunction,ComponentPad*%
%ADD19O,1.700000X1.700000*%
%TD*%
%TA.AperFunction,ComponentPad*%
%ADD20C,1.700000*%
%TD*%
%TA.AperFunction,ViaPad*%
%ADD21C,0.800000*%
%TD*%
%TA.AperFunction,ViaPad*%
%ADD22C,1.200000*%
%TD*%
%TA.AperFunction,Conductor*%
%ADD23C,0.500000*%
%TD*%
%TA.AperFunction,Conductor*%
%ADD24C,0.300000*%
%TD*%
G04 APERTURE END LIST*
D10*
D11*
X75342857Y-48573571D02*
X76200000Y-48573571D01*
X75771428Y-50073571D02*
X75771428Y-48573571D01*
D10*
D11*
X93215000Y-92914285D02*
X93215000Y-92200000D01*
X93643571Y-93057142D02*
X92143571Y-92557142D01*
X92143571Y-92557142D02*
X93643571Y-92057142D01*
X93643571Y-91342857D02*
X93572142Y-91485714D01*
X93572142Y-91485714D02*
X93429285Y-91557143D01*
X93429285Y-91557143D02*
X92143571Y-91557143D01*
X92643571Y-90771429D02*
X94143571Y-90771429D01*
X92715000Y-90771429D02*
X92643571Y-90628572D01*
X92643571Y-90628572D02*
X92643571Y-90342857D01*
X92643571Y-90342857D02*
X92715000Y-90200000D01*
X92715000Y-90200000D02*
X92786428Y-90128572D01*
X92786428Y-90128572D02*
X92929285Y-90057143D01*
X92929285Y-90057143D02*
X93357857Y-90057143D01*
X93357857Y-90057143D02*
X93500714Y-90128572D01*
X93500714Y-90128572D02*
X93572142Y-90200000D01*
X93572142Y-90200000D02*
X93643571Y-90342857D01*
X93643571Y-90342857D02*
X93643571Y-90628572D01*
X93643571Y-90628572D02*
X93572142Y-90771429D01*
X93643571Y-89414286D02*
X92143571Y-89414286D01*
X93643571Y-88771429D02*
X92857857Y-88771429D01*
X92857857Y-88771429D02*
X92715000Y-88842857D01*
X92715000Y-88842857D02*
X92643571Y-88985714D01*
X92643571Y-88985714D02*
X92643571Y-89200000D01*
X92643571Y-89200000D02*
X92715000Y-89342857D01*
X92715000Y-89342857D02*
X92786428Y-89414286D01*
X93643571Y-87842857D02*
X93572142Y-87985714D01*
X93572142Y-87985714D02*
X93500714Y-88057143D01*
X93500714Y-88057143D02*
X93357857Y-88128571D01*
X93357857Y-88128571D02*
X92929285Y-88128571D01*
X92929285Y-88128571D02*
X92786428Y-88057143D01*
X92786428Y-88057143D02*
X92715000Y-87985714D01*
X92715000Y-87985714D02*
X92643571Y-87842857D01*
X92643571Y-87842857D02*
X92643571Y-87628571D01*
X92643571Y-87628571D02*
X92715000Y-87485714D01*
X92715000Y-87485714D02*
X92786428Y-87414286D01*
X92786428Y-87414286D02*
X92929285Y-87342857D01*
X92929285Y-87342857D02*
X93357857Y-87342857D01*
X93357857Y-87342857D02*
X93500714Y-87414286D01*
X93500714Y-87414286D02*
X93572142Y-87485714D01*
X93572142Y-87485714D02*
X93643571Y-87628571D01*
X93643571Y-87628571D02*
X93643571Y-87842857D01*
X92643571Y-86700000D02*
X93643571Y-86700000D01*
X92786428Y-86700000D02*
X92715000Y-86628571D01*
X92715000Y-86628571D02*
X92643571Y-86485714D01*
X92643571Y-86485714D02*
X92643571Y-86271428D01*
X92643571Y-86271428D02*
X92715000Y-86128571D01*
X92715000Y-86128571D02*
X92857857Y-86057143D01*
X92857857Y-86057143D02*
X93643571Y-86057143D01*
X93572142Y-85414285D02*
X93643571Y-85271428D01*
X93643571Y-85271428D02*
X93643571Y-84985714D01*
X93643571Y-84985714D02*
X93572142Y-84842857D01*
X93572142Y-84842857D02*
X93429285Y-84771428D01*
X93429285Y-84771428D02*
X93357857Y-84771428D01*
X93357857Y-84771428D02*
X93215000Y-84842857D01*
X93215000Y-84842857D02*
X93143571Y-84985714D01*
X93143571Y-84985714D02*
X93143571Y-85200000D01*
X93143571Y-85200000D02*
X93072142Y-85342857D01*
X93072142Y-85342857D02*
X92929285Y-85414285D01*
X92929285Y-85414285D02*
X92857857Y-85414285D01*
X92857857Y-85414285D02*
X92715000Y-85342857D01*
X92715000Y-85342857D02*
X92643571Y-85200000D01*
X92643571Y-85200000D02*
X92643571Y-84985714D01*
X92643571Y-84985714D02*
X92715000Y-84842857D01*
X93572142Y-83557142D02*
X93643571Y-83699999D01*
X93643571Y-83699999D02*
X93643571Y-83985714D01*
X93643571Y-83985714D02*
X93572142Y-84128571D01*
X93572142Y-84128571D02*
X93429285Y-84199999D01*
X93429285Y-84199999D02*
X92857857Y-84199999D01*
X92857857Y-84199999D02*
X92715000Y-84128571D01*
X92715000Y-84128571D02*
X92643571Y-83985714D01*
X92643571Y-83985714D02*
X92643571Y-83699999D01*
X92643571Y-83699999D02*
X92715000Y-83557142D01*
X92715000Y-83557142D02*
X92857857Y-83485714D01*
X92857857Y-83485714D02*
X93000714Y-83485714D01*
X93000714Y-83485714D02*
X93143571Y-84199999D01*
X96073571Y-91985714D02*
X95359285Y-92485714D01*
X96073571Y-92842857D02*
X94573571Y-92842857D01*
X94573571Y-92842857D02*
X94573571Y-92271428D01*
X94573571Y-92271428D02*
X94645000Y-92128571D01*
X94645000Y-92128571D02*
X94716428Y-92057142D01*
X94716428Y-92057142D02*
X94859285Y-91985714D01*
X94859285Y-91985714D02*
X95073571Y-91985714D01*
X95073571Y-91985714D02*
X95216428Y-92057142D01*
X95216428Y-92057142D02*
X95287857Y-92128571D01*
X95287857Y-92128571D02*
X95359285Y-92271428D01*
X95359285Y-92271428D02*
X95359285Y-92842857D01*
X96073571Y-91342857D02*
X94573571Y-91342857D01*
X94573571Y-90842856D02*
X96073571Y-90342856D01*
X96073571Y-90342856D02*
X94573571Y-89842856D01*
X94573571Y-89057142D02*
X94573571Y-88771428D01*
X94573571Y-88771428D02*
X94645000Y-88628571D01*
X94645000Y-88628571D02*
X94787857Y-88485714D01*
X94787857Y-88485714D02*
X95073571Y-88414285D01*
X95073571Y-88414285D02*
X95573571Y-88414285D01*
X95573571Y-88414285D02*
X95859285Y-88485714D01*
X95859285Y-88485714D02*
X96002142Y-88628571D01*
X96002142Y-88628571D02*
X96073571Y-88771428D01*
X96073571Y-88771428D02*
X96073571Y-89057142D01*
X96073571Y-89057142D02*
X96002142Y-89200000D01*
X96002142Y-89200000D02*
X95859285Y-89342857D01*
X95859285Y-89342857D02*
X95573571Y-89414285D01*
X95573571Y-89414285D02*
X95073571Y-89414285D01*
X95073571Y-89414285D02*
X94787857Y-89342857D01*
X94787857Y-89342857D02*
X94645000Y-89200000D01*
X94645000Y-89200000D02*
X94573571Y-89057142D01*
X96073571Y-87771428D02*
X94573571Y-87771428D01*
X96073571Y-86199999D02*
X95359285Y-86699999D01*
X96073571Y-87057142D02*
X94573571Y-87057142D01*
X94573571Y-87057142D02*
X94573571Y-86485713D01*
X94573571Y-86485713D02*
X94645000Y-86342856D01*
X94645000Y-86342856D02*
X94716428Y-86271427D01*
X94716428Y-86271427D02*
X94859285Y-86199999D01*
X94859285Y-86199999D02*
X95073571Y-86199999D01*
X95073571Y-86199999D02*
X95216428Y-86271427D01*
X95216428Y-86271427D02*
X95287857Y-86342856D01*
X95287857Y-86342856D02*
X95359285Y-86485713D01*
X95359285Y-86485713D02*
X95359285Y-87057142D01*
X95287857Y-85557142D02*
X95287857Y-85057142D01*
X96073571Y-84842856D02*
X96073571Y-85557142D01*
X96073571Y-85557142D02*
X94573571Y-85557142D01*
X94573571Y-85557142D02*
X94573571Y-84842856D01*
D12*
%TO.P,C4,2*%
%TO.N,+5V*%
X75100000Y-105237500D03*
%TO.P,C4,1*%
%TO.N,GND*%
X75100000Y-108362500D03*
%TD*%
D13*
%TO.P,C3,2*%
%TO.N,GND*%
X91700000Y-78662500D03*
%TO.P,C3,1*%
%TO.N,+3.3V*%
X91700000Y-75537500D03*
%TD*%
%TO.P,C2,1*%
%TO.N,+3.3V*%
X88000000Y-56875000D03*
%TO.P,C2,2*%
%TO.N,GND*%
X88000000Y-60000000D03*
%TD*%
%TO.P,C1,1*%
%TO.N,+5V*%
X78000000Y-56875000D03*
%TO.P,C1,2*%
%TO.N,GND*%
X78000000Y-60000000D03*
%TD*%
D14*
%TO.P,U2,1,VIN*%
%TO.N,+5V*%
X83000000Y-56687500D03*
%TO.P,U2,2,GND*%
%TO.N,GND*%
X83000000Y-57637500D03*
%TO.P,U2,3,~{SHDN}*%
%TO.N,+5V*%
X83000000Y-58587500D03*
%TO.P,U2,4,NC*%
%TO.N,unconnected-(U2-NC-Pad4)*%
X85275000Y-58587500D03*
%TO.P,U2,5,VOUT*%
%TO.N,+3.3V*%
X85275000Y-56687500D03*
%TD*%
D15*
%TO.P,H3,1,1*%
%TO.N,GND*%
X93000000Y-108000000D03*
%TD*%
%TO.P,H4,1,1*%
%TO.N,GND*%
X70000000Y-108000000D03*
%TD*%
D16*
%TO.P,J1,1,Pin_1*%
%TO.N,GND*%
X80950000Y-50275000D03*
D17*
%TO.P,J1,2,Pin_2*%
%TO.N,+5V*%
X83449999Y-50274999D03*
%TD*%
D18*
%TO.P,IC1,1,+3.3V_1*%
%TO.N,unconnected-(IC1-+3.3V_1-Pad1)*%
X71269999Y-103124999D03*
D19*
%TO.P,IC1,2,+5V_1*%
%TO.N,+5V*%
X68729999Y-103124999D03*
%TO.P,IC1,3,GPIO_2/[I2C]_SDA*%
%TO.N,unconnected-(IC1-GPIO_2{slash}[I2C]_SDA-Pad3)*%
X71269999Y-100584999D03*
%TO.P,IC1,4,+5V_2*%
%TO.N,+5V*%
X68729999Y-100584999D03*
%TO.P,IC1,5,GPIO_3/[I2C]_SCL*%
%TO.N,unconnected-(IC1-GPIO_3{slash}[I2C]_SCL-Pad5)*%
X71269999Y-98044999D03*
%TO.P,IC1,6,GND_1*%
%TO.N,GND*%
X68729999Y-98044999D03*
%TO.P,IC1,7,GPIO_4/GPCLK0*%
%TO.N,unconnected-(IC1-GPIO_4{slash}GPCLK0-Pad7)*%
X71269999Y-95504999D03*
%TO.P,IC1,8,GPIO_14/[UART]_TXD0*%
%TO.N,unconnected-(IC1-GPIO_14{slash}[UART]_TXD0-Pad8)*%
X68729999Y-95504999D03*
%TO.P,IC1,9,GND_2*%
%TO.N,GND*%
X71269999Y-92964999D03*
%TO.P,IC1,10,GPIO_15/[UART]_RXD0*%
%TO.N,unconnected-(IC1-GPIO_15{slash}[UART]_RXD0-Pad10)*%
X68729999Y-92964999D03*
%TO.P,IC1,11,GPIO_17/SPI1_CS1*%
%TO.N,unconnected-(IC1-GPIO_17{slash}SPI1_CS1-Pad11)*%
X71269999Y-90424999D03*
%TO.P,IC1,12,GPIO_18/PWM0/SPI1_CS0*%
%TO.N,unconnected-(IC1-GPIO_18{slash}PWM0{slash}SPI1_CS0-Pad12)*%
X68729999Y-90424999D03*
%TO.P,IC1,13,GPIO27*%
%TO.N,IRQ*%
X71269999Y-87884999D03*
%TO.P,IC1,14,GND_3*%
%TO.N,GND*%
X68729999Y-87884999D03*
%TO.P,IC1,15,GPIO_22*%
%TO.N,CE*%
X71269999Y-85344999D03*
%TO.P,IC1,16,GPIO_23*%
%TO.N,unconnected-(IC1-GPIO_23-Pad16)*%
X68729999Y-85344999D03*
%TO.P,IC1,17,+3.3V_2*%
%TO.N,unconnected-(IC1-+3.3V_2-Pad17)*%
X71269999Y-82804999D03*
%TO.P,IC1,18,GPIO_24*%
%TO.N,unconnected-(IC1-GPIO_24-Pad18)*%
X68729999Y-82804999D03*
%TO.P,IC1,19,GPIO_10/SPI0_MOSI*%
%TO.N,MOSI*%
X71269999Y-80264999D03*
%TO.P,IC1,20,GND_4*%
%TO.N,GND*%
X68729999Y-80264999D03*
%TO.P,IC1,21,GPIO_9/SPI0_MISO*%
%TO.N,MISO*%
X71269999Y-77724999D03*
%TO.P,IC1,22,GPIO_25*%
%TO.N,unconnected-(IC1-GPIO_25-Pad22)*%
X68729999Y-77724999D03*
%TO.P,IC1,23,GPIO_11/SPI0_SCLK*%
%TO.N,SCK*%
X71269999Y-75184999D03*
%TO.P,IC1,24,GPIO_8/SPI0_CE1_N*%
%TO.N,CSN*%
X68729999Y-75184999D03*
%TO.P,IC1,25,GND_5*%
%TO.N,GND*%
X71269999Y-72644999D03*
%TO.P,IC1,26,GPIO_7/SPI0_CE2_N*%
%TO.N,unconnected-(IC1-GPIO_7{slash}SPI0_CE2_N-Pad26)*%
X68729999Y-72644999D03*
%TO.P,IC1,27,DNC_1*%
%TO.N,unconnected-(IC1-DNC_1-Pad27)*%
X71269999Y-70104999D03*
%TO.P,IC1,28,DNC_2*%
%TO.N,unconnected-(IC1-DNC_2-Pad28)*%
X68729999Y-70104999D03*
%TO.P,IC1,29,GPIO5//GPCLK1*%
%TO.N,unconnected-(IC1-GPIO5{slash}{slash}GPCLK1-Pad29)*%
X71269999Y-67564999D03*
%TO.P,IC1,30,GND_6*%
%TO.N,GND*%
X68729999Y-67564999D03*
%TO.P,IC1,31,GPIO6/GPCLK2*%
%TO.N,unconnected-(IC1-GPIO6{slash}GPCLK2-Pad31)*%
X71269999Y-65024999D03*
%TO.P,IC1,32,GPIO12/PWM0*%
%TO.N,unconnected-(IC1-GPIO12{slash}PWM0-Pad32)*%
X68729999Y-65024999D03*
%TO.P,IC1,33,GPIO13/PWM1*%
%TO.N,unconnected-(IC1-GPIO13{slash}PWM1-Pad33)*%
X71269999Y-62484999D03*
%TO.P,IC1,34,GND_7*%
%TO.N,GND*%
X68729999Y-62484999D03*
%TO.P,IC1,35,GPIO19/SPI0_MISO1/PWM1*%
%TO.N,unconnected-(IC1-GPIO19{slash}SPI0_MISO1{slash}PWM1-Pad35)*%
X71269999Y-59944999D03*
%TO.P,IC1,36,GPIO16/SPI1_CS2*%
%TO.N,unconnected-(IC1-GPIO16{slash}SPI1_CS2-Pad36)*%
X68729999Y-59944999D03*
%TO.P,IC1,37,GPIO26*%
%TO.N,unconnected-(IC1-GPIO26-Pad37)*%
X71269999Y-57404999D03*
%TO.P,IC1,38,GPIO20/SPI0_MOSI1*%
%TO.N,unconnected-(IC1-GPIO20{slash}SPI0_MOSI1-Pad38)*%
X68729999Y-57404999D03*
%TO.P,IC1,39,GND_8*%
%TO.N,GND*%
X71269999Y-54864999D03*
%TO.P,IC1,40,GPIO21/SPI0_SCLK1*%
%TO.N,unconnected-(IC1-GPIO21{slash}SPI0_SCLK1-Pad40)*%
X68729999Y-54864999D03*
%TD*%
D18*
%TO.P,U1,1,GND*%
%TO.N,GND*%
X87924999Y-72899999D03*
D20*
%TO.P,U1,2,VCC*%
%TO.N,+3.3V*%
X87925000Y-75440000D03*
%TO.P,U1,3,CE*%
%TO.N,CE*%
X85385000Y-72900000D03*
%TO.P,U1,4,~{CSN}*%
%TO.N,CSN*%
X85385000Y-75440000D03*
%TO.P,U1,5,SCK*%
%TO.N,SCK*%
X82845000Y-72900000D03*
%TO.P,U1,6,MOSI*%
%TO.N,MOSI*%
X82845000Y-75440000D03*
%TO.P,U1,7,MISO*%
%TO.N,MISO*%
X80305000Y-72900000D03*
%TO.P,U1,8,IRQ*%
%TO.N,IRQ*%
X80305000Y-75440000D03*
%TD*%
D15*
%TO.P,H1,1,1*%
%TO.N,GND*%
X70000000Y-50000000D03*
%TD*%
%TO.P,H2,1,1*%
%TO.N,GND*%
X93000000Y-50000000D03*
%TD*%
D21*
%TO.N,GND*%
X80700000Y-57637000D03*
%TO.N,IRQ*%
X73200000Y-84000000D03*
X76600000Y-76750500D03*
D22*
%TO.N,+5V*%
X75100000Y-79300000D03*
X73850000Y-73850000D03*
D21*
%TO.N,GND*%
X80000000Y-68000000D03*
X80000000Y-63000000D03*
X86000000Y-68000000D03*
X86000000Y-63000000D03*
X79000000Y-83200000D03*
X83500000Y-79700000D03*
X83500000Y-83200000D03*
X79000000Y-79700000D03*
%TD*%
D23*
%TO.N,+5V*%
X76600000Y-57000000D02*
X77500000Y-57000000D01*
X75071152Y-58528848D02*
X76600000Y-57000000D01*
X75071152Y-72628848D02*
X75071152Y-58528848D01*
X73850000Y-73850000D02*
X75071152Y-72628848D01*
X83000000Y-58587500D02*
X79712500Y-58587500D01*
X79712500Y-58587500D02*
X78000000Y-56875000D01*
X80000000Y-56687500D02*
X78187500Y-56687500D01*
X83000000Y-56687500D02*
X80000000Y-56687500D01*
X78187500Y-56687500D02*
X78000000Y-56875000D01*
%TO.N,IRQ*%
X73200000Y-85955000D02*
X71270000Y-87885000D01*
X73200000Y-84000000D02*
X73200000Y-85955000D01*
%TO.N,+5V*%
X70805000Y-105200000D02*
X75062500Y-105200000D01*
X68730000Y-103125000D02*
X70805000Y-105200000D01*
X75062500Y-105200000D02*
X75100000Y-105237500D01*
X75037500Y-104900000D02*
X75100000Y-104837500D01*
%TO.N,IRQ*%
X77910500Y-75440000D02*
X76600000Y-76750500D01*
X80305000Y-75440000D02*
X77910500Y-75440000D01*
%TO.N,+5V*%
X75100000Y-79300000D02*
X75100000Y-104837500D01*
%TO.N,+3.3V*%
X88000000Y-56775000D02*
X91400000Y-60175000D01*
X91400000Y-75237500D02*
X91700000Y-75537500D01*
X85362500Y-56775000D02*
X88000000Y-56775000D01*
X91400000Y-60175000D02*
X91400000Y-75237500D01*
X85275000Y-56687500D02*
X85362500Y-56775000D01*
X91602500Y-75440000D02*
X91700000Y-75537500D01*
X87925000Y-75440000D02*
X91602500Y-75440000D01*
%TO.N,+5V*%
X82930000Y-56617500D02*
X83000000Y-56687500D01*
X82930000Y-50795000D02*
X82930000Y-56617500D01*
X83450000Y-50275000D02*
X82930000Y-50795000D01*
X68730000Y-100585000D02*
X68730000Y-103125000D01*
%TO.N,MOSI*%
X73800000Y-77700000D02*
X80085000Y-77700000D01*
X71270000Y-80230000D02*
X73800000Y-77700000D01*
D24*
X71270000Y-80265000D02*
X71270000Y-80230000D01*
D23*
X80085000Y-77700000D02*
X82445000Y-75340000D01*
%TO.N,MISO*%
X71875000Y-77725000D02*
X73000000Y-76600000D01*
D24*
X71270000Y-77725000D02*
X71875000Y-77725000D01*
D23*
X75300000Y-76600000D02*
X79100000Y-72800000D01*
X73000000Y-76600000D02*
X75300000Y-76600000D01*
X79100000Y-72800000D02*
X79905000Y-72800000D01*
%TO.N,SCK*%
X74815000Y-75185000D02*
X78900000Y-71100000D01*
X71270000Y-75185000D02*
X74815000Y-75185000D01*
X81145000Y-71100000D02*
X82945000Y-72900000D01*
X78900000Y-71100000D02*
X81145000Y-71100000D01*
%TD*%
%TA.AperFunction,Conductor*%
%TO.N,GND*%
G36*
X74066606Y-78594870D02*
G01*
X74122590Y-78635151D01*
X74148394Y-78699112D01*
X74136035Y-78766963D01*
X74069418Y-78900750D01*
X74067850Y-78906258D01*
X74067847Y-78906268D01*
X74015173Y-79091395D01*
X74015170Y-79091406D01*
X74013603Y-79096917D01*
X74013073Y-79102627D01*
X74013073Y-79102632D01*
X74000889Y-79234122D01*
X73994785Y-79300000D01*
X73995314Y-79305709D01*
X74003868Y-79398029D01*
X74013603Y-79503083D01*
X74015171Y-79508594D01*
X74015173Y-79508604D01*
X74067847Y-79693731D01*
X74067849Y-79693737D01*
X74069418Y-79699250D01*
X74160327Y-79881821D01*
X74163779Y-79886392D01*
X74273444Y-80031613D01*
X74283236Y-80044579D01*
X74287465Y-80048434D01*
X74287473Y-80048443D01*
X74309039Y-80068103D01*
X74338935Y-80109653D01*
X74349500Y-80159739D01*
X74349500Y-83955822D01*
X74338075Y-83999999D01*
X74349500Y-84044178D01*
X74349500Y-103978130D01*
X74338877Y-104028345D01*
X74308829Y-104069957D01*
X74264504Y-104095836D01*
X74137521Y-104137914D01*
X74137517Y-104137915D01*
X74130666Y-104140186D01*
X74124522Y-104143975D01*
X74124519Y-104143977D01*
X73987488Y-104228497D01*
X73987480Y-104228503D01*
X73981344Y-104232288D01*
X73976242Y-104237389D01*
X73976238Y-104237393D01*
X73862399Y-104351232D01*
X73862395Y-104351236D01*
X73857288Y-104356344D01*
X73853498Y-104362487D01*
X73853492Y-104362496D01*
X73836161Y-104390596D01*
X73791054Y-104433777D01*
X73730622Y-104449500D01*
X72637717Y-104449500D01*
X72572550Y-104430995D01*
X72526833Y-104381004D01*
X72514211Y-104314447D01*
X72538450Y-104251189D01*
X72540619Y-104248291D01*
X72563796Y-104217331D01*
X72614091Y-104082483D01*
X72620500Y-104022873D01*
X72620499Y-102227128D01*
X72614091Y-102167517D01*
X72563796Y-102032669D01*
X72477546Y-101917454D01*
X72362331Y-101831204D01*
X72292359Y-101805106D01*
X72230916Y-101782189D01*
X72180537Y-101747210D01*
X72153084Y-101692365D01*
X72155273Y-101631072D01*
X72186566Y-101578329D01*
X72308495Y-101456401D01*
X72444035Y-101262830D01*
X72543903Y-101048663D01*
X72605063Y-100820408D01*
X72625659Y-100585000D01*
X72605063Y-100349592D01*
X72543903Y-100121337D01*
X72444035Y-99907171D01*
X72308495Y-99713599D01*
X72141401Y-99546505D01*
X72136968Y-99543401D01*
X72136961Y-99543395D01*
X71955842Y-99416575D01*
X71916976Y-99372257D01*
X71902965Y-99315000D01*
X71916976Y-99257743D01*
X71955842Y-99213425D01*
X72136961Y-99086604D01*
X72136961Y-99086603D01*
X72141401Y-99083495D01*
X72308495Y-98916401D01*
X72444035Y-98722830D01*
X72543903Y-98508663D01*
X72605063Y-98280408D01*
X72625659Y-98045000D01*
X72605063Y-97809592D01*
X72543903Y-97581337D01*
X72444035Y-97367171D01*
X72308495Y-97173599D01*
X72141401Y-97006505D01*
X72136968Y-97003401D01*
X72136961Y-97003395D01*
X71955842Y-96876575D01*
X71916976Y-96832257D01*
X71902965Y-96775000D01*
X71916976Y-96717743D01*
X71955842Y-96673425D01*
X72136961Y-96546604D01*
X72136961Y-96546603D01*
X72141401Y-96543495D01*
X72308495Y-96376401D01*
X72444035Y-96182830D01*
X72543903Y-95968663D01*
X72605063Y-95740408D01*
X72625659Y-95505000D01*
X72605063Y-95269592D01*
X72543903Y-95041337D01*
X72444035Y-94827171D01*
X72308495Y-94633599D01*
X72141401Y-94466505D01*
X72136970Y-94463402D01*
X72136966Y-94463399D01*
X71955405Y-94336269D01*
X71916540Y-94291951D01*
X71902529Y-94234694D01*
X71916540Y-94177437D01*
X71955406Y-94133119D01*
X72136638Y-94006219D01*
X72144909Y-93999278D01*
X72304278Y-93839909D01*
X72311215Y-93831643D01*
X72440498Y-93647008D01*
X72445886Y-93637676D01*
X72541143Y-93433397D01*
X72544831Y-93423263D01*
X72596943Y-93228780D01*
X72597311Y-93217551D01*
X72586369Y-93215000D01*
X71144000Y-93215000D01*
X71082000Y-93198387D01*
X71036613Y-93153000D01*
X71020000Y-93091000D01*
X71020000Y-92839000D01*
X71036613Y-92777000D01*
X71082000Y-92731613D01*
X71144000Y-92715000D01*
X72586369Y-92715000D01*
X72597311Y-92712448D01*
X72596943Y-92701219D01*
X72544831Y-92506736D01*
X72541143Y-92496602D01*
X72445889Y-92292332D01*
X72440491Y-92282982D01*
X72311215Y-92098357D01*
X72304280Y-92090092D01*
X72144909Y-91930721D01*
X72136643Y-91923784D01*
X71955405Y-91796880D01*
X71916540Y-91752562D01*
X71902529Y-91695305D01*
X71916540Y-91638048D01*
X71955406Y-91593730D01*
X72136961Y-91466604D01*
X72136961Y-91466603D01*
X72141401Y-91463495D01*
X72308495Y-91296401D01*
X72444035Y-91102830D01*
X72543903Y-90888663D01*
X72605063Y-90660408D01*
X72625659Y-90425000D01*
X72605063Y-90189592D01*
X72543903Y-89961337D01*
X72444035Y-89747171D01*
X72308495Y-89553599D01*
X72141401Y-89386505D01*
X72136968Y-89383401D01*
X72136961Y-89383395D01*
X71955842Y-89256575D01*
X71916976Y-89212257D01*
X71902965Y-89155000D01*
X71916976Y-89097743D01*
X71955842Y-89053425D01*
X72136961Y-88926604D01*
X72136961Y-88926603D01*
X72141401Y-88923495D01*
X72308495Y-88756401D01*
X72444035Y-88562830D01*
X72543903Y-88348663D01*
X72605063Y-88120408D01*
X72625659Y-87885000D01*
X72607022Y-87671984D01*
X72614028Y-87618767D01*
X72642867Y-87573498D01*
X73685638Y-86530727D01*
X73699262Y-86518953D01*
X73718530Y-86504610D01*
X73750372Y-86466661D01*
X73757686Y-86458681D01*
X73758267Y-86458099D01*
X73761590Y-86454777D01*
X73780836Y-86430433D01*
X73783058Y-86427706D01*
X73831302Y-86370214D01*
X73834547Y-86363751D01*
X73836440Y-86360874D01*
X73836644Y-86360591D01*
X73836821Y-86360274D01*
X73838623Y-86357352D01*
X73843111Y-86351677D01*
X73874816Y-86283682D01*
X73876355Y-86280502D01*
X73910040Y-86213433D01*
X73911706Y-86206398D01*
X73912881Y-86203172D01*
X73913020Y-86202836D01*
X73913118Y-86202491D01*
X73914200Y-86199224D01*
X73917256Y-86192673D01*
X73932434Y-86119157D01*
X73933186Y-86115768D01*
X73950500Y-86042721D01*
X73950500Y-86035490D01*
X73950902Y-86032051D01*
X73950956Y-86031714D01*
X73950972Y-86031360D01*
X73951271Y-86027933D01*
X73952733Y-86020856D01*
X73950552Y-85945889D01*
X73950500Y-85942283D01*
X73950500Y-84534321D01*
X73967113Y-84472321D01*
X74027179Y-84368284D01*
X74085674Y-84188256D01*
X74102179Y-84031216D01*
X74113850Y-84000000D01*
X74102179Y-83968783D01*
X74086353Y-83818204D01*
X74086352Y-83818203D01*
X74085674Y-83811744D01*
X74027179Y-83631716D01*
X73932533Y-83467784D01*
X73918299Y-83451976D01*
X73810220Y-83331942D01*
X73810219Y-83331941D01*
X73805871Y-83327112D01*
X73800613Y-83323292D01*
X73800611Y-83323290D01*
X73657988Y-83219669D01*
X73657987Y-83219668D01*
X73652730Y-83215849D01*
X73646792Y-83213205D01*
X73485745Y-83141501D01*
X73485740Y-83141499D01*
X73479803Y-83138856D01*
X73473444Y-83137504D01*
X73473440Y-83137503D01*
X73301008Y-83100852D01*
X73301005Y-83100851D01*
X73294646Y-83099500D01*
X73105354Y-83099500D01*
X73098995Y-83100851D01*
X73098991Y-83100852D01*
X72926559Y-83137503D01*
X72926552Y-83137505D01*
X72920197Y-83138856D01*
X72860605Y-83165388D01*
X72769918Y-83205765D01*
X72701689Y-83215202D01*
X72638951Y-83186775D01*
X72601060Y-83129255D01*
X72599709Y-83060390D01*
X72600221Y-83058477D01*
X72605063Y-83040408D01*
X72625659Y-82805000D01*
X72605063Y-82569592D01*
X72543903Y-82341337D01*
X72444035Y-82127171D01*
X72308495Y-81933599D01*
X72141401Y-81766505D01*
X72136968Y-81763401D01*
X72136961Y-81763395D01*
X71955842Y-81636575D01*
X71916976Y-81592257D01*
X71902965Y-81535000D01*
X71916976Y-81477743D01*
X71955842Y-81433425D01*
X72136961Y-81306604D01*
X72136961Y-81306603D01*
X72141401Y-81303495D01*
X72308495Y-81136401D01*
X72444035Y-80942830D01*
X72543903Y-80728663D01*
X72605063Y-80500408D01*
X72625659Y-80265000D01*
X72605063Y-80029592D01*
X72605003Y-80029368D01*
X72608734Y-79972444D01*
X72639312Y-79922053D01*
X73937354Y-78624011D01*
X73997761Y-78590731D01*
X74066606Y-78594870D01*
G37*
%TD.AperFunction*%
%TA.AperFunction,Conductor*%
G36*
X84347471Y-57347195D02*
G01*
X84348955Y-57345283D01*
X84355116Y-57350062D01*
X84360635Y-57355581D01*
X84367349Y-57359552D01*
X84367351Y-57359553D01*
X84407632Y-57383375D01*
X84502102Y-57439244D01*
X84659931Y-57485098D01*
X84696806Y-57488000D01*
X85094637Y-57488000D01*
X85124703Y-57492850D01*
X85124825Y-57492256D01*
X85124827Y-57492257D01*
X85198356Y-57507438D01*
X85201790Y-57508200D01*
X85274779Y-57525500D01*
X85282000Y-57525500D01*
X85285438Y-57525902D01*
X85285777Y-57525956D01*
X85286127Y-57525972D01*
X85289570Y-57526273D01*
X85296645Y-57527734D01*
X85371630Y-57525552D01*
X85375238Y-57525500D01*
X86549188Y-57525500D01*
X86615814Y-57544920D01*
X86661571Y-57597096D01*
X86662912Y-57599972D01*
X86665186Y-57606834D01*
X86668980Y-57612985D01*
X86753497Y-57750011D01*
X86753500Y-57750015D01*
X86757288Y-57756156D01*
X86881344Y-57880212D01*
X86887485Y-57884000D01*
X86887488Y-57884002D01*
X86931775Y-57911318D01*
X87030666Y-57972314D01*
X87197203Y-58027499D01*
X87299991Y-58038000D01*
X88150269Y-58037999D01*
X88197722Y-58047438D01*
X88237950Y-58074318D01*
X88789547Y-58625915D01*
X88820180Y-58676479D01*
X88823920Y-58735480D01*
X88799915Y-58789507D01*
X88753623Y-58826278D01*
X88699979Y-58836588D01*
X88699979Y-58837500D01*
X88266326Y-58837500D01*
X88253450Y-58840950D01*
X88250000Y-58853826D01*
X88250000Y-59733674D01*
X88253450Y-59746549D01*
X88266326Y-59750000D01*
X89383673Y-59750000D01*
X89396548Y-59746549D01*
X89399999Y-59733674D01*
X89399999Y-59537522D01*
X89400921Y-59537522D01*
X89411201Y-59483916D01*
X89447965Y-59437603D01*
X89501996Y-59413582D01*
X89561009Y-59417314D01*
X89611583Y-59447951D01*
X90613181Y-60449548D01*
X90640061Y-60489776D01*
X90649500Y-60537229D01*
X90649500Y-74421042D01*
X90633777Y-74481475D01*
X90593110Y-74523953D01*
X90593159Y-74524015D01*
X90592716Y-74524364D01*
X90590594Y-74526582D01*
X90587497Y-74528492D01*
X90587492Y-74528495D01*
X90581344Y-74532288D01*
X90576236Y-74537395D01*
X90576232Y-74537399D01*
X90460451Y-74653181D01*
X90420223Y-74680061D01*
X90372770Y-74689500D01*
X89112700Y-74689500D01*
X89055443Y-74675489D01*
X89011125Y-74636623D01*
X88966600Y-74573033D01*
X88966598Y-74573030D01*
X88963495Y-74568599D01*
X88841181Y-74446285D01*
X88809885Y-74393539D01*
X88807696Y-74332246D01*
X88835149Y-74277401D01*
X88885529Y-74242422D01*
X89008777Y-74196452D01*
X89024189Y-74188037D01*
X89125092Y-74112501D01*
X89137501Y-74100092D01*
X89213037Y-73999189D01*
X89221452Y-73983777D01*
X89265888Y-73864641D01*
X89269426Y-73849667D01*
X89274646Y-73801114D01*
X89275000Y-73794518D01*
X89275000Y-73166326D01*
X89271549Y-73153450D01*
X89258674Y-73150000D01*
X87799000Y-73150000D01*
X87737000Y-73133387D01*
X87691613Y-73088000D01*
X87675000Y-73026000D01*
X87675000Y-72633674D01*
X88175000Y-72633674D01*
X88178450Y-72646549D01*
X88191326Y-72650000D01*
X89258674Y-72650000D01*
X89271549Y-72646549D01*
X89275000Y-72633674D01*
X89275000Y-72005482D01*
X89274646Y-71998885D01*
X89269426Y-71950332D01*
X89265888Y-71935358D01*
X89221452Y-71816222D01*
X89213037Y-71800810D01*
X89137501Y-71699907D01*
X89125092Y-71687498D01*
X89024189Y-71611962D01*
X89008777Y-71603547D01*
X88889641Y-71559111D01*
X88874667Y-71555573D01*
X88826114Y-71550353D01*
X88819518Y-71550000D01*
X88191326Y-71550000D01*
X88178450Y-71553450D01*
X88175000Y-71566326D01*
X88175000Y-72633674D01*
X87675000Y-72633674D01*
X87675000Y-71566326D01*
X87671549Y-71553450D01*
X87658674Y-71550000D01*
X87030482Y-71550000D01*
X87023885Y-71550353D01*
X86975332Y-71555573D01*
X86960358Y-71559111D01*
X86841222Y-71603547D01*
X86825810Y-71611962D01*
X86724907Y-71687498D01*
X86712498Y-71699907D01*
X86636962Y-71800810D01*
X86628544Y-71816226D01*
X86582576Y-71939471D01*
X86547597Y-71989850D01*
X86492753Y-72017303D01*
X86431460Y-72015114D01*
X86378714Y-71983818D01*
X86260232Y-71865336D01*
X86260230Y-71865334D01*
X86256401Y-71861505D01*
X86251970Y-71858402D01*
X86251966Y-71858399D01*
X86067259Y-71729066D01*
X86067257Y-71729064D01*
X86062830Y-71725965D01*
X86057933Y-71723681D01*
X86057927Y-71723678D01*
X85853572Y-71628386D01*
X85853570Y-71628385D01*
X85848663Y-71626097D01*
X85843438Y-71624697D01*
X85843430Y-71624694D01*
X85625634Y-71566337D01*
X85625630Y-71566336D01*
X85620408Y-71564937D01*
X85615020Y-71564465D01*
X85615017Y-71564465D01*
X85390395Y-71544813D01*
X85385000Y-71544341D01*
X85379605Y-71544813D01*
X85154982Y-71564465D01*
X85154977Y-71564465D01*
X85149592Y-71564937D01*
X85144371Y-71566335D01*
X85144365Y-71566337D01*
X84926569Y-71624694D01*
X84926557Y-71624698D01*
X84921337Y-71626097D01*
X84916432Y-71628383D01*
X84916427Y-71628386D01*
X84712081Y-71723675D01*
X84712077Y-71723677D01*
X84707171Y-71725965D01*
X84702738Y-71729068D01*
X84702731Y-71729073D01*
X84518034Y-71858399D01*
X84518029Y-71858402D01*
X84513599Y-71861505D01*
X84509775Y-71865328D01*
X84509769Y-71865334D01*
X84350334Y-72024769D01*
X84350328Y-72024775D01*
X84346505Y-72028599D01*
X84343402Y-72033029D01*
X84343399Y-72033034D01*
X84216575Y-72214159D01*
X84172257Y-72253025D01*
X84115000Y-72267036D01*
X84057743Y-72253025D01*
X84013425Y-72214159D01*
X83987005Y-72176427D01*
X83883495Y-72028599D01*
X83716401Y-71861505D01*
X83711970Y-71858402D01*
X83711966Y-71858399D01*
X83527259Y-71729066D01*
X83527257Y-71729064D01*
X83522830Y-71725965D01*
X83517933Y-71723681D01*
X83517927Y-71723678D01*
X83313572Y-71628386D01*
X83313570Y-71628385D01*
X83308663Y-71626097D01*
X83303438Y-71624697D01*
X83303430Y-71624694D01*
X83085634Y-71566337D01*
X83085630Y-71566336D01*
X83080408Y-71564937D01*
X83075020Y-71564465D01*
X83075017Y-71564465D01*
X82850395Y-71544813D01*
X82845000Y-71544341D01*
X82839605Y-71544813D01*
X82723940Y-71554932D01*
X82670722Y-71547926D01*
X82625452Y-71519085D01*
X81720729Y-70614361D01*
X81708947Y-70600727D01*
X81698925Y-70587265D01*
X81698921Y-70587261D01*
X81694610Y-70581470D01*
X81656667Y-70549631D01*
X81648691Y-70542323D01*
X81647329Y-70540961D01*
X81647328Y-70540960D01*
X81644777Y-70538409D01*
X81641953Y-70536176D01*
X81641944Y-70536168D01*
X81620445Y-70519170D01*
X81617674Y-70516913D01*
X81560214Y-70468698D01*
X81553760Y-70465456D01*
X81550859Y-70463548D01*
X81550588Y-70463352D01*
X81550292Y-70463187D01*
X81547339Y-70461366D01*
X81541677Y-70456889D01*
X81535134Y-70453838D01*
X81535131Y-70453836D01*
X81473692Y-70425186D01*
X81470446Y-70423615D01*
X81465207Y-70420984D01*
X81403433Y-70389960D01*
X81396409Y-70388295D01*
X81393151Y-70387109D01*
X81392832Y-70386977D01*
X81392504Y-70386884D01*
X81389218Y-70385795D01*
X81382673Y-70382743D01*
X81375604Y-70381283D01*
X81375600Y-70381282D01*
X81309212Y-70367574D01*
X81305691Y-70366794D01*
X81239741Y-70351163D01*
X81239734Y-70351162D01*
X81232721Y-70349500D01*
X81225510Y-70349500D01*
X81222061Y-70349097D01*
X81221727Y-70349043D01*
X81221374Y-70349028D01*
X81217929Y-70348726D01*
X81210856Y-70347266D01*
X81203638Y-70347476D01*
X81135870Y-70349448D01*
X81132263Y-70349500D01*
X78963707Y-70349500D01*
X78945736Y-70348191D01*
X78929126Y-70345758D01*
X78929124Y-70345757D01*
X78921977Y-70344711D01*
X78914785Y-70345340D01*
X78914778Y-70345340D01*
X78872634Y-70349028D01*
X78861827Y-70349500D01*
X78856291Y-70349500D01*
X78852730Y-70349916D01*
X78852715Y-70349917D01*
X78825484Y-70353100D01*
X78821900Y-70353466D01*
X78754395Y-70359372D01*
X78754389Y-70359373D01*
X78747202Y-70360002D01*
X78740351Y-70362271D01*
X78736949Y-70362974D01*
X78736619Y-70363027D01*
X78736300Y-70363118D01*
X78732912Y-70363920D01*
X78725745Y-70364759D01*
X78718968Y-70367225D01*
X78718957Y-70367228D01*
X78655270Y-70390407D01*
X78651869Y-70391589D01*
X78587516Y-70412914D01*
X78587503Y-70412920D01*
X78580665Y-70415186D01*
X78574531Y-70418968D01*
X78571356Y-70420449D01*
X78571064Y-70420569D01*
X78570772Y-70420733D01*
X78567662Y-70422294D01*
X78560883Y-70424763D01*
X78554852Y-70428729D01*
X78554853Y-70428729D01*
X78498236Y-70465965D01*
X78495199Y-70467900D01*
X78437486Y-70503499D01*
X78437477Y-70503505D01*
X78431344Y-70507289D01*
X78426245Y-70512386D01*
X78423506Y-70514553D01*
X78423242Y-70514743D01*
X78422995Y-70514970D01*
X78420331Y-70517205D01*
X78414304Y-70521170D01*
X78409355Y-70526414D01*
X78409353Y-70526417D01*
X78362832Y-70575726D01*
X78360320Y-70578311D01*
X76007461Y-72931170D01*
X75953266Y-72962882D01*
X75890484Y-72963978D01*
X75835214Y-72934178D01*
X75801629Y-72881123D01*
X75798341Y-72818417D01*
X75803581Y-72793036D01*
X75804349Y-72789570D01*
X75821652Y-72716569D01*
X75821652Y-72709349D01*
X75822054Y-72705910D01*
X75822108Y-72705571D01*
X75822124Y-72705221D01*
X75822425Y-72701778D01*
X75823886Y-72694703D01*
X75821704Y-72619717D01*
X75821652Y-72616110D01*
X75821652Y-60459329D01*
X76600001Y-60459329D01*
X76600321Y-60465611D01*
X76609805Y-60558459D01*
X76612623Y-60571622D01*
X76663370Y-60724767D01*
X76669432Y-60737766D01*
X76753890Y-60874694D01*
X76762794Y-60885955D01*
X76876544Y-60999705D01*
X76887805Y-61008609D01*
X77024733Y-61093067D01*
X77037732Y-61099129D01*
X77190874Y-61149875D01*
X77204041Y-61152694D01*
X77296890Y-61162180D01*
X77303168Y-61162500D01*
X77733674Y-61162500D01*
X77746549Y-61159049D01*
X77750000Y-61146174D01*
X77750000Y-61146173D01*
X78250000Y-61146173D01*
X78253450Y-61159048D01*
X78266326Y-61162499D01*
X78696829Y-61162499D01*
X78703111Y-61162178D01*
X78795959Y-61152694D01*
X78809122Y-61149876D01*
X78962267Y-61099129D01*
X78975266Y-61093067D01*
X79112194Y-61008609D01*
X79123455Y-60999705D01*
X79237205Y-60885955D01*
X79246109Y-60874694D01*
X79330567Y-60737766D01*
X79336629Y-60724767D01*
X79387375Y-60571625D01*
X79390194Y-60558458D01*
X79399680Y-60465609D01*
X79400000Y-60459332D01*
X79400000Y-60459329D01*
X86600001Y-60459329D01*
X86600321Y-60465611D01*
X86609805Y-60558459D01*
X86612623Y-60571622D01*
X86663370Y-60724767D01*
X86669432Y-60737766D01*
X86753890Y-60874694D01*
X86762794Y-60885955D01*
X86876544Y-60999705D01*
X86887805Y-61008609D01*
X87024733Y-61093067D01*
X87037732Y-61099129D01*
X87190874Y-61149875D01*
X87204041Y-61152694D01*
X87296890Y-61162180D01*
X87303168Y-61162500D01*
X87733674Y-61162500D01*
X87746549Y-61159049D01*
X87750000Y-61146174D01*
X87750000Y-61146173D01*
X88250000Y-61146173D01*
X88253450Y-61159048D01*
X88266326Y-61162499D01*
X88696829Y-61162499D01*
X88703111Y-61162178D01*
X88795959Y-61152694D01*
X88809122Y-61149876D01*
X88962267Y-61099129D01*
X88975266Y-61093067D01*
X89112194Y-61008609D01*
X89123455Y-60999705D01*
X89237205Y-60885955D01*
X89246109Y-60874694D01*
X89330567Y-60737766D01*
X89336629Y-60724767D01*
X89387375Y-60571625D01*
X89390194Y-60558458D01*
X89399680Y-60465609D01*
X89400000Y-60459332D01*
X89400000Y-60266326D01*
X89396549Y-60253450D01*
X89383674Y-60250000D01*
X88266326Y-60250000D01*
X88253450Y-60253450D01*
X88250000Y-60266326D01*
X88250000Y-61146173D01*
X87750000Y-61146173D01*
X87750000Y-60266326D01*
X87746549Y-60253450D01*
X87733674Y-60250000D01*
X86616327Y-60250000D01*
X86603451Y-60253450D01*
X86600001Y-60266326D01*
X86600001Y-60459329D01*
X79400000Y-60459329D01*
X79400000Y-60266326D01*
X79396549Y-60253450D01*
X79383674Y-60250000D01*
X78266326Y-60250000D01*
X78253450Y-60253450D01*
X78250000Y-60266326D01*
X78250000Y-61146173D01*
X77750000Y-61146173D01*
X77750000Y-60266326D01*
X77746549Y-60253450D01*
X77733674Y-60250000D01*
X76616327Y-60250000D01*
X76603451Y-60253450D01*
X76600001Y-60266326D01*
X76600001Y-60459329D01*
X75821652Y-60459329D01*
X75821652Y-59733674D01*
X76600000Y-59733674D01*
X76603450Y-59746549D01*
X76616326Y-59750000D01*
X77733674Y-59750000D01*
X77746549Y-59746549D01*
X77750000Y-59733674D01*
X77750000Y-58853827D01*
X77746549Y-58840951D01*
X77733674Y-58837501D01*
X77303171Y-58837501D01*
X77296888Y-58837821D01*
X77204040Y-58847305D01*
X77190877Y-58850123D01*
X77037732Y-58900870D01*
X77024733Y-58906932D01*
X76887805Y-58991390D01*
X76876544Y-59000294D01*
X76762794Y-59114044D01*
X76753890Y-59125305D01*
X76669432Y-59262233D01*
X76663370Y-59275232D01*
X76612624Y-59428374D01*
X76609805Y-59441541D01*
X76600319Y-59534390D01*
X76600000Y-59540668D01*
X76600000Y-59733674D01*
X75821652Y-59733674D01*
X75821652Y-58891078D01*
X75831091Y-58843625D01*
X75857971Y-58803397D01*
X75986368Y-58675000D01*
X76750050Y-57911316D01*
X76796449Y-57882071D01*
X76850929Y-57875704D01*
X76902819Y-57893458D01*
X77030666Y-57972314D01*
X77197203Y-58027499D01*
X77299991Y-58038000D01*
X78050269Y-58037999D01*
X78097722Y-58047438D01*
X78137950Y-58074318D01*
X78689451Y-58625819D01*
X78719701Y-58675182D01*
X78724243Y-58732898D01*
X78702088Y-58786385D01*
X78658065Y-58823985D01*
X78601770Y-58837500D01*
X78266326Y-58837500D01*
X78253450Y-58840950D01*
X78250000Y-58853826D01*
X78250000Y-59733674D01*
X78253450Y-59746549D01*
X78266326Y-59750000D01*
X79383673Y-59750000D01*
X79396548Y-59746549D01*
X79399999Y-59733674D01*
X86600000Y-59733674D01*
X86603450Y-59746549D01*
X86616326Y-59750000D01*
X87733674Y-59750000D01*
X87746549Y-59746549D01*
X87750000Y-59733674D01*
X87750000Y-58853827D01*
X87746549Y-58840951D01*
X87733674Y-58837501D01*
X87303171Y-58837501D01*
X87296888Y-58837821D01*
X87204040Y-58847305D01*
X87190877Y-58850123D01*
X87037732Y-58900870D01*
X87024733Y-58906932D01*
X86887805Y-58991390D01*
X86876544Y-59000294D01*
X86762794Y-59114044D01*
X86753890Y-59125305D01*
X86669432Y-59262233D01*
X86663370Y-59275232D01*
X86612624Y-59428374D01*
X86609805Y-59441541D01*
X86600319Y-59534390D01*
X86600000Y-59540668D01*
X86600000Y-59733674D01*
X79399999Y-59733674D01*
X79399999Y-59540671D01*
X79399679Y-59534391D01*
X79391282Y-59452194D01*
X79398909Y-59395070D01*
X79431534Y-59347562D01*
X79482112Y-59319935D01*
X79539712Y-59318154D01*
X79548320Y-59319931D01*
X79551790Y-59320700D01*
X79624779Y-59338000D01*
X79632000Y-59338000D01*
X79635438Y-59338402D01*
X79635777Y-59338456D01*
X79636127Y-59338472D01*
X79639570Y-59338773D01*
X79646645Y-59340234D01*
X79721630Y-59338052D01*
X79725238Y-59338000D01*
X82205174Y-59338000D01*
X82239768Y-59342923D01*
X82384931Y-59385098D01*
X82421806Y-59388000D01*
X83575749Y-59388000D01*
X83578194Y-59388000D01*
X83615069Y-59385098D01*
X83772898Y-59339244D01*
X83914365Y-59255581D01*
X84030581Y-59139365D01*
X84034554Y-59132646D01*
X84039334Y-59126485D01*
X84041698Y-59128319D01*
X84076004Y-59094493D01*
X84137500Y-59078169D01*
X84198996Y-59094493D01*
X84233301Y-59128319D01*
X84235666Y-59126485D01*
X84240446Y-59132648D01*
X84244419Y-59139365D01*
X84360635Y-59255581D01*
X84367349Y-59259552D01*
X84367351Y-59259553D01*
X84388535Y-59272081D01*
X84502102Y-59339244D01*
X84659931Y-59385098D01*
X84696806Y-59388000D01*
X85850749Y-59388000D01*
X85853194Y-59388000D01*
X85890069Y-59385098D01*
X86047898Y-59339244D01*
X86189365Y-59255581D01*
X86305581Y-59139365D01*
X86389244Y-58997898D01*
X86435098Y-58840069D01*
X86438000Y-58803194D01*
X86438000Y-58371806D01*
X86435098Y-58334931D01*
X86389244Y-58177102D01*
X86305581Y-58035635D01*
X86189365Y-57919419D01*
X86182651Y-57915448D01*
X86182648Y-57915446D01*
X86054613Y-57839727D01*
X86054611Y-57839726D01*
X86047898Y-57835756D01*
X86040405Y-57833579D01*
X85896157Y-57791670D01*
X85896150Y-57791668D01*
X85890069Y-57789902D01*
X85883758Y-57789405D01*
X85883751Y-57789404D01*
X85855628Y-57787191D01*
X85855614Y-57787190D01*
X85853194Y-57787000D01*
X84696806Y-57787000D01*
X84694386Y-57787190D01*
X84694371Y-57787191D01*
X84666248Y-57789404D01*
X84666239Y-57789405D01*
X84659931Y-57789902D01*
X84653851Y-57791668D01*
X84653842Y-57791670D01*
X84509594Y-57833579D01*
X84509591Y-57833580D01*
X84502102Y-57835756D01*
X84495391Y-57839724D01*
X84495386Y-57839727D01*
X84367351Y-57915446D01*
X84367344Y-57915450D01*
X84360635Y-57919419D01*
X84355118Y-57924935D01*
X84348955Y-57929717D01*
X84347474Y-57927808D01*
X84300919Y-57954168D01*
X84234801Y-57952535D01*
X84178927Y-57917145D01*
X84176617Y-57912556D01*
X84157267Y-57891624D01*
X84142644Y-57887500D01*
X83894315Y-57887500D01*
X83831194Y-57870232D01*
X83779613Y-57839727D01*
X83779611Y-57839726D01*
X83772898Y-57835756D01*
X83765405Y-57833579D01*
X83621157Y-57791670D01*
X83621150Y-57791668D01*
X83615069Y-57789902D01*
X83608758Y-57789405D01*
X83608751Y-57789404D01*
X83580628Y-57787191D01*
X83580614Y-57787190D01*
X83578194Y-57787000D01*
X82421806Y-57787000D01*
X82419386Y-57787190D01*
X82419371Y-57787191D01*
X82391248Y-57789404D01*
X82391239Y-57789405D01*
X82384931Y-57789902D01*
X82378851Y-57791668D01*
X82378842Y-57791670D01*
X82256210Y-57827299D01*
X82246512Y-57830117D01*
X82239769Y-57832076D01*
X82205174Y-57837000D01*
X80074729Y-57837000D01*
X80027276Y-57827561D01*
X79987048Y-57800681D01*
X79836048Y-57649681D01*
X79805798Y-57600318D01*
X79801256Y-57542602D01*
X79823411Y-57489115D01*
X79867434Y-57451515D01*
X79923729Y-57438000D01*
X80043709Y-57438000D01*
X82205174Y-57438000D01*
X82239768Y-57442923D01*
X82384931Y-57485098D01*
X82421806Y-57488000D01*
X83575749Y-57488000D01*
X83578194Y-57488000D01*
X83615069Y-57485098D01*
X83772898Y-57439244D01*
X83831193Y-57404768D01*
X83894315Y-57387500D01*
X84142644Y-57387500D01*
X84157267Y-57383375D01*
X84176619Y-57362441D01*
X84178928Y-57357854D01*
X84234811Y-57322461D01*
X84300938Y-57320835D01*
X84347471Y-57347195D01*
G37*
%TD.AperFunction*%
%TA.AperFunction,Conductor*%
G36*
X93002854Y-46000632D02*
G01*
X93018811Y-46001369D01*
X93173088Y-46008502D01*
X93369795Y-46018166D01*
X93380787Y-46019201D01*
X93562876Y-46044601D01*
X93563781Y-46044732D01*
X93747261Y-46071949D01*
X93757413Y-46073892D01*
X93938614Y-46116510D01*
X93940023Y-46116852D01*
X94117874Y-46161401D01*
X94127091Y-46164096D01*
X94304478Y-46223550D01*
X94306618Y-46224292D01*
X94478220Y-46285692D01*
X94486519Y-46289004D01*
X94657980Y-46364712D01*
X94660909Y-46366051D01*
X94747263Y-46406892D01*
X94825119Y-46443715D01*
X94832411Y-46447465D01*
X94929135Y-46501341D01*
X94996435Y-46538827D01*
X94999810Y-46540777D01*
X95155371Y-46634017D01*
X95161670Y-46638058D01*
X95316699Y-46744256D01*
X95320459Y-46746935D01*
X95466009Y-46854882D01*
X95471305Y-46859040D01*
X95616009Y-46979200D01*
X95619947Y-46982617D01*
X95754206Y-47104303D01*
X95758590Y-47108478D01*
X95891520Y-47241408D01*
X95895698Y-47245795D01*
X96017375Y-47380045D01*
X96020805Y-47383998D01*
X96140951Y-47528684D01*
X96145124Y-47534000D01*
X96253041Y-47679509D01*
X96255742Y-47683299D01*
X96361940Y-47838328D01*
X96365999Y-47844656D01*
X96459200Y-48000153D01*
X96461171Y-48003563D01*
X96552525Y-48167573D01*
X96556291Y-48174896D01*
X96633947Y-48339089D01*
X96635286Y-48342018D01*
X96710994Y-48513479D01*
X96714311Y-48521791D01*
X96775666Y-48693265D01*
X96776487Y-48695634D01*
X96835894Y-48872881D01*
X96838606Y-48882157D01*
X96883104Y-49059803D01*
X96883526Y-49061543D01*
X96926101Y-49242562D01*
X96928053Y-49252758D01*
X96955257Y-49436156D01*
X96955410Y-49437218D01*
X96980794Y-49619184D01*
X96981834Y-49630232D01*
X96991512Y-49827238D01*
X96991529Y-49827595D01*
X96999368Y-49997145D01*
X96999500Y-50002872D01*
X96999500Y-81911214D01*
X96982887Y-81973214D01*
X96937500Y-82018601D01*
X96875500Y-82035214D01*
X91005214Y-82035214D01*
X91005214Y-93914786D01*
X96875500Y-93914786D01*
X96937500Y-93931399D01*
X96982887Y-93976786D01*
X96999500Y-94038786D01*
X96999500Y-107997128D01*
X96999368Y-108002855D01*
X96991529Y-108172404D01*
X96991512Y-108172761D01*
X96981834Y-108369766D01*
X96980794Y-108380814D01*
X96955410Y-108562780D01*
X96955257Y-108563842D01*
X96928053Y-108747240D01*
X96926101Y-108757436D01*
X96883526Y-108938455D01*
X96883104Y-108940195D01*
X96838606Y-109117841D01*
X96835894Y-109127117D01*
X96776487Y-109304364D01*
X96775666Y-109306733D01*
X96714311Y-109478207D01*
X96710994Y-109486519D01*
X96635286Y-109657980D01*
X96633947Y-109660909D01*
X96556291Y-109825102D01*
X96552525Y-109832425D01*
X96461171Y-109996435D01*
X96459200Y-109999845D01*
X96365999Y-110155342D01*
X96361940Y-110161670D01*
X96255742Y-110316699D01*
X96253041Y-110320489D01*
X96145135Y-110465984D01*
X96140935Y-110471334D01*
X96020851Y-110615947D01*
X96017331Y-110620004D01*
X95895717Y-110754183D01*
X95891520Y-110758590D01*
X95758590Y-110891520D01*
X95754183Y-110895717D01*
X95620004Y-111017331D01*
X95615947Y-111020851D01*
X95471334Y-111140935D01*
X95465984Y-111145135D01*
X95320489Y-111253041D01*
X95316699Y-111255742D01*
X95161670Y-111361940D01*
X95155342Y-111365999D01*
X94999845Y-111459200D01*
X94996435Y-111461171D01*
X94832425Y-111552525D01*
X94825102Y-111556291D01*
X94660909Y-111633947D01*
X94657980Y-111635286D01*
X94486519Y-111710994D01*
X94478207Y-111714311D01*
X94306733Y-111775666D01*
X94304364Y-111776487D01*
X94127117Y-111835894D01*
X94117841Y-111838606D01*
X93940195Y-111883104D01*
X93938455Y-111883526D01*
X93757436Y-111926101D01*
X93747240Y-111928053D01*
X93563842Y-111955257D01*
X93562780Y-111955410D01*
X93380814Y-111980794D01*
X93369766Y-111981834D01*
X93172931Y-111991503D01*
X93172575Y-111991520D01*
X93007393Y-111999158D01*
X93002854Y-111999368D01*
X92997128Y-111999500D01*
X70002872Y-111999500D01*
X69997145Y-111999368D01*
X69992305Y-111999144D01*
X69827423Y-111991520D01*
X69827067Y-111991503D01*
X69630232Y-111981834D01*
X69619184Y-111980794D01*
X69437218Y-111955410D01*
X69436156Y-111955257D01*
X69252758Y-111928053D01*
X69242562Y-111926101D01*
X69061543Y-111883526D01*
X69059803Y-111883104D01*
X68882157Y-111838606D01*
X68872881Y-111835894D01*
X68695634Y-111776487D01*
X68693265Y-111775666D01*
X68521791Y-111714311D01*
X68513479Y-111710994D01*
X68342018Y-111635286D01*
X68339089Y-111633947D01*
X68174896Y-111556291D01*
X68167573Y-111552525D01*
X68003563Y-111461171D01*
X68000153Y-111459200D01*
X67980648Y-111447509D01*
X67844645Y-111365992D01*
X67838328Y-111361940D01*
X67683299Y-111255742D01*
X67679509Y-111253041D01*
X67534000Y-111145124D01*
X67528684Y-111140951D01*
X67383998Y-111020805D01*
X67380045Y-111017375D01*
X67245795Y-110895698D01*
X67241408Y-110891520D01*
X67108478Y-110758590D01*
X67104303Y-110754206D01*
X66982617Y-110619947D01*
X66979200Y-110616009D01*
X66859040Y-110471305D01*
X66854882Y-110466009D01*
X66746935Y-110320459D01*
X66744256Y-110316699D01*
X66653368Y-110184020D01*
X68174812Y-110184020D01*
X68182499Y-110195346D01*
X68292441Y-110287598D01*
X68298239Y-110291915D01*
X68569565Y-110470369D01*
X68575814Y-110473976D01*
X68866022Y-110619725D01*
X68872661Y-110622588D01*
X69177838Y-110733664D01*
X69184728Y-110735727D01*
X69500768Y-110810630D01*
X69507834Y-110811876D01*
X69830435Y-110849582D01*
X69837605Y-110850000D01*
X70162395Y-110850000D01*
X70169564Y-110849582D01*
X70492165Y-110811876D01*
X70499231Y-110810630D01*
X70815271Y-110735727D01*
X70822161Y-110733664D01*
X71127338Y-110622588D01*
X71133977Y-110619725D01*
X71424185Y-110473976D01*
X71430434Y-110470369D01*
X71701760Y-110291915D01*
X71707558Y-110287598D01*
X71817499Y-110195346D01*
X71825186Y-110184020D01*
X91174812Y-110184020D01*
X91182499Y-110195346D01*
X91292441Y-110287598D01*
X91298239Y-110291915D01*
X91569565Y-110470369D01*
X91575814Y-110473976D01*
X91866022Y-110619725D01*
X91872661Y-110622588D01*
X92177838Y-110733664D01*
X92184728Y-110735727D01*
X92500768Y-110810630D01*
X92507834Y-110811876D01*
X92830435Y-110849582D01*
X92837605Y-110850000D01*
X93162395Y-110850000D01*
X93169564Y-110849582D01*
X93492165Y-110811876D01*
X93499231Y-110810630D01*
X93815271Y-110735727D01*
X93822161Y-110733664D01*
X94127338Y-110622588D01*
X94133977Y-110619725D01*
X94424185Y-110473976D01*
X94430434Y-110470369D01*
X94701760Y-110291915D01*
X94707558Y-110287598D01*
X94817499Y-110195346D01*
X94825186Y-110184020D01*
X94818515Y-110172068D01*
X93011542Y-108365095D01*
X93000000Y-108358431D01*
X92988457Y-108365095D01*
X91181482Y-110172069D01*
X91174812Y-110184020D01*
X71825186Y-110184020D01*
X71818515Y-110172068D01*
X70011542Y-108365095D01*
X70000000Y-108358431D01*
X69988457Y-108365095D01*
X68181482Y-110172069D01*
X68174812Y-110184020D01*
X66653368Y-110184020D01*
X66638058Y-110161670D01*
X66634017Y-110155371D01*
X66540777Y-109999810D01*
X66538827Y-109996435D01*
X66512261Y-109948740D01*
X66447465Y-109832411D01*
X66443715Y-109825119D01*
X66406892Y-109747263D01*
X66366051Y-109660909D01*
X66364712Y-109657980D01*
X66289004Y-109486519D01*
X66285692Y-109478220D01*
X66224292Y-109306618D01*
X66223550Y-109304478D01*
X66164096Y-109127091D01*
X66161401Y-109117874D01*
X66116852Y-108940023D01*
X66116510Y-108938614D01*
X66073892Y-108757413D01*
X66071949Y-108747261D01*
X66044732Y-108563781D01*
X66044588Y-108562780D01*
X66019201Y-108380787D01*
X66018166Y-108369795D01*
X66008480Y-108172611D01*
X66000667Y-108003606D01*
X67145380Y-108003606D01*
X67164262Y-108327812D01*
X67165101Y-108334991D01*
X67221494Y-108654811D01*
X67223156Y-108661824D01*
X67316305Y-108972963D01*
X67318761Y-108979712D01*
X67447402Y-109277934D01*
X67450635Y-109284370D01*
X67613016Y-109565623D01*
X67616982Y-109571654D01*
X67804384Y-109823377D01*
X67812616Y-109830544D01*
X67821798Y-109824647D01*
X69634904Y-108011542D01*
X69641568Y-108000000D01*
X69634904Y-107988457D01*
X67821798Y-106175351D01*
X67812616Y-106169455D01*
X67804383Y-106176622D01*
X67616982Y-106428344D01*
X67613016Y-106434376D01*
X67450635Y-106715629D01*
X67447402Y-106722065D01*
X67318761Y-107020287D01*
X67316305Y-107027036D01*
X67223156Y-107338175D01*
X67221494Y-107345188D01*
X67165101Y-107665008D01*
X67164262Y-107672187D01*
X67145380Y-107996394D01*
X67145380Y-108003606D01*
X66000667Y-108003606D01*
X66000632Y-108002854D01*
X66000500Y-107997128D01*
X66000500Y-103125000D01*
X67374341Y-103125000D01*
X67394937Y-103360408D01*
X67396336Y-103365630D01*
X67396337Y-103365634D01*
X67454694Y-103583430D01*
X67454697Y-103583438D01*
X67456097Y-103588663D01*
X67458385Y-103593570D01*
X67458386Y-103593572D01*
X67553678Y-103797927D01*
X67553681Y-103797933D01*
X67555965Y-103802830D01*
X67559064Y-103807257D01*
X67559066Y-103807259D01*
X67688399Y-103991966D01*
X67688402Y-103991970D01*
X67691505Y-103996401D01*
X67858599Y-104163495D01*
X67863031Y-104166598D01*
X67863033Y-104166600D01*
X67951431Y-104228497D01*
X68052170Y-104299035D01*
X68266337Y-104398903D01*
X68494592Y-104460063D01*
X68730000Y-104480659D01*
X68943014Y-104462022D01*
X68996231Y-104469028D01*
X69041502Y-104497869D01*
X69531405Y-104987772D01*
X69563729Y-105044231D01*
X69563019Y-105109285D01*
X69529472Y-105165026D01*
X69472321Y-105196110D01*
X69184744Y-105264268D01*
X69177838Y-105266335D01*
X68872661Y-105377411D01*
X68866022Y-105380274D01*
X68575814Y-105526023D01*
X68569565Y-105529630D01*
X68298241Y-105708083D01*
X68292440Y-105712402D01*
X68182498Y-105804653D01*
X68174812Y-105815978D01*
X68181482Y-105827929D01*
X72178200Y-109824647D01*
X72187382Y-109830544D01*
X72195614Y-109823377D01*
X72383017Y-109571654D01*
X72386983Y-109565623D01*
X72549364Y-109284370D01*
X72552597Y-109277934D01*
X72681238Y-108979712D01*
X72683694Y-108972963D01*
X72728941Y-108821829D01*
X73700001Y-108821829D01*
X73700321Y-108828111D01*
X73709805Y-108920959D01*
X73712623Y-108934122D01*
X73763370Y-109087267D01*
X73769432Y-109100266D01*
X73853890Y-109237194D01*
X73862794Y-109248455D01*
X73976544Y-109362205D01*
X73987805Y-109371109D01*
X74124733Y-109455567D01*
X74137732Y-109461629D01*
X74290874Y-109512375D01*
X74304041Y-109515194D01*
X74396890Y-109524680D01*
X74403168Y-109525000D01*
X74833674Y-109525000D01*
X74846549Y-109521549D01*
X74850000Y-109508674D01*
X74850000Y-109508673D01*
X75350000Y-109508673D01*
X75353450Y-109521548D01*
X75366326Y-109524999D01*
X75796829Y-109524999D01*
X75803111Y-109524678D01*
X75895959Y-109515194D01*
X75909122Y-109512376D01*
X76062267Y-109461629D01*
X76075266Y-109455567D01*
X76212194Y-109371109D01*
X76223455Y-109362205D01*
X76337205Y-109248455D01*
X76346109Y-109237194D01*
X76430567Y-109100266D01*
X76436629Y-109087267D01*
X76487375Y-108934125D01*
X76490194Y-108920958D01*
X76499680Y-108828109D01*
X76500000Y-108821832D01*
X76500000Y-108628826D01*
X76496549Y-108615950D01*
X76483674Y-108612500D01*
X75366326Y-108612500D01*
X75353450Y-108615950D01*
X75350000Y-108628826D01*
X75350000Y-109508673D01*
X74850000Y-109508673D01*
X74850000Y-108628826D01*
X74846549Y-108615950D01*
X74833674Y-108612500D01*
X73716327Y-108612500D01*
X73703451Y-108615950D01*
X73700001Y-108628826D01*
X73700001Y-108821829D01*
X72728941Y-108821829D01*
X72776843Y-108661824D01*
X72778505Y-108654811D01*
X72834898Y-108334991D01*
X72835737Y-108327812D01*
X72849228Y-108096174D01*
X73700000Y-108096174D01*
X73703450Y-108109049D01*
X73716326Y-108112500D01*
X74833674Y-108112500D01*
X74846549Y-108109049D01*
X74850000Y-108096174D01*
X75350000Y-108096174D01*
X75353450Y-108109049D01*
X75366326Y-108112500D01*
X76483673Y-108112500D01*
X76496548Y-108109049D01*
X76499999Y-108096174D01*
X76499999Y-108003606D01*
X90145380Y-108003606D01*
X90164262Y-108327812D01*
X90165101Y-108334991D01*
X90221494Y-108654811D01*
X90223156Y-108661824D01*
X90316305Y-108972963D01*
X90318761Y-108979712D01*
X90447402Y-109277934D01*
X90450635Y-109284370D01*
X90613016Y-109565623D01*
X90616982Y-109571654D01*
X90804384Y-109823377D01*
X90812616Y-109830544D01*
X90821798Y-109824647D01*
X92634904Y-108011542D01*
X92641568Y-108000000D01*
X93358431Y-108000000D01*
X93365095Y-108011542D01*
X95178200Y-109824647D01*
X95187382Y-109830544D01*
X95195614Y-109823377D01*
X95383017Y-109571654D01*
X95386983Y-109565623D01*
X95549364Y-109284370D01*
X95552597Y-109277934D01*
X95681238Y-108979712D01*
X95683694Y-108972963D01*
X95776843Y-108661824D01*
X95778505Y-108654811D01*
X95834898Y-108334991D01*
X95835737Y-108327812D01*
X95854620Y-108003606D01*
X95854620Y-107996394D01*
X95835737Y-107672187D01*
X95834898Y-107665008D01*
X95778505Y-107345188D01*
X95776843Y-107338175D01*
X95683694Y-107027036D01*
X95681238Y-107020287D01*
X95552597Y-106722065D01*
X95549364Y-106715629D01*
X95386983Y-106434376D01*
X95383017Y-106428345D01*
X95195614Y-106176621D01*
X95187382Y-106169454D01*
X95178200Y-106175351D01*
X93365095Y-107988457D01*
X93358431Y-108000000D01*
X92641568Y-108000000D01*
X92634904Y-107988457D01*
X90821798Y-106175351D01*
X90812616Y-106169455D01*
X90804383Y-106176622D01*
X90616982Y-106428344D01*
X90613016Y-106434376D01*
X90450635Y-106715629D01*
X90447402Y-106722065D01*
X90318761Y-107020287D01*
X90316305Y-107027036D01*
X90223156Y-107338175D01*
X90221494Y-107345188D01*
X90165101Y-107665008D01*
X90164262Y-107672187D01*
X90145380Y-107996394D01*
X90145380Y-108003606D01*
X76499999Y-108003606D01*
X76499999Y-107903171D01*
X76499678Y-107896888D01*
X76490194Y-107804040D01*
X76487376Y-107790877D01*
X76436629Y-107637732D01*
X76430567Y-107624733D01*
X76346109Y-107487805D01*
X76337205Y-107476544D01*
X76223455Y-107362794D01*
X76212194Y-107353890D01*
X76075266Y-107269432D01*
X76062267Y-107263370D01*
X75909125Y-107212624D01*
X75895958Y-107209805D01*
X75803109Y-107200319D01*
X75796832Y-107200000D01*
X75366326Y-107200000D01*
X75353450Y-107203450D01*
X75350000Y-107216326D01*
X75350000Y-108096174D01*
X74850000Y-108096174D01*
X74850000Y-107216327D01*
X74846549Y-107203451D01*
X74833674Y-107200001D01*
X74403171Y-107200001D01*
X74396888Y-107200321D01*
X74304040Y-107209805D01*
X74290877Y-107212623D01*
X74137732Y-107263370D01*
X74124733Y-107269432D01*
X73987805Y-107353890D01*
X73976544Y-107362794D01*
X73862794Y-107476544D01*
X73853890Y-107487805D01*
X73769432Y-107624733D01*
X73763370Y-107637732D01*
X73712624Y-107790874D01*
X73709805Y-107804041D01*
X73700319Y-107896890D01*
X73700000Y-107903168D01*
X73700000Y-108096174D01*
X72849228Y-108096174D01*
X72854620Y-108003606D01*
X72854620Y-107996394D01*
X72835737Y-107672187D01*
X72834898Y-107665008D01*
X72778505Y-107345188D01*
X72776843Y-107338175D01*
X72683694Y-107027036D01*
X72681238Y-107020287D01*
X72552597Y-106722065D01*
X72549364Y-106715629D01*
X72386983Y-106434376D01*
X72383017Y-106428345D01*
X72189079Y-106167841D01*
X72184452Y-106162328D01*
X72181872Y-106159593D01*
X72153276Y-106110063D01*
X72149951Y-106052967D01*
X72172604Y-106000452D01*
X72216416Y-105963689D01*
X72272067Y-105950500D01*
X73684362Y-105950500D01*
X73744794Y-105966223D01*
X73789900Y-106009402D01*
X73857288Y-106118656D01*
X73981344Y-106242712D01*
X73987485Y-106246500D01*
X73987488Y-106246502D01*
X74044558Y-106281702D01*
X74130666Y-106334814D01*
X74297203Y-106389999D01*
X74399991Y-106400500D01*
X75800008Y-106400499D01*
X75902797Y-106389999D01*
X76069334Y-106334814D01*
X76218656Y-106242712D01*
X76342712Y-106118656D01*
X76434814Y-105969334D01*
X76485631Y-105815978D01*
X91174812Y-105815978D01*
X91181482Y-105827929D01*
X92988457Y-107634904D01*
X93000000Y-107641568D01*
X93011542Y-107634904D01*
X94818516Y-105827929D01*
X94825186Y-105815977D01*
X94817500Y-105804653D01*
X94707558Y-105712401D01*
X94701760Y-105708084D01*
X94430434Y-105529630D01*
X94424185Y-105526023D01*
X94133977Y-105380274D01*
X94127338Y-105377411D01*
X93822161Y-105266335D01*
X93815271Y-105264272D01*
X93499231Y-105189369D01*
X93492165Y-105188123D01*
X93169564Y-105150417D01*
X93162395Y-105150000D01*
X92837605Y-105150000D01*
X92830435Y-105150417D01*
X92507834Y-105188123D01*
X92500768Y-105189369D01*
X92184728Y-105264272D01*
X92177838Y-105266335D01*
X91872661Y-105377411D01*
X91866022Y-105380274D01*
X91575814Y-105526023D01*
X91569565Y-105529630D01*
X91298241Y-105708083D01*
X91292440Y-105712402D01*
X91182498Y-105804653D01*
X91174812Y-105815978D01*
X76485631Y-105815978D01*
X76489999Y-105802797D01*
X76500500Y-105700009D01*
X76500499Y-104774992D01*
X76489999Y-104672203D01*
X76434814Y-104505666D01*
X76369827Y-104400305D01*
X76346502Y-104362488D01*
X76346500Y-104362485D01*
X76342712Y-104356344D01*
X76218656Y-104232288D01*
X76212515Y-104228500D01*
X76212511Y-104228497D01*
X76075480Y-104143977D01*
X76069334Y-104140186D01*
X76062478Y-104137914D01*
X75935496Y-104095836D01*
X75891171Y-104069957D01*
X75861123Y-104028345D01*
X75850500Y-103978130D01*
X75850500Y-80159739D01*
X75861065Y-80109653D01*
X75890961Y-80068103D01*
X75912526Y-80048443D01*
X75912528Y-80048439D01*
X75916764Y-80044579D01*
X76039673Y-79881821D01*
X76130582Y-79699250D01*
X76186397Y-79503083D01*
X76205215Y-79300000D01*
X76188705Y-79121829D01*
X90300001Y-79121829D01*
X90300321Y-79128111D01*
X90309805Y-79220959D01*
X90312623Y-79234122D01*
X90363370Y-79387267D01*
X90369432Y-79400266D01*
X90453890Y-79537194D01*
X90462794Y-79548455D01*
X90576544Y-79662205D01*
X90587805Y-79671109D01*
X90724733Y-79755567D01*
X90737732Y-79761629D01*
X90890874Y-79812375D01*
X90904041Y-79815194D01*
X90996890Y-79824680D01*
X91003168Y-79825000D01*
X91433674Y-79825000D01*
X91446549Y-79821549D01*
X91450000Y-79808674D01*
X91450000Y-79808673D01*
X91950000Y-79808673D01*
X91953450Y-79821548D01*
X91966326Y-79824999D01*
X92396829Y-79824999D01*
X92403111Y-79824678D01*
X92495959Y-79815194D01*
X92509122Y-79812376D01*
X92662267Y-79761629D01*
X92675266Y-79755567D01*
X92812194Y-79671109D01*
X92823455Y-79662205D01*
X92937205Y-79548455D01*
X92946109Y-79537194D01*
X93030567Y-79400266D01*
X93036629Y-79387267D01*
X93087375Y-79234125D01*
X93090194Y-79220958D01*
X93099680Y-79128109D01*
X93100000Y-79121832D01*
X93100000Y-78928826D01*
X93096549Y-78915950D01*
X93083674Y-78912500D01*
X91966326Y-78912500D01*
X91953450Y-78915950D01*
X91950000Y-78928826D01*
X91950000Y-79808673D01*
X91450000Y-79808673D01*
X91450000Y-78928826D01*
X91446549Y-78915950D01*
X91433674Y-78912500D01*
X90316327Y-78912500D01*
X90303451Y-78915950D01*
X90300001Y-78928826D01*
X90300001Y-79121829D01*
X76188705Y-79121829D01*
X76186397Y-79096917D01*
X76184703Y-79090965D01*
X76132152Y-78906268D01*
X76130582Y-78900750D01*
X76039673Y-78718179D01*
X75987603Y-78649227D01*
X75963086Y-78585941D01*
X75975557Y-78519228D01*
X76021279Y-78469073D01*
X76086557Y-78450500D01*
X80021293Y-78450500D01*
X80039264Y-78451809D01*
X80043160Y-78452379D01*
X80063023Y-78455289D01*
X80112368Y-78450972D01*
X80123176Y-78450500D01*
X80125100Y-78450500D01*
X80128709Y-78450500D01*
X80159550Y-78446894D01*
X80163031Y-78446539D01*
X80237797Y-78439999D01*
X80244653Y-78437726D01*
X80248043Y-78437027D01*
X80248375Y-78436973D01*
X80248728Y-78436873D01*
X80252071Y-78436080D01*
X80259255Y-78435241D01*
X80329760Y-78409579D01*
X80333118Y-78408412D01*
X80370051Y-78396174D01*
X90300000Y-78396174D01*
X90303450Y-78409049D01*
X90316326Y-78412500D01*
X91433674Y-78412500D01*
X91446549Y-78409049D01*
X91450000Y-78396174D01*
X91950000Y-78396174D01*
X91953450Y-78409049D01*
X91966326Y-78412500D01*
X93083673Y-78412500D01*
X93096548Y-78409049D01*
X93099999Y-78396174D01*
X93099999Y-78203171D01*
X93099678Y-78196888D01*
X93090194Y-78104040D01*
X93087376Y-78090877D01*
X93036629Y-77937732D01*
X93030567Y-77924733D01*
X92946109Y-77787805D01*
X92937205Y-77776544D01*
X92823455Y-77662794D01*
X92812194Y-77653890D01*
X92675266Y-77569432D01*
X92662267Y-77563370D01*
X92509125Y-77512624D01*
X92495958Y-77509805D01*
X92403109Y-77500319D01*
X92396832Y-77500000D01*
X91966326Y-77500000D01*
X91953450Y-77503450D01*
X91950000Y-77516326D01*
X91950000Y-78396174D01*
X91450000Y-78396174D01*
X91450000Y-77516327D01*
X91446549Y-77503451D01*
X91433674Y-77500001D01*
X91003171Y-77500001D01*
X90996888Y-77500321D01*
X90904040Y-77509805D01*
X90890877Y-77512623D01*
X90737732Y-77563370D01*
X90724733Y-77569432D01*
X90587805Y-77653890D01*
X90576544Y-77662794D01*
X90462794Y-77776544D01*
X90453890Y-77787805D01*
X90369432Y-77924733D01*
X90363370Y-77937732D01*
X90312624Y-78090874D01*
X90309805Y-78104041D01*
X90300319Y-78196890D01*
X90300000Y-78203168D01*
X90300000Y-78396174D01*
X80370051Y-78396174D01*
X80404334Y-78384814D01*
X80410486Y-78381018D01*
X80413607Y-78379564D01*
X80413929Y-78379430D01*
X80414238Y-78379258D01*
X80417315Y-78377712D01*
X80424117Y-78375237D01*
X80486837Y-78333984D01*
X80489732Y-78332140D01*
X80553656Y-78292712D01*
X80558763Y-78287603D01*
X80561476Y-78285459D01*
X80561758Y-78285254D01*
X80562029Y-78285007D01*
X80564659Y-78282799D01*
X80570696Y-78278830D01*
X80622185Y-78224253D01*
X80624630Y-78221736D01*
X82150216Y-76696150D01*
X82192114Y-76668594D01*
X82241502Y-76659885D01*
X82290299Y-76671450D01*
X82381337Y-76713903D01*
X82609592Y-76775063D01*
X82845000Y-76795659D01*
X83080408Y-76775063D01*
X83308663Y-76713903D01*
X83522830Y-76614035D01*
X83716401Y-76478495D01*
X83883495Y-76311401D01*
X84013424Y-76125842D01*
X84057743Y-76086976D01*
X84115000Y-76072965D01*
X84172257Y-76086976D01*
X84216575Y-76125842D01*
X84343395Y-76306961D01*
X84343401Y-76306968D01*
X84346505Y-76311401D01*
X84513599Y-76478495D01*
X84707170Y-76614035D01*
X84712070Y-76616320D01*
X84712072Y-76616321D01*
X84756601Y-76637085D01*
X84921337Y-76713903D01*
X85149592Y-76775063D01*
X85385000Y-76795659D01*
X85620408Y-76775063D01*
X85848663Y-76713903D01*
X86062830Y-76614035D01*
X86256401Y-76478495D01*
X86423495Y-76311401D01*
X86553424Y-76125842D01*
X86597743Y-76086976D01*
X86655000Y-76072965D01*
X86712257Y-76086976D01*
X86756575Y-76125842D01*
X86883395Y-76306961D01*
X86883401Y-76306968D01*
X86886505Y-76311401D01*
X87053599Y-76478495D01*
X87247170Y-76614035D01*
X87252070Y-76616320D01*
X87252072Y-76616321D01*
X87296601Y-76637085D01*
X87461337Y-76713903D01*
X87689592Y-76775063D01*
X87925000Y-76795659D01*
X88160408Y-76775063D01*
X88388663Y-76713903D01*
X88602830Y-76614035D01*
X88796401Y-76478495D01*
X88963495Y-76311401D01*
X89011126Y-76243376D01*
X89055445Y-76204511D01*
X89112702Y-76190500D01*
X90250353Y-76190500D01*
X90316977Y-76209919D01*
X90362734Y-76262093D01*
X90362914Y-76262478D01*
X90365186Y-76269334D01*
X90368975Y-76275477D01*
X90368976Y-76275479D01*
X90453497Y-76412511D01*
X90453500Y-76412515D01*
X90457288Y-76418656D01*
X90581344Y-76542712D01*
X90587485Y-76546500D01*
X90587488Y-76546502D01*
X90621323Y-76567371D01*
X90730666Y-76634814D01*
X90897203Y-76689999D01*
X90999991Y-76700500D01*
X92400008Y-76700499D01*
X92502797Y-76689999D01*
X92669334Y-76634814D01*
X92818656Y-76542712D01*
X92942712Y-76418656D01*
X93034814Y-76269334D01*
X93089999Y-76102797D01*
X93100500Y-76000009D01*
X93100499Y-75074992D01*
X93089999Y-74972203D01*
X93034814Y-74805666D01*
X92942712Y-74656344D01*
X92818656Y-74532288D01*
X92812515Y-74528500D01*
X92812511Y-74528497D01*
X92675480Y-74443977D01*
X92669334Y-74440186D01*
X92644090Y-74431821D01*
X92509225Y-74387131D01*
X92509224Y-74387130D01*
X92502797Y-74385001D01*
X92496064Y-74384313D01*
X92496059Y-74384312D01*
X92403140Y-74374819D01*
X92403123Y-74374818D01*
X92400009Y-74374500D01*
X92396860Y-74374500D01*
X92274500Y-74374500D01*
X92212500Y-74357887D01*
X92167113Y-74312500D01*
X92150500Y-74250500D01*
X92150500Y-60238707D01*
X92151809Y-60220736D01*
X92152297Y-60217396D01*
X92155289Y-60196977D01*
X92150971Y-60147633D01*
X92150500Y-60136827D01*
X92150500Y-60134902D01*
X92150500Y-60131291D01*
X92146894Y-60100443D01*
X92146537Y-60096956D01*
X92139998Y-60022203D01*
X92137724Y-60015341D01*
X92137027Y-60011965D01*
X92136970Y-60011613D01*
X92136875Y-60011277D01*
X92136079Y-60007919D01*
X92135241Y-60000745D01*
X92109567Y-59930207D01*
X92108399Y-59926843D01*
X92087085Y-59862520D01*
X92084814Y-59855666D01*
X92081026Y-59849524D01*
X92079557Y-59846373D01*
X92079431Y-59846070D01*
X92079261Y-59845765D01*
X92077709Y-59842675D01*
X92075237Y-59835883D01*
X92034019Y-59773215D01*
X92032087Y-59770181D01*
X92019639Y-59750000D01*
X91992712Y-59706344D01*
X91987604Y-59701236D01*
X91985459Y-59698523D01*
X91985257Y-59698244D01*
X91985022Y-59697987D01*
X91982796Y-59695334D01*
X91978830Y-59689304D01*
X91924290Y-59637848D01*
X91921703Y-59635335D01*
X89436818Y-57150450D01*
X89409938Y-57110222D01*
X89400499Y-57062769D01*
X89400499Y-56415641D01*
X89400499Y-56412492D01*
X89389999Y-56309703D01*
X89334814Y-56143166D01*
X89267125Y-56033424D01*
X89246502Y-55999988D01*
X89246500Y-55999985D01*
X89242712Y-55993844D01*
X89118656Y-55869788D01*
X89112515Y-55866000D01*
X89112511Y-55865997D01*
X88975480Y-55781477D01*
X88969334Y-55777686D01*
X88844744Y-55736401D01*
X88809225Y-55724631D01*
X88809224Y-55724630D01*
X88802797Y-55722501D01*
X88796064Y-55721813D01*
X88796059Y-55721812D01*
X88703140Y-55712319D01*
X88703123Y-55712318D01*
X88700009Y-55712000D01*
X88696860Y-55712000D01*
X87303140Y-55712000D01*
X87303120Y-55712000D01*
X87299992Y-55712001D01*
X87296860Y-55712320D01*
X87296858Y-55712321D01*
X87203938Y-55721812D01*
X87203928Y-55721813D01*
X87197203Y-55722501D01*
X87190781Y-55724628D01*
X87190776Y-55724630D01*
X87037521Y-55775414D01*
X87037517Y-55775415D01*
X87030666Y-55777686D01*
X87024522Y-55781475D01*
X87024519Y-55781477D01*
X86887488Y-55865997D01*
X86887480Y-55866003D01*
X86881344Y-55869788D01*
X86876242Y-55874889D01*
X86876238Y-55874893D01*
X86762951Y-55988181D01*
X86722723Y-56015061D01*
X86675270Y-56024500D01*
X86231879Y-56024500D01*
X86168758Y-56007232D01*
X86054613Y-55939727D01*
X86054611Y-55939726D01*
X86047898Y-55935756D01*
X86019691Y-55927561D01*
X85896157Y-55891670D01*
X85896150Y-55891668D01*
X85890069Y-55889902D01*
X85883758Y-55889405D01*
X85883751Y-55889404D01*
X85855628Y-55887191D01*
X85855614Y-55887190D01*
X85853194Y-55887000D01*
X84696806Y-55887000D01*
X84694386Y-55887190D01*
X84694371Y-55887191D01*
X84666248Y-55889404D01*
X84666239Y-55889405D01*
X84659931Y-55889902D01*
X84653851Y-55891668D01*
X84653842Y-55891670D01*
X84509594Y-55933579D01*
X84509591Y-55933580D01*
X84502102Y-55935756D01*
X84495391Y-55939724D01*
X84495386Y-55939727D01*
X84367351Y-56015446D01*
X84367344Y-56015450D01*
X84360635Y-56019419D01*
X84355120Y-56024933D01*
X84355116Y-56024937D01*
X84249937Y-56130116D01*
X84249933Y-56130120D01*
X84244419Y-56135635D01*
X84240447Y-56142350D01*
X84235666Y-56148515D01*
X84233323Y-56146698D01*
X84198922Y-56180549D01*
X84137500Y-56196830D01*
X84076078Y-56180549D01*
X84041676Y-56146698D01*
X84039334Y-56148515D01*
X84034553Y-56142352D01*
X84030581Y-56135635D01*
X83914365Y-56019419D01*
X83907651Y-56015448D01*
X83907648Y-56015446D01*
X83779613Y-55939727D01*
X83779611Y-55939726D01*
X83772898Y-55935756D01*
X83765405Y-55933579D01*
X83758248Y-55930482D01*
X83758921Y-55928925D01*
X83723467Y-55909670D01*
X83691752Y-55867424D01*
X83680500Y-55815810D01*
X83680500Y-52184020D01*
X91174812Y-52184020D01*
X91182499Y-52195346D01*
X91292441Y-52287598D01*
X91298239Y-52291915D01*
X91569565Y-52470369D01*
X91575814Y-52473976D01*
X91866022Y-52619725D01*
X91872661Y-52622588D01*
X92177838Y-52733664D01*
X92184728Y-52735727D01*
X92500768Y-52810630D01*
X92507834Y-52811876D01*
X92830435Y-52849582D01*
X92837605Y-52850000D01*
X93162395Y-52850000D01*
X93169564Y-52849582D01*
X93492165Y-52811876D01*
X93499231Y-52810630D01*
X93815271Y-52735727D01*
X93822161Y-52733664D01*
X94127338Y-52622588D01*
X94133977Y-52619725D01*
X94424185Y-52473976D01*
X94430434Y-52470369D01*
X94701760Y-52291915D01*
X94707558Y-52287598D01*
X94817499Y-52195346D01*
X94825186Y-52184020D01*
X94818515Y-52172068D01*
X93011542Y-50365095D01*
X93000000Y-50358431D01*
X92988457Y-50365095D01*
X91181482Y-52172069D01*
X91174812Y-52184020D01*
X83680500Y-52184020D01*
X83680500Y-51856527D01*
X83692118Y-51804122D01*
X83724795Y-51761537D01*
X83772407Y-51736752D01*
X83888792Y-51705567D01*
X83913663Y-51698903D01*
X84127829Y-51599035D01*
X84321401Y-51463495D01*
X84488495Y-51296401D01*
X84624035Y-51102829D01*
X84723903Y-50888663D01*
X84785063Y-50660408D01*
X84800500Y-50483966D01*
X84800500Y-50066034D01*
X84795038Y-50003606D01*
X90145380Y-50003606D01*
X90164262Y-50327812D01*
X90165101Y-50334991D01*
X90221494Y-50654811D01*
X90223156Y-50661824D01*
X90316305Y-50972963D01*
X90318761Y-50979712D01*
X90447402Y-51277934D01*
X90450635Y-51284370D01*
X90613016Y-51565623D01*
X90616982Y-51571654D01*
X90804384Y-51823377D01*
X90812616Y-51830544D01*
X90821798Y-51824647D01*
X92634904Y-50011542D01*
X92641568Y-50000000D01*
X92641567Y-49999999D01*
X93358431Y-49999999D01*
X93365095Y-50011542D01*
X95178200Y-51824647D01*
X95187382Y-51830544D01*
X95195614Y-51823377D01*
X95383017Y-51571654D01*
X95386983Y-51565623D01*
X95549364Y-51284370D01*
X95552597Y-51277934D01*
X95681238Y-50979712D01*
X95683694Y-50972963D01*
X95776843Y-50661824D01*
X95778505Y-50654811D01*
X95834898Y-50334991D01*
X95835737Y-50327812D01*
X95854620Y-50003606D01*
X95854620Y-49996394D01*
X95835737Y-49672187D01*
X95834898Y-49665008D01*
X95778505Y-49345188D01*
X95776843Y-49338175D01*
X95683694Y-49027036D01*
X95681238Y-49020287D01*
X95552597Y-48722065D01*
X95549364Y-48715629D01*
X95386983Y-48434376D01*
X95383017Y-48428345D01*
X95195614Y-48176621D01*
X95187382Y-48169454D01*
X95178200Y-48175351D01*
X93365095Y-49988457D01*
X93358431Y-49999999D01*
X92641567Y-49999999D01*
X92634904Y-49988457D01*
X90821798Y-48175351D01*
X90812616Y-48169455D01*
X90804383Y-48176622D01*
X90616982Y-48428344D01*
X90613016Y-48434376D01*
X90450635Y-48715629D01*
X90447402Y-48722065D01*
X90318761Y-49020287D01*
X90316305Y-49027036D01*
X90223156Y-49338175D01*
X90221494Y-49345188D01*
X90165101Y-49665008D01*
X90164262Y-49672187D01*
X90145380Y-49996394D01*
X90145380Y-50003606D01*
X84795038Y-50003606D01*
X84785063Y-49889592D01*
X84723903Y-49661337D01*
X84624035Y-49447171D01*
X84488495Y-49253599D01*
X84321401Y-49086505D01*
X84316970Y-49083402D01*
X84316966Y-49083399D01*
X84132259Y-48954066D01*
X84132257Y-48954064D01*
X84127830Y-48950965D01*
X84122933Y-48948681D01*
X84122927Y-48948678D01*
X83918572Y-48853386D01*
X83918570Y-48853385D01*
X83913663Y-48851097D01*
X83908438Y-48849697D01*
X83908430Y-48849694D01*
X83690634Y-48791337D01*
X83690630Y-48791336D01*
X83685408Y-48789937D01*
X83680020Y-48789465D01*
X83680017Y-48789465D01*
X83455395Y-48769813D01*
X83450000Y-48769341D01*
X83444605Y-48769813D01*
X83219982Y-48789465D01*
X83219977Y-48789465D01*
X83214592Y-48789937D01*
X83209371Y-48791335D01*
X83209365Y-48791337D01*
X82991569Y-48849694D01*
X82991557Y-48849698D01*
X82986337Y-48851097D01*
X82981432Y-48853383D01*
X82981427Y-48853386D01*
X82777081Y-48948675D01*
X82777077Y-48948677D01*
X82772171Y-48950965D01*
X82767738Y-48954068D01*
X82767731Y-48954073D01*
X82583034Y-49083399D01*
X82583029Y-49083402D01*
X82578599Y-49086505D01*
X82574775Y-49090328D01*
X82574775Y-49090329D01*
X82430460Y-49234644D01*
X82380065Y-49265223D01*
X82321244Y-49269078D01*
X82267290Y-49245336D01*
X82235204Y-49205355D01*
X82234358Y-49205878D01*
X82146109Y-49062805D01*
X82137205Y-49051544D01*
X82023455Y-48937794D01*
X82012194Y-48928890D01*
X81875266Y-48844432D01*
X81862267Y-48838370D01*
X81709125Y-48787624D01*
X81695958Y-48784805D01*
X81603109Y-48775319D01*
X81596832Y-48775000D01*
X81216326Y-48775000D01*
X81203450Y-48778450D01*
X81200000Y-48791326D01*
X81200000Y-51758673D01*
X81203450Y-51771548D01*
X81216326Y-51774999D01*
X81596829Y-51774999D01*
X81603111Y-51774678D01*
X81695959Y-51765194D01*
X81709122Y-51762376D01*
X81862267Y-51711629D01*
X81875266Y-51705567D01*
X81990403Y-51634551D01*
X82052795Y-51616120D01*
X82115932Y-51631813D01*
X82162433Y-51677311D01*
X82179500Y-51740090D01*
X82179500Y-55813000D01*
X82162887Y-55875000D01*
X82117500Y-55920387D01*
X82055500Y-55937000D01*
X80087721Y-55937000D01*
X79237230Y-55937000D01*
X79189777Y-55927561D01*
X79149549Y-55900681D01*
X79123761Y-55874893D01*
X79123760Y-55874892D01*
X79118656Y-55869788D01*
X79112515Y-55866000D01*
X79112511Y-55865997D01*
X78975480Y-55781477D01*
X78969334Y-55777686D01*
X78844744Y-55736401D01*
X78809225Y-55724631D01*
X78809224Y-55724630D01*
X78802797Y-55722501D01*
X78796064Y-55721813D01*
X78796059Y-55721812D01*
X78703140Y-55712319D01*
X78703123Y-55712318D01*
X78700009Y-55712000D01*
X78696860Y-55712000D01*
X77303140Y-55712000D01*
X77303120Y-55712000D01*
X77299992Y-55712001D01*
X77296860Y-55712320D01*
X77296858Y-55712321D01*
X77203938Y-55721812D01*
X77203928Y-55721813D01*
X77197203Y-55722501D01*
X77190781Y-55724628D01*
X77190776Y-55724630D01*
X77037521Y-55775414D01*
X77037517Y-55775415D01*
X77030666Y-55777686D01*
X77024522Y-55781475D01*
X77024519Y-55781477D01*
X76887488Y-55865997D01*
X76887480Y-55866003D01*
X76881344Y-55869788D01*
X76876242Y-55874889D01*
X76876238Y-55874893D01*
X76762393Y-55988738D01*
X76762389Y-55988742D01*
X76757288Y-55993844D01*
X76753503Y-55999980D01*
X76753497Y-55999988D01*
X76668976Y-56137020D01*
X76668973Y-56137025D01*
X76665186Y-56143166D01*
X76662918Y-56150010D01*
X76662912Y-56150023D01*
X76657763Y-56165562D01*
X76618372Y-56222693D01*
X76554455Y-56249714D01*
X76525504Y-56253098D01*
X76521916Y-56253464D01*
X76454393Y-56259371D01*
X76454385Y-56259372D01*
X76447203Y-56260001D01*
X76440352Y-56262270D01*
X76436935Y-56262976D01*
X76436619Y-56263027D01*
X76436295Y-56263119D01*
X76432913Y-56263920D01*
X76425745Y-56264759D01*
X76418968Y-56267225D01*
X76418957Y-56267228D01*
X76355231Y-56290421D01*
X76351831Y-56291603D01*
X76321863Y-56301533D01*
X76280666Y-56315186D01*
X76274528Y-56318971D01*
X76271367Y-56320445D01*
X76271061Y-56320571D01*
X76270781Y-56320728D01*
X76267659Y-56322296D01*
X76260883Y-56324763D01*
X76254855Y-56328727D01*
X76254854Y-56328728D01*
X76198220Y-56365976D01*
X76195182Y-56367911D01*
X76137492Y-56403495D01*
X76137483Y-56403501D01*
X76131345Y-56407288D01*
X76126243Y-56412389D01*
X76123504Y-56414555D01*
X76123239Y-56414745D01*
X76122995Y-56414970D01*
X76120331Y-56417205D01*
X76114304Y-56421170D01*
X76109355Y-56426414D01*
X76109353Y-56426417D01*
X76062833Y-56475725D01*
X76060321Y-56478310D01*
X74585510Y-57953120D01*
X74571882Y-57964898D01*
X74558415Y-57974924D01*
X74558409Y-57974929D01*
X74552622Y-57979238D01*
X74547984Y-57984764D01*
X74547982Y-57984767D01*
X74520785Y-58017178D01*
X74513502Y-58025128D01*
X74512121Y-58026509D01*
X74512107Y-58026524D01*
X74509561Y-58029071D01*
X74507325Y-58031898D01*
X74507323Y-58031901D01*
X74490328Y-58053394D01*
X74488054Y-58056185D01*
X74444491Y-58108102D01*
X74444487Y-58108106D01*
X74439850Y-58113634D01*
X74436612Y-58120078D01*
X74434689Y-58123003D01*
X74434504Y-58123259D01*
X74434344Y-58123546D01*
X74432515Y-58126511D01*
X74428041Y-58132171D01*
X74424991Y-58138710D01*
X74424990Y-58138713D01*
X74396344Y-58200142D01*
X74394775Y-58203384D01*
X74364348Y-58263970D01*
X74364346Y-58263975D01*
X74361112Y-58270415D01*
X74359448Y-58277432D01*
X74358261Y-58280695D01*
X74358129Y-58281011D01*
X74358040Y-58281328D01*
X74356943Y-58284635D01*
X74353895Y-58291175D01*
X74352436Y-58298238D01*
X74352435Y-58298243D01*
X74338726Y-58364635D01*
X74337946Y-58368154D01*
X74322316Y-58434103D01*
X74322315Y-58434108D01*
X74320652Y-58441127D01*
X74320652Y-58448339D01*
X74320249Y-58451787D01*
X74320195Y-58452121D01*
X74320180Y-58452474D01*
X74319878Y-58455918D01*
X74318418Y-58462992D01*
X74318628Y-58470208D01*
X74318628Y-58470209D01*
X74320600Y-58537978D01*
X74320652Y-58541585D01*
X74320652Y-72266619D01*
X74311213Y-72314072D01*
X74284333Y-72354300D01*
X73925451Y-72713181D01*
X73885223Y-72740061D01*
X73837770Y-72749500D01*
X73748024Y-72749500D01*
X73742398Y-72750551D01*
X73742394Y-72750552D01*
X73553181Y-72785922D01*
X73553178Y-72785922D01*
X73547544Y-72786976D01*
X73542203Y-72789044D01*
X73542196Y-72789047D01*
X73362705Y-72858582D01*
X73362700Y-72858584D01*
X73357363Y-72860652D01*
X73352491Y-72863668D01*
X73352488Y-72863670D01*
X73188830Y-72965002D01*
X73188822Y-72965007D01*
X73183959Y-72968019D01*
X73179728Y-72971875D01*
X73179724Y-72971879D01*
X73037476Y-73101554D01*
X73037466Y-73101564D01*
X73033236Y-73105421D01*
X73029787Y-73109987D01*
X73029778Y-73109998D01*
X72913779Y-73263607D01*
X72913776Y-73263611D01*
X72910327Y-73268179D01*
X72907774Y-73273304D01*
X72907772Y-73273309D01*
X72821976Y-73445612D01*
X72819418Y-73450750D01*
X72817850Y-73456258D01*
X72817847Y-73456268D01*
X72765173Y-73641395D01*
X72765170Y-73641406D01*
X72763603Y-73646917D01*
X72763073Y-73652627D01*
X72763073Y-73652632D01*
X72752068Y-73771401D01*
X72744785Y-73850000D01*
X72745314Y-73855709D01*
X72760191Y-74016269D01*
X72763603Y-74053083D01*
X72765171Y-74058594D01*
X72765173Y-74058604D01*
X72817847Y-74243731D01*
X72817849Y-74243737D01*
X72819418Y-74249250D01*
X72822397Y-74255233D01*
X72822509Y-74255763D01*
X72824044Y-74259725D01*
X72823397Y-74259975D01*
X72835263Y-74316229D01*
X72816821Y-74375779D01*
X72771733Y-74418830D01*
X72711395Y-74434500D01*
X72457700Y-74434500D01*
X72400443Y-74420489D01*
X72356125Y-74381623D01*
X72339505Y-74357887D01*
X72321552Y-74332246D01*
X72311600Y-74318033D01*
X72311598Y-74318030D01*
X72308495Y-74313599D01*
X72141401Y-74146505D01*
X72136970Y-74143402D01*
X72136966Y-74143399D01*
X71955405Y-74016269D01*
X71916540Y-73971951D01*
X71902529Y-73914694D01*
X71916540Y-73857437D01*
X71955406Y-73813119D01*
X72136638Y-73686219D01*
X72144909Y-73679278D01*
X72304278Y-73519909D01*
X72311215Y-73511643D01*
X72440498Y-73327008D01*
X72445886Y-73317676D01*
X72541143Y-73113397D01*
X72544831Y-73103263D01*
X72596943Y-72908780D01*
X72597311Y-72897551D01*
X72586369Y-72895000D01*
X71144000Y-72895000D01*
X71082000Y-72878387D01*
X71036613Y-72833000D01*
X71020000Y-72771000D01*
X71020000Y-72519000D01*
X71036613Y-72457000D01*
X71082000Y-72411613D01*
X71144000Y-72395000D01*
X72586369Y-72395000D01*
X72597311Y-72392448D01*
X72596943Y-72381219D01*
X72544831Y-72186736D01*
X72541143Y-72176602D01*
X72445889Y-71972332D01*
X72440491Y-71962982D01*
X72311215Y-71778357D01*
X72304280Y-71770092D01*
X72144909Y-71610721D01*
X72136643Y-71603784D01*
X71955405Y-71476880D01*
X71916540Y-71432562D01*
X71902529Y-71375305D01*
X71916540Y-71318048D01*
X71955406Y-71273730D01*
X72136961Y-71146604D01*
X72136961Y-71146603D01*
X72141401Y-71143495D01*
X72308495Y-70976401D01*
X72444035Y-70782830D01*
X72543903Y-70568663D01*
X72605063Y-70340408D01*
X72625659Y-70105000D01*
X72605063Y-69869592D01*
X72543903Y-69641337D01*
X72444035Y-69427171D01*
X72308495Y-69233599D01*
X72141401Y-69066505D01*
X72136970Y-69063402D01*
X72136966Y-69063399D01*
X71955841Y-68936574D01*
X71916976Y-68892256D01*
X71902965Y-68834999D01*
X71916976Y-68777742D01*
X71955839Y-68733426D01*
X72141401Y-68603495D01*
X72308495Y-68436401D01*
X72444035Y-68242830D01*
X72543903Y-68028663D01*
X72605063Y-67800408D01*
X72625659Y-67565000D01*
X72605063Y-67329592D01*
X72543903Y-67101337D01*
X72444035Y-66887171D01*
X72308495Y-66693599D01*
X72141401Y-66526505D01*
X72136968Y-66523401D01*
X72136961Y-66523395D01*
X71955842Y-66396575D01*
X71916976Y-66352257D01*
X71902965Y-66295000D01*
X71916976Y-66237743D01*
X71955842Y-66193425D01*
X72136961Y-66066604D01*
X72136961Y-66066603D01*
X72141401Y-66063495D01*
X72308495Y-65896401D01*
X72444035Y-65702830D01*
X72543903Y-65488663D01*
X72605063Y-65260408D01*
X72625659Y-65025000D01*
X72605063Y-64789592D01*
X72543903Y-64561337D01*
X72444035Y-64347171D01*
X72308495Y-64153599D01*
X72141401Y-63986505D01*
X72136968Y-63983401D01*
X72136961Y-63983395D01*
X71955842Y-63856575D01*
X71916976Y-63812257D01*
X71902965Y-63755000D01*
X71916976Y-63697743D01*
X71955842Y-63653425D01*
X72136961Y-63526604D01*
X72136961Y-63526603D01*
X72141401Y-63523495D01*
X72308495Y-63356401D01*
X72444035Y-63162830D01*
X72543903Y-62948663D01*
X72605063Y-62720408D01*
X72625659Y-62485000D01*
X72605063Y-62249592D01*
X72543903Y-62021337D01*
X72444035Y-61807171D01*
X72308495Y-61613599D01*
X72141401Y-61446505D01*
X72136968Y-61443401D01*
X72136961Y-61443395D01*
X71955842Y-61316575D01*
X71916976Y-61272257D01*
X71902965Y-61215000D01*
X71916976Y-61157743D01*
X71955842Y-61113425D01*
X72136961Y-60986604D01*
X72136961Y-60986603D01*
X72141401Y-60983495D01*
X72308495Y-60816401D01*
X72444035Y-60622830D01*
X72543903Y-60408663D01*
X72605063Y-60180408D01*
X72625659Y-59945000D01*
X72605063Y-59709592D01*
X72543903Y-59481337D01*
X72444035Y-59267171D01*
X72308495Y-59073599D01*
X72141401Y-58906505D01*
X72136968Y-58903401D01*
X72136961Y-58903395D01*
X71955842Y-58776575D01*
X71916976Y-58732257D01*
X71902965Y-58675000D01*
X71916976Y-58617743D01*
X71955842Y-58573425D01*
X72136961Y-58446604D01*
X72136961Y-58446603D01*
X72141401Y-58443495D01*
X72308495Y-58276401D01*
X72444035Y-58082830D01*
X72543903Y-57868663D01*
X72605063Y-57640408D01*
X72625659Y-57405000D01*
X72605063Y-57169592D01*
X72543903Y-56941337D01*
X72444035Y-56727171D01*
X72308495Y-56533599D01*
X72141401Y-56366505D01*
X72136970Y-56363402D01*
X72136966Y-56363399D01*
X71955405Y-56236269D01*
X71916540Y-56191951D01*
X71902529Y-56134694D01*
X71916540Y-56077437D01*
X71955406Y-56033119D01*
X72136638Y-55906219D01*
X72144909Y-55899278D01*
X72304278Y-55739909D01*
X72311215Y-55731643D01*
X72440498Y-55547008D01*
X72445886Y-55537676D01*
X72541143Y-55333397D01*
X72544831Y-55323263D01*
X72596943Y-55128780D01*
X72597311Y-55117551D01*
X72586369Y-55115000D01*
X71144000Y-55115000D01*
X71082000Y-55098387D01*
X71036613Y-55053000D01*
X71020000Y-54991000D01*
X71020000Y-54598674D01*
X71520000Y-54598674D01*
X71523450Y-54611549D01*
X71536326Y-54615000D01*
X72586369Y-54615000D01*
X72597311Y-54612448D01*
X72596943Y-54601219D01*
X72544831Y-54406736D01*
X72541143Y-54396602D01*
X72445889Y-54192332D01*
X72440491Y-54182982D01*
X72311215Y-53998357D01*
X72304280Y-53990092D01*
X72144909Y-53830721D01*
X72136643Y-53823784D01*
X71952008Y-53694501D01*
X71942676Y-53689113D01*
X71738397Y-53593856D01*
X71728263Y-53590168D01*
X71533780Y-53538056D01*
X71522551Y-53537688D01*
X71520000Y-53548631D01*
X71520000Y-54598674D01*
X71020000Y-54598674D01*
X71020000Y-53548631D01*
X71017448Y-53537688D01*
X71006219Y-53538056D01*
X70811736Y-53590168D01*
X70801602Y-53593856D01*
X70597332Y-53689110D01*
X70587982Y-53694508D01*
X70403357Y-53823784D01*
X70395092Y-53830719D01*
X70235719Y-53990092D01*
X70228788Y-53998352D01*
X70101880Y-54179596D01*
X70057562Y-54218461D01*
X70000305Y-54232472D01*
X69943048Y-54218461D01*
X69898730Y-54179595D01*
X69768495Y-53993599D01*
X69601401Y-53826505D01*
X69596970Y-53823402D01*
X69596966Y-53823399D01*
X69412259Y-53694066D01*
X69412257Y-53694064D01*
X69407830Y-53690965D01*
X69402933Y-53688681D01*
X69402927Y-53688678D01*
X69198572Y-53593386D01*
X69198570Y-53593385D01*
X69193663Y-53591097D01*
X69188438Y-53589697D01*
X69188430Y-53589694D01*
X68970634Y-53531337D01*
X68970630Y-53531336D01*
X68965408Y-53529937D01*
X68960020Y-53529465D01*
X68960017Y-53529465D01*
X68735395Y-53509813D01*
X68730000Y-53509341D01*
X68724605Y-53509813D01*
X68499982Y-53529465D01*
X68499977Y-53529465D01*
X68494592Y-53529937D01*
X68489371Y-53531335D01*
X68489365Y-53531337D01*
X68271569Y-53589694D01*
X68271557Y-53589698D01*
X68266337Y-53591097D01*
X68261432Y-53593383D01*
X68261427Y-53593386D01*
X68057081Y-53688675D01*
X68057077Y-53688677D01*
X68052171Y-53690965D01*
X68047738Y-53694068D01*
X68047731Y-53694073D01*
X67863034Y-53823399D01*
X67863029Y-53823402D01*
X67858599Y-53826505D01*
X67854775Y-53830328D01*
X67854769Y-53830334D01*
X67695334Y-53989769D01*
X67695328Y-53989775D01*
X67691505Y-53993599D01*
X67688402Y-53998029D01*
X67688399Y-53998034D01*
X67559073Y-54182731D01*
X67559068Y-54182738D01*
X67555965Y-54187171D01*
X67553677Y-54192077D01*
X67553675Y-54192081D01*
X67458386Y-54396427D01*
X67458383Y-54396432D01*
X67456097Y-54401337D01*
X67454698Y-54406557D01*
X67454694Y-54406569D01*
X67396337Y-54624365D01*
X67396335Y-54624371D01*
X67394937Y-54629592D01*
X67374341Y-54865000D01*
X67394937Y-55100408D01*
X67396336Y-55105630D01*
X67396337Y-55105634D01*
X67454694Y-55323430D01*
X67454697Y-55323438D01*
X67456097Y-55328663D01*
X67458385Y-55333570D01*
X67458386Y-55333572D01*
X67553678Y-55537927D01*
X67553681Y-55537933D01*
X67555965Y-55542830D01*
X67559064Y-55547257D01*
X67559066Y-55547259D01*
X67688399Y-55731966D01*
X67688402Y-55731970D01*
X67691505Y-55736401D01*
X67858599Y-55903495D01*
X67863032Y-55906599D01*
X67863038Y-55906604D01*
X68044158Y-56033425D01*
X68083024Y-56077743D01*
X68097035Y-56135000D01*
X68083024Y-56192257D01*
X68044159Y-56236575D01*
X68006382Y-56263027D01*
X67858599Y-56366505D01*
X67854775Y-56370328D01*
X67854769Y-56370334D01*
X67695334Y-56529769D01*
X67695328Y-56529775D01*
X67691505Y-56533599D01*
X67688402Y-56538029D01*
X67688399Y-56538034D01*
X67559073Y-56722731D01*
X67559068Y-56722738D01*
X67555965Y-56727171D01*
X67553677Y-56732077D01*
X67553675Y-56732081D01*
X67458386Y-56936427D01*
X67458383Y-56936432D01*
X67456097Y-56941337D01*
X67454698Y-56946557D01*
X67454694Y-56946569D01*
X67396337Y-57164365D01*
X67396335Y-57164371D01*
X67394937Y-57169592D01*
X67394465Y-57174977D01*
X67394465Y-57174982D01*
X67376233Y-57383375D01*
X67374341Y-57405000D01*
X67374813Y-57410395D01*
X67392537Y-57612985D01*
X67394937Y-57640408D01*
X67396336Y-57645630D01*
X67396337Y-57645634D01*
X67454694Y-57863430D01*
X67454697Y-57863438D01*
X67456097Y-57868663D01*
X67458385Y-57873570D01*
X67458386Y-57873572D01*
X67553678Y-58077927D01*
X67553681Y-58077933D01*
X67555965Y-58082830D01*
X67559064Y-58087257D01*
X67559066Y-58087259D01*
X67688399Y-58271966D01*
X67688402Y-58271970D01*
X67691505Y-58276401D01*
X67858599Y-58443495D01*
X67863032Y-58446599D01*
X67863038Y-58446604D01*
X68044158Y-58573425D01*
X68083024Y-58617743D01*
X68097035Y-58675000D01*
X68083024Y-58732257D01*
X68044159Y-58776575D01*
X67863041Y-58903395D01*
X67858599Y-58906505D01*
X67854775Y-58910328D01*
X67854769Y-58910334D01*
X67695334Y-59069769D01*
X67695328Y-59069775D01*
X67691505Y-59073599D01*
X67688402Y-59078029D01*
X67688399Y-59078034D01*
X67559073Y-59262731D01*
X67559068Y-59262738D01*
X67555965Y-59267171D01*
X67553677Y-59272077D01*
X67553675Y-59272081D01*
X67458386Y-59476427D01*
X67458383Y-59476432D01*
X67456097Y-59481337D01*
X67454698Y-59486557D01*
X67454694Y-59486569D01*
X67396337Y-59704365D01*
X67396335Y-59704371D01*
X67394937Y-59709592D01*
X67394465Y-59714977D01*
X67394465Y-59714982D01*
X67389370Y-59773223D01*
X67374341Y-59945000D01*
X67374813Y-59950395D01*
X67392069Y-60147634D01*
X67394937Y-60180408D01*
X67396336Y-60185630D01*
X67396337Y-60185634D01*
X67454694Y-60403430D01*
X67454697Y-60403438D01*
X67456097Y-60408663D01*
X67458385Y-60413570D01*
X67458386Y-60413572D01*
X67553678Y-60617927D01*
X67553681Y-60617933D01*
X67555965Y-60622830D01*
X67559064Y-60627257D01*
X67559066Y-60627259D01*
X67688399Y-60811966D01*
X67688402Y-60811970D01*
X67691505Y-60816401D01*
X67858599Y-60983495D01*
X67863031Y-60986598D01*
X67863033Y-60986600D01*
X68044595Y-61113731D01*
X68083460Y-61158049D01*
X68097471Y-61215306D01*
X68083460Y-61272563D01*
X68044595Y-61316881D01*
X67863352Y-61443788D01*
X67855092Y-61450719D01*
X67695719Y-61610092D01*
X67688784Y-61618357D01*
X67559508Y-61802982D01*
X67554110Y-61812332D01*
X67458856Y-62016602D01*
X67455168Y-62026736D01*
X67403056Y-62221219D01*
X67402688Y-62232448D01*
X67413631Y-62235000D01*
X68856000Y-62235000D01*
X68918000Y-62251613D01*
X68963387Y-62297000D01*
X68980000Y-62359000D01*
X68980000Y-62611000D01*
X68963387Y-62673000D01*
X68918000Y-62718387D01*
X68856000Y-62735000D01*
X67413631Y-62735000D01*
X67402688Y-62737551D01*
X67403056Y-62748780D01*
X67455168Y-62943263D01*
X67458856Y-62953397D01*
X67554113Y-63157676D01*
X67559501Y-63167008D01*
X67688784Y-63351643D01*
X67695721Y-63359909D01*
X67855090Y-63519278D01*
X67863356Y-63526215D01*
X68044595Y-63653120D01*
X68083460Y-63697438D01*
X68097471Y-63754695D01*
X68083460Y-63811952D01*
X68044594Y-63856270D01*
X67863034Y-63983399D01*
X67863029Y-63983402D01*
X67858599Y-63986505D01*
X67854775Y-63990328D01*
X67854769Y-63990334D01*
X67695334Y-64149769D01*
X67695328Y-64149775D01*
X67691505Y-64153599D01*
X67688402Y-64158029D01*
X67688399Y-64158034D01*
X67559073Y-64342731D01*
X67559068Y-64342738D01*
X67555965Y-64347171D01*
X67553677Y-64352077D01*
X67553675Y-64352081D01*
X67458386Y-64556427D01*
X67458383Y-64556432D01*
X67456097Y-64561337D01*
X67454698Y-64566557D01*
X67454694Y-64566569D01*
X67396337Y-64784365D01*
X67396335Y-64784371D01*
X67394937Y-64789592D01*
X67374341Y-65025000D01*
X67394937Y-65260408D01*
X67396336Y-65265630D01*
X67396337Y-65265634D01*
X67454694Y-65483430D01*
X67454697Y-65483438D01*
X67456097Y-65488663D01*
X67458385Y-65493570D01*
X67458386Y-65493572D01*
X67553678Y-65697927D01*
X67553681Y-65697933D01*
X67555965Y-65702830D01*
X67559064Y-65707257D01*
X67559066Y-65707259D01*
X67688399Y-65891966D01*
X67688402Y-65891970D01*
X67691505Y-65896401D01*
X67858599Y-66063495D01*
X67863031Y-66066598D01*
X67863033Y-66066600D01*
X68044595Y-66193731D01*
X68083460Y-66238049D01*
X68097471Y-66295306D01*
X68083460Y-66352563D01*
X68044595Y-66396881D01*
X67863352Y-66523788D01*
X67855092Y-66530719D01*
X67695719Y-66690092D01*
X67688784Y-66698357D01*
X67559508Y-66882982D01*
X67554110Y-66892332D01*
X67458856Y-67096602D01*
X67455168Y-67106736D01*
X67403056Y-67301219D01*
X67402688Y-67312448D01*
X67413631Y-67315000D01*
X68856000Y-67315000D01*
X68918000Y-67331613D01*
X68963387Y-67377000D01*
X68980000Y-67439000D01*
X68980000Y-67691000D01*
X68963387Y-67753000D01*
X68918000Y-67798387D01*
X68856000Y-67815000D01*
X67413631Y-67815000D01*
X67402688Y-67817551D01*
X67403056Y-67828780D01*
X67455168Y-68023263D01*
X67458856Y-68033397D01*
X67554113Y-68237676D01*
X67559501Y-68247008D01*
X67688784Y-68431643D01*
X67695721Y-68439909D01*
X67855090Y-68599278D01*
X67863356Y-68606215D01*
X68044595Y-68733120D01*
X68083460Y-68777438D01*
X68097471Y-68834695D01*
X68083460Y-68891952D01*
X68044594Y-68936270D01*
X67863034Y-69063399D01*
X67863029Y-69063402D01*
X67858599Y-69066505D01*
X67854775Y-69070328D01*
X67854769Y-69070334D01*
X67695334Y-69229769D01*
X67695328Y-69229775D01*
X67691505Y-69233599D01*
X67688402Y-69238029D01*
X67688399Y-69238034D01*
X67559073Y-69422731D01*
X67559068Y-69422738D01*
X67555965Y-69427171D01*
X67553677Y-69432077D01*
X67553675Y-69432081D01*
X67458386Y-69636427D01*
X67458383Y-69636432D01*
X67456097Y-69641337D01*
X67454698Y-69646557D01*
X67454694Y-69646569D01*
X67396337Y-69864365D01*
X67396335Y-69864371D01*
X67394937Y-69869592D01*
X67374341Y-70105000D01*
X67394937Y-70340408D01*
X67396336Y-70345630D01*
X67396337Y-70345634D01*
X67454694Y-70563430D01*
X67454697Y-70563438D01*
X67456097Y-70568663D01*
X67458385Y-70573570D01*
X67458386Y-70573572D01*
X67553678Y-70777927D01*
X67553681Y-70777933D01*
X67555965Y-70782830D01*
X67559064Y-70787257D01*
X67559066Y-70787259D01*
X67688399Y-70971966D01*
X67688402Y-70971970D01*
X67691505Y-70976401D01*
X67858599Y-71143495D01*
X67863032Y-71146599D01*
X67863038Y-71146604D01*
X68044158Y-71273425D01*
X68083024Y-71317743D01*
X68097035Y-71375000D01*
X68083024Y-71432257D01*
X68044159Y-71476575D01*
X67863041Y-71603395D01*
X67858599Y-71606505D01*
X67854775Y-71610328D01*
X67854769Y-71610334D01*
X67695334Y-71769769D01*
X67695328Y-71769775D01*
X67691505Y-71773599D01*
X67688402Y-71778029D01*
X67688399Y-71778034D01*
X67559073Y-71962731D01*
X67559068Y-71962738D01*
X67555965Y-71967171D01*
X67553677Y-71972077D01*
X67553675Y-71972081D01*
X67458386Y-72176427D01*
X67458383Y-72176432D01*
X67456097Y-72181337D01*
X67454698Y-72186557D01*
X67454694Y-72186569D01*
X67396337Y-72404365D01*
X67396335Y-72404371D01*
X67394937Y-72409592D01*
X67374341Y-72645000D01*
X67374813Y-72650395D01*
X67393472Y-72863670D01*
X67394937Y-72880408D01*
X67396336Y-72885630D01*
X67396337Y-72885634D01*
X67454694Y-73103430D01*
X67454697Y-73103438D01*
X67456097Y-73108663D01*
X67458385Y-73113570D01*
X67458386Y-73113572D01*
X67553678Y-73317927D01*
X67553681Y-73317933D01*
X67555965Y-73322830D01*
X67559064Y-73327257D01*
X67559066Y-73327259D01*
X67688399Y-73511966D01*
X67688402Y-73511970D01*
X67691505Y-73516401D01*
X67858599Y-73683495D01*
X67863032Y-73686599D01*
X67863038Y-73686604D01*
X68044158Y-73813425D01*
X68083024Y-73857743D01*
X68097035Y-73915000D01*
X68083024Y-73972257D01*
X68044159Y-74016575D01*
X67863041Y-74143395D01*
X67858599Y-74146505D01*
X67854775Y-74150328D01*
X67854769Y-74150334D01*
X67695334Y-74309769D01*
X67695328Y-74309775D01*
X67691505Y-74313599D01*
X67688402Y-74318029D01*
X67688399Y-74318034D01*
X67559073Y-74502731D01*
X67559068Y-74502738D01*
X67555965Y-74507171D01*
X67553677Y-74512077D01*
X67553675Y-74512081D01*
X67458386Y-74716427D01*
X67458383Y-74716432D01*
X67456097Y-74721337D01*
X67454698Y-74726557D01*
X67454694Y-74726569D01*
X67396337Y-74944365D01*
X67396335Y-74944371D01*
X67394937Y-74949592D01*
X67394465Y-74954977D01*
X67394465Y-74954982D01*
X67383690Y-75078141D01*
X67374341Y-75185000D01*
X67394937Y-75420408D01*
X67396336Y-75425630D01*
X67396337Y-75425634D01*
X67454694Y-75643430D01*
X67454697Y-75643438D01*
X67456097Y-75648663D01*
X67458385Y-75653570D01*
X67458386Y-75653572D01*
X67553678Y-75857927D01*
X67553681Y-75857933D01*
X67555965Y-75862830D01*
X67559064Y-75867257D01*
X67559066Y-75867259D01*
X67688399Y-76051966D01*
X67688402Y-76051970D01*
X67691505Y-76056401D01*
X67858599Y-76223495D01*
X67863032Y-76226599D01*
X67863038Y-76226604D01*
X68044158Y-76353425D01*
X68083024Y-76397743D01*
X68097035Y-76455000D01*
X68083024Y-76512257D01*
X68044159Y-76556575D01*
X67863041Y-76683395D01*
X67858599Y-76686505D01*
X67854775Y-76690328D01*
X67854769Y-76690334D01*
X67695334Y-76849769D01*
X67695328Y-76849775D01*
X67691505Y-76853599D01*
X67688402Y-76858029D01*
X67688399Y-76858034D01*
X67559073Y-77042731D01*
X67559068Y-77042738D01*
X67555965Y-77047171D01*
X67553677Y-77052077D01*
X67553675Y-77052081D01*
X67458386Y-77256427D01*
X67458383Y-77256432D01*
X67456097Y-77261337D01*
X67454698Y-77266557D01*
X67454694Y-77266569D01*
X67396337Y-77484365D01*
X67396335Y-77484371D01*
X67394937Y-77489592D01*
X67394465Y-77494977D01*
X67394465Y-77494982D01*
X67380562Y-77653890D01*
X67374341Y-77725000D01*
X67374813Y-77730395D01*
X67391815Y-77924733D01*
X67394937Y-77960408D01*
X67396336Y-77965630D01*
X67396337Y-77965634D01*
X67454694Y-78183430D01*
X67454697Y-78183438D01*
X67456097Y-78188663D01*
X67458385Y-78193570D01*
X67458386Y-78193572D01*
X67553678Y-78397927D01*
X67553681Y-78397933D01*
X67555965Y-78402830D01*
X67559064Y-78407257D01*
X67559066Y-78407259D01*
X67688399Y-78591966D01*
X67688402Y-78591970D01*
X67691505Y-78596401D01*
X67858599Y-78763495D01*
X67863031Y-78766598D01*
X67863033Y-78766600D01*
X68044595Y-78893731D01*
X68083460Y-78938049D01*
X68097471Y-78995306D01*
X68083460Y-79052563D01*
X68044595Y-79096881D01*
X67863352Y-79223788D01*
X67855092Y-79230719D01*
X67695719Y-79390092D01*
X67688784Y-79398357D01*
X67559508Y-79582982D01*
X67554110Y-79592332D01*
X67458856Y-79796602D01*
X67455168Y-79806736D01*
X67403056Y-80001219D01*
X67402688Y-80012448D01*
X67413631Y-80015000D01*
X68856000Y-80015000D01*
X68918000Y-80031613D01*
X68963387Y-80077000D01*
X68980000Y-80139000D01*
X68980000Y-80391000D01*
X68963387Y-80453000D01*
X68918000Y-80498387D01*
X68856000Y-80515000D01*
X67413631Y-80515000D01*
X67402688Y-80517551D01*
X67403056Y-80528780D01*
X67455168Y-80723263D01*
X67458856Y-80733397D01*
X67554113Y-80937676D01*
X67559501Y-80947008D01*
X67688784Y-81131643D01*
X67695721Y-81139909D01*
X67855090Y-81299278D01*
X67863356Y-81306215D01*
X68044595Y-81433120D01*
X68083460Y-81477438D01*
X68097471Y-81534695D01*
X68083460Y-81591952D01*
X68044594Y-81636270D01*
X67863034Y-81763399D01*
X67863029Y-81763402D01*
X67858599Y-81766505D01*
X67854775Y-81770328D01*
X67854769Y-81770334D01*
X67695334Y-81929769D01*
X67695328Y-81929775D01*
X67691505Y-81933599D01*
X67688402Y-81938029D01*
X67688399Y-81938034D01*
X67559073Y-82122731D01*
X67559068Y-82122738D01*
X67555965Y-82127171D01*
X67553677Y-82132077D01*
X67553675Y-82132081D01*
X67458386Y-82336427D01*
X67458383Y-82336432D01*
X67456097Y-82341337D01*
X67454698Y-82346557D01*
X67454694Y-82346569D01*
X67396337Y-82564365D01*
X67396335Y-82564371D01*
X67394937Y-82569592D01*
X67374341Y-82805000D01*
X67394937Y-83040408D01*
X67396336Y-83045630D01*
X67396337Y-83045634D01*
X67454694Y-83263430D01*
X67454697Y-83263438D01*
X67456097Y-83268663D01*
X67458385Y-83273570D01*
X67458386Y-83273572D01*
X67553678Y-83477927D01*
X67553681Y-83477933D01*
X67555965Y-83482830D01*
X67559064Y-83487257D01*
X67559066Y-83487259D01*
X67688399Y-83671966D01*
X67688402Y-83671970D01*
X67691505Y-83676401D01*
X67858599Y-83843495D01*
X67863032Y-83846599D01*
X67863038Y-83846604D01*
X68044158Y-83973425D01*
X68083024Y-84017743D01*
X68097035Y-84075000D01*
X68083024Y-84132257D01*
X68044159Y-84176575D01*
X67863041Y-84303395D01*
X67858599Y-84306505D01*
X67854775Y-84310328D01*
X67854769Y-84310334D01*
X67695334Y-84469769D01*
X67695328Y-84469775D01*
X67691505Y-84473599D01*
X67688402Y-84478029D01*
X67688399Y-84478034D01*
X67559073Y-84662731D01*
X67559068Y-84662738D01*
X67555965Y-84667171D01*
X67553677Y-84672077D01*
X67553675Y-84672081D01*
X67458386Y-84876427D01*
X67458383Y-84876432D01*
X67456097Y-84881337D01*
X67454698Y-84886557D01*
X67454694Y-84886569D01*
X67396337Y-85104365D01*
X67396335Y-85104371D01*
X67394937Y-85109592D01*
X67374341Y-85345000D01*
X67394937Y-85580408D01*
X67396336Y-85585630D01*
X67396337Y-85585634D01*
X67454694Y-85803430D01*
X67454697Y-85803438D01*
X67456097Y-85808663D01*
X67458385Y-85813570D01*
X67458386Y-85813572D01*
X67553678Y-86017927D01*
X67553681Y-86017933D01*
X67555965Y-86022830D01*
X67559064Y-86027257D01*
X67559066Y-86027259D01*
X67688399Y-86211966D01*
X67688402Y-86211970D01*
X67691505Y-86216401D01*
X67858599Y-86383495D01*
X67863031Y-86386598D01*
X67863033Y-86386600D01*
X68044595Y-86513731D01*
X68083460Y-86558049D01*
X68097471Y-86615306D01*
X68083460Y-86672563D01*
X68044595Y-86716881D01*
X67863352Y-86843788D01*
X67855092Y-86850719D01*
X67695719Y-87010092D01*
X67688784Y-87018357D01*
X67559508Y-87202982D01*
X67554110Y-87212332D01*
X67458856Y-87416602D01*
X67455168Y-87426736D01*
X67403056Y-87621219D01*
X67402688Y-87632448D01*
X67413631Y-87635000D01*
X68856000Y-87635000D01*
X68918000Y-87651613D01*
X68963387Y-87697000D01*
X68980000Y-87759000D01*
X68980000Y-88011000D01*
X68963387Y-88073000D01*
X68918000Y-88118387D01*
X68856000Y-88135000D01*
X67413631Y-88135000D01*
X67402688Y-88137551D01*
X67403056Y-88148780D01*
X67455168Y-88343263D01*
X67458856Y-88353397D01*
X67554113Y-88557676D01*
X67559501Y-88567008D01*
X67688784Y-88751643D01*
X67695721Y-88759909D01*
X67855090Y-88919278D01*
X67863356Y-88926215D01*
X68044595Y-89053120D01*
X68083460Y-89097438D01*
X68097471Y-89154695D01*
X68083460Y-89211952D01*
X68044594Y-89256270D01*
X67863034Y-89383399D01*
X67863029Y-89383402D01*
X67858599Y-89386505D01*
X67854775Y-89390328D01*
X67854769Y-89390334D01*
X67695334Y-89549769D01*
X67695328Y-89549775D01*
X67691505Y-89553599D01*
X67688402Y-89558029D01*
X67688399Y-89558034D01*
X67559073Y-89742731D01*
X67559068Y-89742738D01*
X67555965Y-89747171D01*
X67553677Y-89752077D01*
X67553675Y-89752081D01*
X67458386Y-89956427D01*
X67458383Y-89956432D01*
X67456097Y-89961337D01*
X67454698Y-89966557D01*
X67454694Y-89966569D01*
X67396337Y-90184365D01*
X67396335Y-90184371D01*
X67394937Y-90189592D01*
X67374341Y-90425000D01*
X67394937Y-90660408D01*
X67396336Y-90665630D01*
X67396337Y-90665634D01*
X67454694Y-90883430D01*
X67454697Y-90883438D01*
X67456097Y-90888663D01*
X67458385Y-90893570D01*
X67458386Y-90893572D01*
X67553678Y-91097927D01*
X67553681Y-91097933D01*
X67555965Y-91102830D01*
X67559064Y-91107257D01*
X67559066Y-91107259D01*
X67688399Y-91291966D01*
X67688402Y-91291970D01*
X67691505Y-91296401D01*
X67858599Y-91463495D01*
X67863032Y-91466599D01*
X67863038Y-91466604D01*
X68044158Y-91593425D01*
X68083024Y-91637743D01*
X68097035Y-91695000D01*
X68083024Y-91752257D01*
X68044159Y-91796575D01*
X67863041Y-91923395D01*
X67858599Y-91926505D01*
X67854775Y-91930328D01*
X67854769Y-91930334D01*
X67695334Y-92089769D01*
X67695328Y-92089775D01*
X67691505Y-92093599D01*
X67688402Y-92098029D01*
X67688399Y-92098034D01*
X67559073Y-92282731D01*
X67559068Y-92282738D01*
X67555965Y-92287171D01*
X67553677Y-92292077D01*
X67553675Y-92292081D01*
X67458386Y-92496427D01*
X67458383Y-92496432D01*
X67456097Y-92501337D01*
X67454698Y-92506557D01*
X67454694Y-92506569D01*
X67396337Y-92724365D01*
X67396335Y-92724371D01*
X67394937Y-92729592D01*
X67374341Y-92965000D01*
X67394937Y-93200408D01*
X67396336Y-93205630D01*
X67396337Y-93205634D01*
X67454694Y-93423430D01*
X67454697Y-93423438D01*
X67456097Y-93428663D01*
X67458385Y-93433570D01*
X67458386Y-93433572D01*
X67553678Y-93637927D01*
X67553681Y-93637933D01*
X67555965Y-93642830D01*
X67559064Y-93647257D01*
X67559066Y-93647259D01*
X67688399Y-93831966D01*
X67688402Y-93831970D01*
X67691505Y-93836401D01*
X67858599Y-94003495D01*
X67863032Y-94006599D01*
X67863038Y-94006604D01*
X68044158Y-94133425D01*
X68083024Y-94177743D01*
X68097035Y-94235000D01*
X68083024Y-94292257D01*
X68044160Y-94336574D01*
X67858599Y-94466505D01*
X67854775Y-94470328D01*
X67854769Y-94470334D01*
X67695334Y-94629769D01*
X67695328Y-94629775D01*
X67691505Y-94633599D01*
X67688402Y-94638029D01*
X67688399Y-94638034D01*
X67559073Y-94822731D01*
X67559068Y-94822738D01*
X67555965Y-94827171D01*
X67553677Y-94832077D01*
X67553675Y-94832081D01*
X67458386Y-95036427D01*
X67458383Y-95036432D01*
X67456097Y-95041337D01*
X67454698Y-95046557D01*
X67454694Y-95046569D01*
X67396337Y-95264365D01*
X67396335Y-95264371D01*
X67394937Y-95269592D01*
X67374341Y-95505000D01*
X67394937Y-95740408D01*
X67396336Y-95745630D01*
X67396337Y-95745634D01*
X67454694Y-95963430D01*
X67454697Y-95963438D01*
X67456097Y-95968663D01*
X67458385Y-95973570D01*
X67458386Y-95973572D01*
X67553678Y-96177927D01*
X67553681Y-96177933D01*
X67555965Y-96182830D01*
X67559064Y-96187257D01*
X67559066Y-96187259D01*
X67688399Y-96371966D01*
X67688402Y-96371970D01*
X67691505Y-96376401D01*
X67858599Y-96543495D01*
X67863031Y-96546598D01*
X67863033Y-96546600D01*
X68044595Y-96673731D01*
X68083460Y-96718049D01*
X68097471Y-96775306D01*
X68083460Y-96832563D01*
X68044595Y-96876881D01*
X67863352Y-97003788D01*
X67855092Y-97010719D01*
X67695719Y-97170092D01*
X67688784Y-97178357D01*
X67559508Y-97362982D01*
X67554110Y-97372332D01*
X67458856Y-97576602D01*
X67455168Y-97586736D01*
X67403056Y-97781219D01*
X67402688Y-97792448D01*
X67413631Y-97795000D01*
X68856000Y-97795000D01*
X68918000Y-97811613D01*
X68963387Y-97857000D01*
X68980000Y-97919000D01*
X68980000Y-98171000D01*
X68963387Y-98233000D01*
X68918000Y-98278387D01*
X68856000Y-98295000D01*
X67413631Y-98295000D01*
X67402688Y-98297551D01*
X67403056Y-98308780D01*
X67455168Y-98503263D01*
X67458856Y-98513397D01*
X67554113Y-98717676D01*
X67559501Y-98727008D01*
X67688784Y-98911643D01*
X67695721Y-98919909D01*
X67855090Y-99079278D01*
X67863356Y-99086215D01*
X68044595Y-99213120D01*
X68083460Y-99257438D01*
X68097471Y-99314695D01*
X68083460Y-99371952D01*
X68044594Y-99416270D01*
X67863034Y-99543399D01*
X67863029Y-99543402D01*
X67858599Y-99546505D01*
X67854775Y-99550328D01*
X67854769Y-99550334D01*
X67695334Y-99709769D01*
X67695328Y-99709775D01*
X67691505Y-99713599D01*
X67688402Y-99718029D01*
X67688399Y-99718034D01*
X67559073Y-99902731D01*
X67559068Y-99902738D01*
X67555965Y-99907171D01*
X67553677Y-99912077D01*
X67553675Y-99912081D01*
X67458386Y-100116427D01*
X67458383Y-100116432D01*
X67456097Y-100121337D01*
X67454698Y-100126557D01*
X67454694Y-100126569D01*
X67396337Y-100344365D01*
X67396335Y-100344371D01*
X67394937Y-100349592D01*
X67374341Y-100585000D01*
X67394937Y-100820408D01*
X67396336Y-100825630D01*
X67396337Y-100825634D01*
X67454694Y-101043430D01*
X67454697Y-101043438D01*
X67456097Y-101048663D01*
X67458385Y-101053570D01*
X67458386Y-101053572D01*
X67553678Y-101257927D01*
X67553681Y-101257933D01*
X67555965Y-101262830D01*
X67559064Y-101267257D01*
X67559066Y-101267259D01*
X67688399Y-101451966D01*
X67688402Y-101451970D01*
X67691505Y-101456401D01*
X67858599Y-101623495D01*
X67863031Y-101626598D01*
X67863033Y-101626600D01*
X67926624Y-101671127D01*
X67965489Y-101715445D01*
X67979500Y-101772702D01*
X67979500Y-101937300D01*
X67965489Y-101994557D01*
X67926624Y-102038873D01*
X67909763Y-102050679D01*
X67863033Y-102083399D01*
X67863023Y-102083406D01*
X67858599Y-102086505D01*
X67854775Y-102090328D01*
X67854769Y-102090334D01*
X67695334Y-102249769D01*
X67695328Y-102249775D01*
X67691505Y-102253599D01*
X67688402Y-102258029D01*
X67688399Y-102258034D01*
X67559073Y-102442731D01*
X67559068Y-102442738D01*
X67555965Y-102447171D01*
X67553677Y-102452077D01*
X67553675Y-102452081D01*
X67458386Y-102656427D01*
X67458383Y-102656432D01*
X67456097Y-102661337D01*
X67454698Y-102666557D01*
X67454694Y-102666569D01*
X67396337Y-102884365D01*
X67396335Y-102884371D01*
X67394937Y-102889592D01*
X67374341Y-103125000D01*
X66000500Y-103125000D01*
X66000500Y-52184020D01*
X68174812Y-52184020D01*
X68182499Y-52195346D01*
X68292441Y-52287598D01*
X68298239Y-52291915D01*
X68569565Y-52470369D01*
X68575814Y-52473976D01*
X68866022Y-52619725D01*
X68872661Y-52622588D01*
X69177838Y-52733664D01*
X69184728Y-52735727D01*
X69500768Y-52810630D01*
X69507834Y-52811876D01*
X69830435Y-52849582D01*
X69837605Y-52850000D01*
X70162395Y-52850000D01*
X70169564Y-52849582D01*
X70492165Y-52811876D01*
X70499231Y-52810630D01*
X70815271Y-52735727D01*
X70822161Y-52733664D01*
X71127338Y-52622588D01*
X71133977Y-52619725D01*
X71424185Y-52473976D01*
X71430434Y-52470369D01*
X71701760Y-52291915D01*
X71707558Y-52287598D01*
X71817499Y-52195346D01*
X71825186Y-52184020D01*
X71818515Y-52172068D01*
X70011542Y-50365095D01*
X70000000Y-50358431D01*
X69988457Y-50365095D01*
X68181482Y-52172069D01*
X68174812Y-52184020D01*
X66000500Y-52184020D01*
X66000500Y-50003606D01*
X67145380Y-50003606D01*
X67164262Y-50327812D01*
X67165101Y-50334991D01*
X67221494Y-50654811D01*
X67223156Y-50661824D01*
X67316305Y-50972963D01*
X67318761Y-50979712D01*
X67447402Y-51277934D01*
X67450635Y-51284370D01*
X67613016Y-51565623D01*
X67616982Y-51571654D01*
X67804384Y-51823377D01*
X67812616Y-51830544D01*
X67821798Y-51824647D01*
X69634904Y-50011542D01*
X69641568Y-50000000D01*
X69641567Y-49999999D01*
X70358431Y-49999999D01*
X70365095Y-50011542D01*
X72178200Y-51824647D01*
X72187382Y-51830544D01*
X72195614Y-51823377D01*
X72383017Y-51571654D01*
X72386983Y-51565623D01*
X72549364Y-51284370D01*
X72552597Y-51277934D01*
X72681238Y-50979712D01*
X72683694Y-50972963D01*
X72776843Y-50661824D01*
X72778505Y-50654811D01*
X72834898Y-50334991D01*
X72835737Y-50327812D01*
X72854620Y-50003606D01*
X72854620Y-49996394D01*
X72835737Y-49672187D01*
X72834898Y-49665008D01*
X72778505Y-49345188D01*
X72776843Y-49338175D01*
X72683694Y-49027036D01*
X72681238Y-49020287D01*
X72552597Y-48722065D01*
X72549364Y-48715629D01*
X72386983Y-48434376D01*
X72383017Y-48428345D01*
X72195614Y-48176621D01*
X72187382Y-48169454D01*
X72178200Y-48175351D01*
X70365095Y-49988457D01*
X70358431Y-49999999D01*
X69641567Y-49999999D01*
X69634904Y-49988457D01*
X67821798Y-48175351D01*
X67812616Y-48169455D01*
X67804383Y-48176622D01*
X67616982Y-48428344D01*
X67613016Y-48434376D01*
X67450635Y-48715629D01*
X67447402Y-48722065D01*
X67318761Y-49020287D01*
X67316305Y-49027036D01*
X67223156Y-49338175D01*
X67221494Y-49345188D01*
X67165101Y-49665008D01*
X67164262Y-49672187D01*
X67145380Y-49996394D01*
X67145380Y-50003606D01*
X66000500Y-50003606D01*
X66000500Y-50002872D01*
X66000632Y-49997146D01*
X66005846Y-49884365D01*
X66008490Y-49827168D01*
X66018166Y-49630200D01*
X66019200Y-49619217D01*
X66044611Y-49437054D01*
X66044722Y-49436286D01*
X66071950Y-49252729D01*
X66073890Y-49242595D01*
X66116526Y-49061318D01*
X66116837Y-49060037D01*
X66161405Y-48882111D01*
X66164091Y-48872922D01*
X66223572Y-48695457D01*
X66224270Y-48693442D01*
X66285699Y-48521759D01*
X66288996Y-48513497D01*
X66364713Y-48342015D01*
X66366051Y-48339089D01*
X66443727Y-48174855D01*
X66447452Y-48167612D01*
X66538864Y-48003497D01*
X66540745Y-48000243D01*
X66634036Y-47844598D01*
X66638034Y-47838363D01*
X66653368Y-47815978D01*
X68174812Y-47815978D01*
X68181482Y-47827929D01*
X69988457Y-49634904D01*
X70000000Y-49641568D01*
X70011542Y-49634904D01*
X71818516Y-47827929D01*
X71825186Y-47815977D01*
X71817500Y-47804653D01*
X71707558Y-47712401D01*
X71701760Y-47708084D01*
X71430434Y-47529630D01*
X71424185Y-47526023D01*
X71243371Y-47435214D01*
X74485214Y-47435214D01*
X74485214Y-51114786D01*
X77491317Y-51114786D01*
X77507643Y-51114786D01*
X77507643Y-51071829D01*
X79600001Y-51071829D01*
X79600321Y-51078111D01*
X79609805Y-51170959D01*
X79612623Y-51184122D01*
X79663370Y-51337267D01*
X79669432Y-51350266D01*
X79753890Y-51487194D01*
X79762794Y-51498455D01*
X79876544Y-51612205D01*
X79887805Y-51621109D01*
X80024733Y-51705567D01*
X80037732Y-51711629D01*
X80190874Y-51762375D01*
X80204041Y-51765194D01*
X80296890Y-51774680D01*
X80303168Y-51775000D01*
X80683674Y-51775000D01*
X80696549Y-51771549D01*
X80700000Y-51758674D01*
X80700000Y-50541326D01*
X80696549Y-50528450D01*
X80683674Y-50525000D01*
X79616327Y-50525000D01*
X79603451Y-50528450D01*
X79600001Y-50541326D01*
X79600001Y-51071829D01*
X77507643Y-51071829D01*
X77507643Y-50008674D01*
X79600000Y-50008674D01*
X79603450Y-50021549D01*
X79616326Y-50025000D01*
X80683674Y-50025000D01*
X80696549Y-50021549D01*
X80700000Y-50008674D01*
X80700000Y-48791327D01*
X80696549Y-48778451D01*
X80683674Y-48775001D01*
X80303171Y-48775001D01*
X80296888Y-48775321D01*
X80204040Y-48784805D01*
X80190877Y-48787623D01*
X80037732Y-48838370D01*
X80024733Y-48844432D01*
X79887805Y-48928890D01*
X79876544Y-48937794D01*
X79762794Y-49051544D01*
X79753890Y-49062805D01*
X79669432Y-49199733D01*
X79663370Y-49212732D01*
X79612624Y-49365874D01*
X79609805Y-49379041D01*
X79600319Y-49471890D01*
X79600000Y-49478168D01*
X79600000Y-50008674D01*
X77507643Y-50008674D01*
X77507643Y-47815978D01*
X91174812Y-47815978D01*
X91181482Y-47827929D01*
X92988457Y-49634904D01*
X93000000Y-49641568D01*
X93011542Y-49634904D01*
X94818516Y-47827929D01*
X94825186Y-47815977D01*
X94817500Y-47804653D01*
X94707558Y-47712401D01*
X94701760Y-47708084D01*
X94430434Y-47529630D01*
X94424185Y-47526023D01*
X94133977Y-47380274D01*
X94127338Y-47377411D01*
X93822161Y-47266335D01*
X93815271Y-47264272D01*
X93499231Y-47189369D01*
X93492165Y-47188123D01*
X93169564Y-47150417D01*
X93162395Y-47150000D01*
X92837605Y-47150000D01*
X92830435Y-47150417D01*
X92507834Y-47188123D01*
X92500768Y-47189369D01*
X92184728Y-47264272D01*
X92177838Y-47266335D01*
X91872661Y-47377411D01*
X91866022Y-47380274D01*
X91575814Y-47526023D01*
X91569565Y-47529630D01*
X91298241Y-47708083D01*
X91292440Y-47712402D01*
X91182498Y-47804653D01*
X91174812Y-47815978D01*
X77507643Y-47815978D01*
X77507643Y-47435214D01*
X74485214Y-47435214D01*
X71243371Y-47435214D01*
X71133977Y-47380274D01*
X71127338Y-47377411D01*
X70822161Y-47266335D01*
X70815271Y-47264272D01*
X70499231Y-47189369D01*
X70492165Y-47188123D01*
X70169564Y-47150417D01*
X70162395Y-47150000D01*
X69837605Y-47150000D01*
X69830435Y-47150417D01*
X69507834Y-47188123D01*
X69500768Y-47189369D01*
X69184728Y-47264272D01*
X69177838Y-47266335D01*
X68872661Y-47377411D01*
X68866022Y-47380274D01*
X68575814Y-47526023D01*
X68569565Y-47529630D01*
X68298241Y-47708083D01*
X68292440Y-47712402D01*
X68182498Y-47804653D01*
X68174812Y-47815978D01*
X66653368Y-47815978D01*
X66744270Y-47683278D01*
X66746899Y-47679590D01*
X66854909Y-47533954D01*
X66859011Y-47528728D01*
X66979239Y-47383944D01*
X66982577Y-47380097D01*
X67104340Y-47245752D01*
X67108437Y-47241450D01*
X67241450Y-47108437D01*
X67245752Y-47104340D01*
X67380097Y-46982577D01*
X67383944Y-46979239D01*
X67528728Y-46859011D01*
X67533954Y-46854909D01*
X67679590Y-46746899D01*
X67683278Y-46744270D01*
X67838363Y-46638034D01*
X67844598Y-46634036D01*
X68000243Y-46540745D01*
X68003497Y-46538864D01*
X68167612Y-46447452D01*
X68174855Y-46443727D01*
X68339098Y-46366046D01*
X68342018Y-46364712D01*
X68406007Y-46336458D01*
X68513497Y-46288996D01*
X68521759Y-46285699D01*
X68693442Y-46224270D01*
X68695457Y-46223572D01*
X68872922Y-46164091D01*
X68882111Y-46161405D01*
X69060037Y-46116837D01*
X69061318Y-46116526D01*
X69242595Y-46073890D01*
X69252729Y-46071950D01*
X69436286Y-46044722D01*
X69437054Y-46044611D01*
X69619217Y-46019200D01*
X69630200Y-46018166D01*
X69826898Y-46008502D01*
X69991674Y-46000884D01*
X69997146Y-46000632D01*
X70002872Y-46000500D01*
X92997128Y-46000500D01*
X93002854Y-46000632D01*
G37*
%TD.AperFunction*%
%TD*%
M02*
