%TF.GenerationSoftware,KiCad,Pcbnew,(7.0.0)*%
%TF.CreationDate,2023-05-30T16:09:46+02:00*%
%TF.ProjectId,connecteurs,636f6e6e-6563-4746-9575-72732e6b6963,1.0*%
%TF.SameCoordinates,Original*%
%TF.FileFunction,Legend,Top*%
%TF.FilePolarity,Positive*%
%FSLAX46Y46*%
G04 Gerber Fmt 4.6, Leading zero omitted, Abs format (unit mm)*
G04 Created by KiCad (PCBNEW (7.0.0)) date 2023-05-30 16:09:47*
%MOMM*%
%LPD*%
G01*
G04 APERTURE LIST*
%ADD10C,0.150000*%
%ADD11C,0.120000*%
G04 APERTURE END LIST*
D10*
%TO.C,C4*%
X73522142Y-106966666D02*
X73569761Y-107014285D01*
X73569761Y-107014285D02*
X73617380Y-107157142D01*
X73617380Y-107157142D02*
X73617380Y-107252380D01*
X73617380Y-107252380D02*
X73569761Y-107395237D01*
X73569761Y-107395237D02*
X73474523Y-107490475D01*
X73474523Y-107490475D02*
X73379285Y-107538094D01*
X73379285Y-107538094D02*
X73188809Y-107585713D01*
X73188809Y-107585713D02*
X73045952Y-107585713D01*
X73045952Y-107585713D02*
X72855476Y-107538094D01*
X72855476Y-107538094D02*
X72760238Y-107490475D01*
X72760238Y-107490475D02*
X72665000Y-107395237D01*
X72665000Y-107395237D02*
X72617380Y-107252380D01*
X72617380Y-107252380D02*
X72617380Y-107157142D01*
X72617380Y-107157142D02*
X72665000Y-107014285D01*
X72665000Y-107014285D02*
X72712619Y-106966666D01*
X72950714Y-106109523D02*
X73617380Y-106109523D01*
X72569761Y-106347618D02*
X73284047Y-106585713D01*
X73284047Y-106585713D02*
X73284047Y-105966666D01*
%TO.C,C3*%
X93822142Y-77266666D02*
X93869761Y-77314285D01*
X93869761Y-77314285D02*
X93917380Y-77457142D01*
X93917380Y-77457142D02*
X93917380Y-77552380D01*
X93917380Y-77552380D02*
X93869761Y-77695237D01*
X93869761Y-77695237D02*
X93774523Y-77790475D01*
X93774523Y-77790475D02*
X93679285Y-77838094D01*
X93679285Y-77838094D02*
X93488809Y-77885713D01*
X93488809Y-77885713D02*
X93345952Y-77885713D01*
X93345952Y-77885713D02*
X93155476Y-77838094D01*
X93155476Y-77838094D02*
X93060238Y-77790475D01*
X93060238Y-77790475D02*
X92965000Y-77695237D01*
X92965000Y-77695237D02*
X92917380Y-77552380D01*
X92917380Y-77552380D02*
X92917380Y-77457142D01*
X92917380Y-77457142D02*
X92965000Y-77314285D01*
X92965000Y-77314285D02*
X93012619Y-77266666D01*
X92917380Y-76933332D02*
X92917380Y-76314285D01*
X92917380Y-76314285D02*
X93298333Y-76647618D01*
X93298333Y-76647618D02*
X93298333Y-76504761D01*
X93298333Y-76504761D02*
X93345952Y-76409523D01*
X93345952Y-76409523D02*
X93393571Y-76361904D01*
X93393571Y-76361904D02*
X93488809Y-76314285D01*
X93488809Y-76314285D02*
X93726904Y-76314285D01*
X93726904Y-76314285D02*
X93822142Y-76361904D01*
X93822142Y-76361904D02*
X93869761Y-76409523D01*
X93869761Y-76409523D02*
X93917380Y-76504761D01*
X93917380Y-76504761D02*
X93917380Y-76790475D01*
X93917380Y-76790475D02*
X93869761Y-76885713D01*
X93869761Y-76885713D02*
X93822142Y-76933332D01*
%TO.C,C2*%
X90122142Y-58604166D02*
X90169761Y-58651785D01*
X90169761Y-58651785D02*
X90217380Y-58794642D01*
X90217380Y-58794642D02*
X90217380Y-58889880D01*
X90217380Y-58889880D02*
X90169761Y-59032737D01*
X90169761Y-59032737D02*
X90074523Y-59127975D01*
X90074523Y-59127975D02*
X89979285Y-59175594D01*
X89979285Y-59175594D02*
X89788809Y-59223213D01*
X89788809Y-59223213D02*
X89645952Y-59223213D01*
X89645952Y-59223213D02*
X89455476Y-59175594D01*
X89455476Y-59175594D02*
X89360238Y-59127975D01*
X89360238Y-59127975D02*
X89265000Y-59032737D01*
X89265000Y-59032737D02*
X89217380Y-58889880D01*
X89217380Y-58889880D02*
X89217380Y-58794642D01*
X89217380Y-58794642D02*
X89265000Y-58651785D01*
X89265000Y-58651785D02*
X89312619Y-58604166D01*
X89312619Y-58223213D02*
X89265000Y-58175594D01*
X89265000Y-58175594D02*
X89217380Y-58080356D01*
X89217380Y-58080356D02*
X89217380Y-57842261D01*
X89217380Y-57842261D02*
X89265000Y-57747023D01*
X89265000Y-57747023D02*
X89312619Y-57699404D01*
X89312619Y-57699404D02*
X89407857Y-57651785D01*
X89407857Y-57651785D02*
X89503095Y-57651785D01*
X89503095Y-57651785D02*
X89645952Y-57699404D01*
X89645952Y-57699404D02*
X90217380Y-58270832D01*
X90217380Y-58270832D02*
X90217380Y-57651785D01*
%TO.C,C1*%
X80122142Y-58604166D02*
X80169761Y-58651785D01*
X80169761Y-58651785D02*
X80217380Y-58794642D01*
X80217380Y-58794642D02*
X80217380Y-58889880D01*
X80217380Y-58889880D02*
X80169761Y-59032737D01*
X80169761Y-59032737D02*
X80074523Y-59127975D01*
X80074523Y-59127975D02*
X79979285Y-59175594D01*
X79979285Y-59175594D02*
X79788809Y-59223213D01*
X79788809Y-59223213D02*
X79645952Y-59223213D01*
X79645952Y-59223213D02*
X79455476Y-59175594D01*
X79455476Y-59175594D02*
X79360238Y-59127975D01*
X79360238Y-59127975D02*
X79265000Y-59032737D01*
X79265000Y-59032737D02*
X79217380Y-58889880D01*
X79217380Y-58889880D02*
X79217380Y-58794642D01*
X79217380Y-58794642D02*
X79265000Y-58651785D01*
X79265000Y-58651785D02*
X79312619Y-58604166D01*
X80217380Y-57651785D02*
X80217380Y-58223213D01*
X80217380Y-57937499D02*
X79217380Y-57937499D01*
X79217380Y-57937499D02*
X79360238Y-58032737D01*
X79360238Y-58032737D02*
X79455476Y-58127975D01*
X79455476Y-58127975D02*
X79503095Y-58223213D01*
%TO.C,U2*%
X83375595Y-54604880D02*
X83375595Y-55414404D01*
X83375595Y-55414404D02*
X83423214Y-55509642D01*
X83423214Y-55509642D02*
X83470833Y-55557261D01*
X83470833Y-55557261D02*
X83566071Y-55604880D01*
X83566071Y-55604880D02*
X83756547Y-55604880D01*
X83756547Y-55604880D02*
X83851785Y-55557261D01*
X83851785Y-55557261D02*
X83899404Y-55509642D01*
X83899404Y-55509642D02*
X83947023Y-55414404D01*
X83947023Y-55414404D02*
X83947023Y-54604880D01*
X84375595Y-54700119D02*
X84423214Y-54652500D01*
X84423214Y-54652500D02*
X84518452Y-54604880D01*
X84518452Y-54604880D02*
X84756547Y-54604880D01*
X84756547Y-54604880D02*
X84851785Y-54652500D01*
X84851785Y-54652500D02*
X84899404Y-54700119D01*
X84899404Y-54700119D02*
X84947023Y-54795357D01*
X84947023Y-54795357D02*
X84947023Y-54890595D01*
X84947023Y-54890595D02*
X84899404Y-55033452D01*
X84899404Y-55033452D02*
X84327976Y-55604880D01*
X84327976Y-55604880D02*
X84947023Y-55604880D01*
%TO.C,H3*%
X92238095Y-105017380D02*
X92238095Y-104017380D01*
X92238095Y-104493571D02*
X92809523Y-104493571D01*
X92809523Y-105017380D02*
X92809523Y-104017380D01*
X93190476Y-104017380D02*
X93809523Y-104017380D01*
X93809523Y-104017380D02*
X93476190Y-104398333D01*
X93476190Y-104398333D02*
X93619047Y-104398333D01*
X93619047Y-104398333D02*
X93714285Y-104445952D01*
X93714285Y-104445952D02*
X93761904Y-104493571D01*
X93761904Y-104493571D02*
X93809523Y-104588809D01*
X93809523Y-104588809D02*
X93809523Y-104826904D01*
X93809523Y-104826904D02*
X93761904Y-104922142D01*
X93761904Y-104922142D02*
X93714285Y-104969761D01*
X93714285Y-104969761D02*
X93619047Y-105017380D01*
X93619047Y-105017380D02*
X93333333Y-105017380D01*
X93333333Y-105017380D02*
X93238095Y-104969761D01*
X93238095Y-104969761D02*
X93190476Y-104922142D01*
%TO.C,H4*%
X72238095Y-111067380D02*
X72238095Y-110067380D01*
X72238095Y-110543571D02*
X72809523Y-110543571D01*
X72809523Y-111067380D02*
X72809523Y-110067380D01*
X73714285Y-110400714D02*
X73714285Y-111067380D01*
X73476190Y-110019761D02*
X73238095Y-110734047D01*
X73238095Y-110734047D02*
X73857142Y-110734047D01*
%TO.C,J1*%
X88586666Y-50267380D02*
X88586666Y-50981666D01*
X88586666Y-50981666D02*
X88539047Y-51124523D01*
X88539047Y-51124523D02*
X88443809Y-51219761D01*
X88443809Y-51219761D02*
X88300952Y-51267380D01*
X88300952Y-51267380D02*
X88205714Y-51267380D01*
X89586666Y-51267380D02*
X89015238Y-51267380D01*
X89300952Y-51267380D02*
X89300952Y-50267380D01*
X89300952Y-50267380D02*
X89205714Y-50410238D01*
X89205714Y-50410238D02*
X89110476Y-50505476D01*
X89110476Y-50505476D02*
X89015238Y-50553095D01*
%TO.C,IC1*%
X73867380Y-101876189D02*
X72867380Y-101876189D01*
X73772142Y-100828571D02*
X73819761Y-100876190D01*
X73819761Y-100876190D02*
X73867380Y-101019047D01*
X73867380Y-101019047D02*
X73867380Y-101114285D01*
X73867380Y-101114285D02*
X73819761Y-101257142D01*
X73819761Y-101257142D02*
X73724523Y-101352380D01*
X73724523Y-101352380D02*
X73629285Y-101399999D01*
X73629285Y-101399999D02*
X73438809Y-101447618D01*
X73438809Y-101447618D02*
X73295952Y-101447618D01*
X73295952Y-101447618D02*
X73105476Y-101399999D01*
X73105476Y-101399999D02*
X73010238Y-101352380D01*
X73010238Y-101352380D02*
X72915000Y-101257142D01*
X72915000Y-101257142D02*
X72867380Y-101114285D01*
X72867380Y-101114285D02*
X72867380Y-101019047D01*
X72867380Y-101019047D02*
X72915000Y-100876190D01*
X72915000Y-100876190D02*
X72962619Y-100828571D01*
X73867380Y-99876190D02*
X73867380Y-100447618D01*
X73867380Y-100161904D02*
X72867380Y-100161904D01*
X72867380Y-100161904D02*
X73010238Y-100257142D01*
X73010238Y-100257142D02*
X73105476Y-100352380D01*
X73105476Y-100352380D02*
X73153095Y-100447618D01*
%TO.C,U1*%
X90292380Y-73661904D02*
X91101904Y-73661904D01*
X91101904Y-73661904D02*
X91197142Y-73614285D01*
X91197142Y-73614285D02*
X91244761Y-73566666D01*
X91244761Y-73566666D02*
X91292380Y-73471428D01*
X91292380Y-73471428D02*
X91292380Y-73280952D01*
X91292380Y-73280952D02*
X91244761Y-73185714D01*
X91244761Y-73185714D02*
X91197142Y-73138095D01*
X91197142Y-73138095D02*
X91101904Y-73090476D01*
X91101904Y-73090476D02*
X90292380Y-73090476D01*
X91292380Y-72090476D02*
X91292380Y-72661904D01*
X91292380Y-72376190D02*
X90292380Y-72376190D01*
X90292380Y-72376190D02*
X90435238Y-72471428D01*
X90435238Y-72471428D02*
X90530476Y-72566666D01*
X90530476Y-72566666D02*
X90578095Y-72661904D01*
%TO.C,H1*%
X72738095Y-52267380D02*
X72738095Y-51267380D01*
X72738095Y-51743571D02*
X73309523Y-51743571D01*
X73309523Y-52267380D02*
X73309523Y-51267380D01*
X74309523Y-52267380D02*
X73738095Y-52267380D01*
X74023809Y-52267380D02*
X74023809Y-51267380D01*
X74023809Y-51267380D02*
X73928571Y-51410238D01*
X73928571Y-51410238D02*
X73833333Y-51505476D01*
X73833333Y-51505476D02*
X73738095Y-51553095D01*
%TO.C,H2*%
X92238095Y-54067380D02*
X92238095Y-53067380D01*
X92238095Y-53543571D02*
X92809523Y-53543571D01*
X92809523Y-54067380D02*
X92809523Y-53067380D01*
X93238095Y-53162619D02*
X93285714Y-53115000D01*
X93285714Y-53115000D02*
X93380952Y-53067380D01*
X93380952Y-53067380D02*
X93619047Y-53067380D01*
X93619047Y-53067380D02*
X93714285Y-53115000D01*
X93714285Y-53115000D02*
X93761904Y-53162619D01*
X93761904Y-53162619D02*
X93809523Y-53257857D01*
X93809523Y-53257857D02*
X93809523Y-53353095D01*
X93809523Y-53353095D02*
X93761904Y-53495952D01*
X93761904Y-53495952D02*
X93190476Y-54067380D01*
X93190476Y-54067380D02*
X93809523Y-54067380D01*
D11*
%TO.C,C4*%
X74190000Y-107511252D02*
X74190000Y-106088748D01*
X76010000Y-107511252D02*
X76010000Y-106088748D01*
%TO.C,C3*%
X92610000Y-76388748D02*
X92610000Y-77811252D01*
X90790000Y-76388748D02*
X90790000Y-77811252D01*
%TO.C,C2*%
X87090000Y-57726248D02*
X87090000Y-59148752D01*
X88910000Y-57726248D02*
X88910000Y-59148752D01*
%TO.C,C1*%
X77090000Y-57726248D02*
X77090000Y-59148752D01*
X78910000Y-57726248D02*
X78910000Y-59148752D01*
%TO.C,U2*%
X84137500Y-56077500D02*
X82337500Y-56077500D01*
X84137500Y-56077500D02*
X84937500Y-56077500D01*
X84137500Y-59197500D02*
X83337500Y-59197500D01*
X84137500Y-59197500D02*
X84937500Y-59197500D01*
%TO.C,J1*%
X78100000Y-47525000D02*
X78100000Y-48775000D01*
X78390000Y-47815000D02*
X78390000Y-53785000D01*
X78390000Y-53785000D02*
X86010000Y-53785000D01*
X78400000Y-47825000D02*
X78400000Y-48575000D01*
X78400000Y-48575000D02*
X80200000Y-48575000D01*
X78400000Y-50075000D02*
X79150000Y-50075000D01*
X79150000Y-50075000D02*
X79150000Y-53025000D01*
X79150000Y-53025000D02*
X82200000Y-53025000D01*
X79350000Y-47525000D02*
X78100000Y-47525000D01*
X80200000Y-47825000D02*
X78400000Y-47825000D01*
X80200000Y-48575000D02*
X80200000Y-47825000D01*
X81700000Y-47825000D02*
X81700000Y-48575000D01*
X81700000Y-48575000D02*
X82700000Y-48575000D01*
X82700000Y-47825000D02*
X81700000Y-47825000D01*
X82700000Y-48575000D02*
X82700000Y-47825000D01*
X84200000Y-47825000D02*
X84200000Y-48575000D01*
X84200000Y-48575000D02*
X86000000Y-48575000D01*
X85250000Y-50075000D02*
X85250000Y-53025000D01*
X85250000Y-53025000D02*
X82200000Y-53025000D01*
X86000000Y-47825000D02*
X84200000Y-47825000D01*
X86000000Y-48575000D02*
X86000000Y-47825000D01*
X86000000Y-50075000D02*
X85250000Y-50075000D01*
X86010000Y-47815000D02*
X78390000Y-47815000D01*
X86010000Y-53785000D02*
X86010000Y-47815000D01*
%TO.C,IC1*%
X72600000Y-104455000D02*
X71270000Y-104455000D01*
X72600000Y-103125000D02*
X72600000Y-104455000D01*
X72600000Y-101855000D02*
X72600000Y-53535000D01*
X72600000Y-101855000D02*
X70000000Y-101855000D01*
X72600000Y-53535000D02*
X67400000Y-53535000D01*
X70000000Y-104455000D02*
X67400000Y-104455000D01*
X70000000Y-101855000D02*
X70000000Y-104455000D01*
X67400000Y-104455000D02*
X67400000Y-53535000D01*
%TO.C,U1*%
X90025000Y-71300000D02*
X90025000Y-71300000D01*
X90025000Y-71300000D02*
X90025000Y-100500000D01*
X74575000Y-71300000D02*
X90025000Y-71300000D01*
X89449000Y-71630000D02*
X89449000Y-71630000D01*
X89449000Y-71630000D02*
X89449000Y-76964000D01*
X78781000Y-71630000D02*
X89449000Y-71630000D01*
X78781000Y-71630000D02*
X78781000Y-71630000D01*
X86655000Y-71884000D02*
X86655000Y-71884000D01*
X88941000Y-74170000D02*
X86655000Y-74170000D01*
X86655000Y-74170000D02*
X86655000Y-71884000D01*
X89449000Y-76964000D02*
X78781000Y-76964000D01*
X78781000Y-76964000D02*
X78781000Y-71630000D01*
X90025000Y-100500000D02*
X74575000Y-100500000D01*
X74575000Y-100500000D02*
X74575000Y-71300000D01*
%TD*%
M02*
