%TF.GenerationSoftware,KiCad,Pcbnew,(7.0.0)*%
%TF.CreationDate,2023-05-30T16:09:46+02:00*%
%TF.ProjectId,connecteurs,636f6e6e-6563-4746-9575-72732e6b6963,1.0*%
%TF.SameCoordinates,Original*%
%TF.FileFunction,Copper,L2,Bot*%
%TF.FilePolarity,Positive*%
%FSLAX46Y46*%
G04 Gerber Fmt 4.6, Leading zero omitted, Abs format (unit mm)*
G04 Created by KiCad (PCBNEW (7.0.0)) date 2023-05-30 16:09:46*
%MOMM*%
%LPD*%
G01*
G04 APERTURE LIST*
G04 Aperture macros list*
%AMRoundRect*
0 Rectangle with rounded corners*
0 $1 Rounding radius*
0 $2 $3 $4 $5 $6 $7 $8 $9 X,Y pos of 4 corners*
0 Add a 4 corners polygon primitive as box body*
4,1,4,$2,$3,$4,$5,$6,$7,$8,$9,$2,$3,0*
0 Add four circle primitives for the rounded corners*
1,1,$1+$1,$2,$3*
1,1,$1+$1,$4,$5*
1,1,$1+$1,$6,$7*
1,1,$1+$1,$8,$9*
0 Add four rect primitives between the rounded corners*
20,1,$1+$1,$2,$3,$4,$5,0*
20,1,$1+$1,$4,$5,$6,$7,0*
20,1,$1+$1,$6,$7,$8,$9,0*
20,1,$1+$1,$8,$9,$2,$3,0*%
G04 Aperture macros list end*
%ADD10C,0.300000*%
%TA.AperFunction,NonConductor*%
%ADD11C,0.300000*%
%TD*%
%TA.AperFunction,ComponentPad*%
%ADD12C,4.700000*%
%TD*%
%TA.AperFunction,ComponentPad*%
%ADD13RoundRect,0.250000X-0.600000X-0.750000X0.600000X-0.750000X0.600000X0.750000X-0.600000X0.750000X0*%
%TD*%
%TA.AperFunction,ComponentPad*%
%ADD14O,1.700000X2.000000*%
%TD*%
%TA.AperFunction,ComponentPad*%
%ADD15R,1.700000X1.700000*%
%TD*%
%TA.AperFunction,ComponentPad*%
%ADD16O,1.700000X1.700000*%
%TD*%
%TA.AperFunction,ComponentPad*%
%ADD17C,1.700000*%
%TD*%
%TA.AperFunction,ViaPad*%
%ADD18C,0.800000*%
%TD*%
%TA.AperFunction,ViaPad*%
%ADD19C,1.200000*%
%TD*%
%TA.AperFunction,Conductor*%
%ADD20C,0.500000*%
%TD*%
%TA.AperFunction,Conductor*%
%ADD21C,0.300000*%
%TD*%
G04 APERTURE END LIST*
D10*
D11*
X75742857Y-49287857D02*
X75528571Y-49359285D01*
X75528571Y-49359285D02*
X75457142Y-49430714D01*
X75457142Y-49430714D02*
X75385714Y-49573571D01*
X75385714Y-49573571D02*
X75385714Y-49787857D01*
X75385714Y-49787857D02*
X75457142Y-49930714D01*
X75457142Y-49930714D02*
X75528571Y-50002142D01*
X75528571Y-50002142D02*
X75671428Y-50073571D01*
X75671428Y-50073571D02*
X76242857Y-50073571D01*
X76242857Y-50073571D02*
X76242857Y-48573571D01*
X76242857Y-48573571D02*
X75742857Y-48573571D01*
X75742857Y-48573571D02*
X75600000Y-48645000D01*
X75600000Y-48645000D02*
X75528571Y-48716428D01*
X75528571Y-48716428D02*
X75457142Y-48859285D01*
X75457142Y-48859285D02*
X75457142Y-49002142D01*
X75457142Y-49002142D02*
X75528571Y-49145000D01*
X75528571Y-49145000D02*
X75600000Y-49216428D01*
X75600000Y-49216428D02*
X75742857Y-49287857D01*
X75742857Y-49287857D02*
X76242857Y-49287857D01*
D12*
%TO.P,H3,1,1*%
%TO.N,GND*%
X93000000Y-108000000D03*
%TD*%
%TO.P,H4,1,1*%
%TO.N,GND*%
X70000000Y-108000000D03*
%TD*%
D13*
%TO.P,J1,1,Pin_1*%
%TO.N,GND*%
X80950000Y-50275000D03*
D14*
%TO.P,J1,2,Pin_2*%
%TO.N,+5V*%
X83449999Y-50274999D03*
%TD*%
D15*
%TO.P,IC1,1,+3.3V_1*%
%TO.N,unconnected-(IC1-+3.3V_1-Pad1)*%
X71269999Y-103124999D03*
D16*
%TO.P,IC1,2,+5V_1*%
%TO.N,+5V*%
X68729999Y-103124999D03*
%TO.P,IC1,3,GPIO_2/[I2C]_SDA*%
%TO.N,unconnected-(IC1-GPIO_2{slash}[I2C]_SDA-Pad3)*%
X71269999Y-100584999D03*
%TO.P,IC1,4,+5V_2*%
%TO.N,+5V*%
X68729999Y-100584999D03*
%TO.P,IC1,5,GPIO_3/[I2C]_SCL*%
%TO.N,unconnected-(IC1-GPIO_3{slash}[I2C]_SCL-Pad5)*%
X71269999Y-98044999D03*
%TO.P,IC1,6,GND_1*%
%TO.N,GND*%
X68729999Y-98044999D03*
%TO.P,IC1,7,GPIO_4/GPCLK0*%
%TO.N,unconnected-(IC1-GPIO_4{slash}GPCLK0-Pad7)*%
X71269999Y-95504999D03*
%TO.P,IC1,8,GPIO_14/[UART]_TXD0*%
%TO.N,unconnected-(IC1-GPIO_14{slash}[UART]_TXD0-Pad8)*%
X68729999Y-95504999D03*
%TO.P,IC1,9,GND_2*%
%TO.N,GND*%
X71269999Y-92964999D03*
%TO.P,IC1,10,GPIO_15/[UART]_RXD0*%
%TO.N,unconnected-(IC1-GPIO_15{slash}[UART]_RXD0-Pad10)*%
X68729999Y-92964999D03*
%TO.P,IC1,11,GPIO_17/SPI1_CS1*%
%TO.N,unconnected-(IC1-GPIO_17{slash}SPI1_CS1-Pad11)*%
X71269999Y-90424999D03*
%TO.P,IC1,12,GPIO_18/PWM0/SPI1_CS0*%
%TO.N,unconnected-(IC1-GPIO_18{slash}PWM0{slash}SPI1_CS0-Pad12)*%
X68729999Y-90424999D03*
%TO.P,IC1,13,GPIO27*%
%TO.N,IRQ*%
X71269999Y-87884999D03*
%TO.P,IC1,14,GND_3*%
%TO.N,GND*%
X68729999Y-87884999D03*
%TO.P,IC1,15,GPIO_22*%
%TO.N,CE*%
X71269999Y-85344999D03*
%TO.P,IC1,16,GPIO_23*%
%TO.N,unconnected-(IC1-GPIO_23-Pad16)*%
X68729999Y-85344999D03*
%TO.P,IC1,17,+3.3V_2*%
%TO.N,unconnected-(IC1-+3.3V_2-Pad17)*%
X71269999Y-82804999D03*
%TO.P,IC1,18,GPIO_24*%
%TO.N,unconnected-(IC1-GPIO_24-Pad18)*%
X68729999Y-82804999D03*
%TO.P,IC1,19,GPIO_10/SPI0_MOSI*%
%TO.N,MOSI*%
X71269999Y-80264999D03*
%TO.P,IC1,20,GND_4*%
%TO.N,GND*%
X68729999Y-80264999D03*
%TO.P,IC1,21,GPIO_9/SPI0_MISO*%
%TO.N,MISO*%
X71269999Y-77724999D03*
%TO.P,IC1,22,GPIO_25*%
%TO.N,unconnected-(IC1-GPIO_25-Pad22)*%
X68729999Y-77724999D03*
%TO.P,IC1,23,GPIO_11/SPI0_SCLK*%
%TO.N,SCK*%
X71269999Y-75184999D03*
%TO.P,IC1,24,GPIO_8/SPI0_CE1_N*%
%TO.N,CSN*%
X68729999Y-75184999D03*
%TO.P,IC1,25,GND_5*%
%TO.N,GND*%
X71269999Y-72644999D03*
%TO.P,IC1,26,GPIO_7/SPI0_CE2_N*%
%TO.N,unconnected-(IC1-GPIO_7{slash}SPI0_CE2_N-Pad26)*%
X68729999Y-72644999D03*
%TO.P,IC1,27,DNC_1*%
%TO.N,unconnected-(IC1-DNC_1-Pad27)*%
X71269999Y-70104999D03*
%TO.P,IC1,28,DNC_2*%
%TO.N,unconnected-(IC1-DNC_2-Pad28)*%
X68729999Y-70104999D03*
%TO.P,IC1,29,GPIO5//GPCLK1*%
%TO.N,unconnected-(IC1-GPIO5{slash}{slash}GPCLK1-Pad29)*%
X71269999Y-67564999D03*
%TO.P,IC1,30,GND_6*%
%TO.N,GND*%
X68729999Y-67564999D03*
%TO.P,IC1,31,GPIO6/GPCLK2*%
%TO.N,unconnected-(IC1-GPIO6{slash}GPCLK2-Pad31)*%
X71269999Y-65024999D03*
%TO.P,IC1,32,GPIO12/PWM0*%
%TO.N,unconnected-(IC1-GPIO12{slash}PWM0-Pad32)*%
X68729999Y-65024999D03*
%TO.P,IC1,33,GPIO13/PWM1*%
%TO.N,unconnected-(IC1-GPIO13{slash}PWM1-Pad33)*%
X71269999Y-62484999D03*
%TO.P,IC1,34,GND_7*%
%TO.N,GND*%
X68729999Y-62484999D03*
%TO.P,IC1,35,GPIO19/SPI0_MISO1/PWM1*%
%TO.N,unconnected-(IC1-GPIO19{slash}SPI0_MISO1{slash}PWM1-Pad35)*%
X71269999Y-59944999D03*
%TO.P,IC1,36,GPIO16/SPI1_CS2*%
%TO.N,unconnected-(IC1-GPIO16{slash}SPI1_CS2-Pad36)*%
X68729999Y-59944999D03*
%TO.P,IC1,37,GPIO26*%
%TO.N,unconnected-(IC1-GPIO26-Pad37)*%
X71269999Y-57404999D03*
%TO.P,IC1,38,GPIO20/SPI0_MOSI1*%
%TO.N,unconnected-(IC1-GPIO20{slash}SPI0_MOSI1-Pad38)*%
X68729999Y-57404999D03*
%TO.P,IC1,39,GND_8*%
%TO.N,GND*%
X71269999Y-54864999D03*
%TO.P,IC1,40,GPIO21/SPI0_SCLK1*%
%TO.N,unconnected-(IC1-GPIO21{slash}SPI0_SCLK1-Pad40)*%
X68729999Y-54864999D03*
%TD*%
D15*
%TO.P,U1,1,GND*%
%TO.N,GND*%
X87924999Y-72899999D03*
D17*
%TO.P,U1,2,VCC*%
%TO.N,+3.3V*%
X87925000Y-75440000D03*
%TO.P,U1,3,CE*%
%TO.N,CE*%
X85385000Y-72900000D03*
%TO.P,U1,4,~{CSN}*%
%TO.N,CSN*%
X85385000Y-75440000D03*
%TO.P,U1,5,SCK*%
%TO.N,SCK*%
X82845000Y-72900000D03*
%TO.P,U1,6,MOSI*%
%TO.N,MOSI*%
X82845000Y-75440000D03*
%TO.P,U1,7,MISO*%
%TO.N,MISO*%
X80305000Y-72900000D03*
%TO.P,U1,8,IRQ*%
%TO.N,IRQ*%
X80305000Y-75440000D03*
%TD*%
D12*
%TO.P,H1,1,1*%
%TO.N,GND*%
X70000000Y-50000000D03*
%TD*%
%TO.P,H2,1,1*%
%TO.N,GND*%
X93000000Y-50000000D03*
%TD*%
D18*
%TO.N,GND*%
X80700000Y-57637000D03*
%TO.N,IRQ*%
X73200000Y-84000000D03*
X76600000Y-76750500D03*
D19*
%TO.N,+5V*%
X75100000Y-79300000D03*
X73850000Y-73850000D03*
D18*
%TO.N,GND*%
X80000000Y-68000000D03*
X80000000Y-63000000D03*
X86000000Y-68000000D03*
X86000000Y-63000000D03*
X79000000Y-83200000D03*
X83500000Y-79700000D03*
X83500000Y-83200000D03*
X79000000Y-79700000D03*
%TD*%
D20*
%TO.N,IRQ*%
X73200000Y-83900000D02*
X76600000Y-80500000D01*
D21*
X73200000Y-84000000D02*
X73200000Y-83900000D01*
D20*
X76600000Y-80500000D02*
X76600000Y-76750500D01*
%TO.N,+5V*%
X73850000Y-73850000D02*
X75100000Y-75100000D01*
X75100000Y-75100000D02*
X75100000Y-79300000D01*
%TO.N,CE*%
X71270000Y-85345000D02*
X85555000Y-85345000D01*
X89900000Y-81000000D02*
X89900000Y-71800000D01*
X89900000Y-71800000D02*
X89300000Y-71200000D01*
X86585000Y-71200000D02*
X84985000Y-72800000D01*
X85555000Y-85345000D02*
X89900000Y-81000000D01*
X89300000Y-71200000D02*
X86585000Y-71200000D01*
%TO.N,CSN*%
X67000000Y-54200000D02*
X67000000Y-73455000D01*
X67000000Y-73455000D02*
X68730000Y-75185000D01*
X78886522Y-77186522D02*
X72900000Y-71200000D01*
X67900000Y-53300000D02*
X67000000Y-54200000D01*
X72900000Y-54300000D02*
X71900000Y-53300000D01*
X72900000Y-71200000D02*
X72900000Y-54300000D01*
X83138478Y-77186522D02*
X78886522Y-77186522D01*
X71900000Y-53300000D02*
X67900000Y-53300000D01*
X84985000Y-75340000D02*
X83138478Y-77186522D01*
%TD*%
%TA.AperFunction,Conductor*%
%TO.N,GND*%
G36*
X86712257Y-76086976D02*
G01*
X86756575Y-76125842D01*
X86883395Y-76306961D01*
X86883401Y-76306968D01*
X86886505Y-76311401D01*
X87053599Y-76478495D01*
X87247170Y-76614035D01*
X87461337Y-76713903D01*
X87689592Y-76775063D01*
X87925000Y-76795659D01*
X88160408Y-76775063D01*
X88388663Y-76713903D01*
X88602830Y-76614035D01*
X88796401Y-76478495D01*
X88937818Y-76337077D01*
X88987182Y-76306827D01*
X89044898Y-76302285D01*
X89098385Y-76324440D01*
X89135985Y-76368463D01*
X89149500Y-76424758D01*
X89149500Y-80637771D01*
X89140061Y-80685224D01*
X89113181Y-80725452D01*
X85280451Y-84558181D01*
X85240223Y-84585061D01*
X85192770Y-84594500D01*
X74111347Y-84594500D01*
X74049347Y-84577887D01*
X74003960Y-84532500D01*
X73987347Y-84470500D01*
X74003959Y-84408501D01*
X74027179Y-84368284D01*
X74085674Y-84188256D01*
X74094303Y-84106141D01*
X74105703Y-84065721D01*
X74129940Y-84031425D01*
X77085638Y-81075727D01*
X77099262Y-81063953D01*
X77118530Y-81049610D01*
X77150372Y-81011661D01*
X77157686Y-81003681D01*
X77158267Y-81003099D01*
X77161590Y-80999777D01*
X77180836Y-80975433D01*
X77183058Y-80972706D01*
X77231302Y-80915214D01*
X77234547Y-80908751D01*
X77236440Y-80905874D01*
X77236644Y-80905590D01*
X77236819Y-80905278D01*
X77238624Y-80902350D01*
X77243111Y-80896677D01*
X77274834Y-80828645D01*
X77276349Y-80825514D01*
X77310040Y-80758433D01*
X77311708Y-80751391D01*
X77312878Y-80748178D01*
X77313022Y-80747831D01*
X77313118Y-80747492D01*
X77314199Y-80744227D01*
X77317257Y-80737673D01*
X77332433Y-80664168D01*
X77333194Y-80660734D01*
X77350500Y-80587721D01*
X77350500Y-80580490D01*
X77350902Y-80577051D01*
X77350956Y-80576714D01*
X77350972Y-80576360D01*
X77351271Y-80572933D01*
X77352733Y-80565856D01*
X77350552Y-80490889D01*
X77350500Y-80487283D01*
X77350500Y-77284821D01*
X77367113Y-77222821D01*
X77427179Y-77118784D01*
X77445636Y-77061978D01*
X77479395Y-77009240D01*
X77534619Y-76979722D01*
X77597225Y-76980951D01*
X77651248Y-77012615D01*
X78310789Y-77672156D01*
X78322571Y-77685789D01*
X78332599Y-77699260D01*
X78332603Y-77699264D01*
X78336912Y-77705052D01*
X78374874Y-77736906D01*
X78382836Y-77744203D01*
X78386746Y-77748113D01*
X78411064Y-77767341D01*
X78413859Y-77769618D01*
X78471308Y-77817824D01*
X78477767Y-77821067D01*
X78480656Y-77822968D01*
X78480935Y-77823170D01*
X78481235Y-77823337D01*
X78484177Y-77825151D01*
X78489845Y-77829633D01*
X78496392Y-77832686D01*
X78496394Y-77832687D01*
X78557836Y-77861338D01*
X78561050Y-77862893D01*
X78628089Y-77896562D01*
X78635128Y-77898230D01*
X78638349Y-77899402D01*
X78638693Y-77899545D01*
X78639018Y-77899637D01*
X78642301Y-77900724D01*
X78648850Y-77903779D01*
X78722374Y-77918959D01*
X78725808Y-77919721D01*
X78798801Y-77937022D01*
X78806022Y-77937022D01*
X78809460Y-77937424D01*
X78809799Y-77937478D01*
X78810149Y-77937494D01*
X78813592Y-77937795D01*
X78820667Y-77939256D01*
X78895652Y-77937074D01*
X78899260Y-77937022D01*
X83074771Y-77937022D01*
X83092742Y-77938331D01*
X83096638Y-77938901D01*
X83116501Y-77941811D01*
X83165846Y-77937494D01*
X83176654Y-77937022D01*
X83178578Y-77937022D01*
X83182187Y-77937022D01*
X83213028Y-77933416D01*
X83216509Y-77933061D01*
X83291275Y-77926521D01*
X83298131Y-77924248D01*
X83301521Y-77923549D01*
X83301853Y-77923495D01*
X83302206Y-77923395D01*
X83305549Y-77922602D01*
X83312733Y-77921763D01*
X83383238Y-77896101D01*
X83386596Y-77894934D01*
X83457812Y-77871336D01*
X83463964Y-77867540D01*
X83467085Y-77866086D01*
X83467407Y-77865952D01*
X83467716Y-77865780D01*
X83470793Y-77864234D01*
X83477595Y-77861759D01*
X83540315Y-77820506D01*
X83543210Y-77818662D01*
X83607134Y-77779234D01*
X83612241Y-77774125D01*
X83614954Y-77771981D01*
X83615236Y-77771776D01*
X83615507Y-77771529D01*
X83618136Y-77769322D01*
X83624174Y-77765352D01*
X83675664Y-77710774D01*
X83678109Y-77708257D01*
X84690216Y-76696149D01*
X84732112Y-76668594D01*
X84781501Y-76659885D01*
X84830299Y-76671451D01*
X84921337Y-76713903D01*
X85149592Y-76775063D01*
X85385000Y-76795659D01*
X85620408Y-76775063D01*
X85848663Y-76713903D01*
X86062830Y-76614035D01*
X86256401Y-76478495D01*
X86423495Y-76311401D01*
X86553424Y-76125842D01*
X86597743Y-76086976D01*
X86655000Y-76072965D01*
X86712257Y-76086976D01*
G37*
%TD.AperFunction*%
%TA.AperFunction,Conductor*%
G36*
X72769379Y-72130747D02*
G01*
X73334317Y-72695685D01*
X73363745Y-72742605D01*
X73369810Y-72797656D01*
X73351302Y-72849857D01*
X73311914Y-72888792D01*
X73272910Y-72912942D01*
X73188826Y-72965005D01*
X73188822Y-72965007D01*
X73183959Y-72968019D01*
X73179728Y-72971875D01*
X73179724Y-72971879D01*
X73037476Y-73101554D01*
X73037466Y-73101564D01*
X73033236Y-73105421D01*
X73029787Y-73109987D01*
X73029778Y-73109998D01*
X72913779Y-73263607D01*
X72913776Y-73263611D01*
X72910327Y-73268179D01*
X72907774Y-73273304D01*
X72907772Y-73273309D01*
X72821976Y-73445612D01*
X72819418Y-73450750D01*
X72817850Y-73456258D01*
X72817847Y-73456268D01*
X72765173Y-73641395D01*
X72765170Y-73641406D01*
X72763603Y-73646917D01*
X72763073Y-73652627D01*
X72763073Y-73652632D01*
X72752068Y-73771401D01*
X72744785Y-73850000D01*
X72745314Y-73855709D01*
X72760191Y-74016269D01*
X72763603Y-74053083D01*
X72765171Y-74058594D01*
X72765173Y-74058604D01*
X72817847Y-74243731D01*
X72817849Y-74243737D01*
X72819418Y-74249250D01*
X72849553Y-74309769D01*
X72895231Y-74401505D01*
X72910327Y-74431821D01*
X72913779Y-74436392D01*
X73029778Y-74590001D01*
X73029783Y-74590006D01*
X73033236Y-74594579D01*
X73037472Y-74598440D01*
X73037476Y-74598445D01*
X73139227Y-74691203D01*
X73183959Y-74731981D01*
X73357363Y-74839348D01*
X73547544Y-74913024D01*
X73748024Y-74950500D01*
X73837770Y-74950500D01*
X73885223Y-74959939D01*
X73925451Y-74986819D01*
X74313181Y-75374549D01*
X74340061Y-75414777D01*
X74349500Y-75462230D01*
X74349500Y-78440261D01*
X74338935Y-78490347D01*
X74309039Y-78531897D01*
X74287473Y-78551556D01*
X74287459Y-78551570D01*
X74283236Y-78555421D01*
X74279789Y-78559984D01*
X74279783Y-78559992D01*
X74163779Y-78713607D01*
X74163776Y-78713611D01*
X74160327Y-78718179D01*
X74157774Y-78723304D01*
X74157772Y-78723309D01*
X74072913Y-78893731D01*
X74069418Y-78900750D01*
X74067850Y-78906258D01*
X74067847Y-78906268D01*
X74015173Y-79091395D01*
X74015170Y-79091406D01*
X74013603Y-79096917D01*
X74013073Y-79102627D01*
X74013073Y-79102632D01*
X73995314Y-79294291D01*
X73994785Y-79300000D01*
X73995314Y-79305709D01*
X74003868Y-79398029D01*
X74013603Y-79503083D01*
X74015171Y-79508594D01*
X74015173Y-79508604D01*
X74067847Y-79693731D01*
X74067849Y-79693737D01*
X74069418Y-79699250D01*
X74160327Y-79881821D01*
X74163779Y-79886392D01*
X74279778Y-80040001D01*
X74279783Y-80040006D01*
X74283236Y-80044579D01*
X74287472Y-80048440D01*
X74287476Y-80048445D01*
X74318800Y-80077000D01*
X74433959Y-80181981D01*
X74607363Y-80289348D01*
X74797544Y-80363024D01*
X74998024Y-80400500D01*
X75196247Y-80400500D01*
X75201976Y-80400500D01*
X75344792Y-80373803D01*
X75406983Y-80378120D01*
X75459214Y-80412154D01*
X75488283Y-80467302D01*
X75486843Y-80529626D01*
X75455258Y-80583373D01*
X72899636Y-83138994D01*
X72862391Y-83164592D01*
X72769919Y-83205764D01*
X72701690Y-83215202D01*
X72638951Y-83186775D01*
X72601060Y-83129255D01*
X72599709Y-83060390D01*
X72600221Y-83058477D01*
X72605063Y-83040408D01*
X72625659Y-82805000D01*
X72605063Y-82569592D01*
X72543903Y-82341337D01*
X72444035Y-82127171D01*
X72308495Y-81933599D01*
X72141401Y-81766505D01*
X72136968Y-81763401D01*
X72136961Y-81763395D01*
X71955842Y-81636575D01*
X71916976Y-81592257D01*
X71902965Y-81535000D01*
X71916976Y-81477743D01*
X71955842Y-81433425D01*
X72136961Y-81306604D01*
X72136961Y-81306603D01*
X72141401Y-81303495D01*
X72308495Y-81136401D01*
X72444035Y-80942830D01*
X72543903Y-80728663D01*
X72605063Y-80500408D01*
X72625659Y-80265000D01*
X72605063Y-80029592D01*
X72543903Y-79801337D01*
X72444035Y-79587171D01*
X72308495Y-79393599D01*
X72141401Y-79226505D01*
X72136968Y-79223401D01*
X72136961Y-79223395D01*
X71955842Y-79096575D01*
X71916976Y-79052257D01*
X71902965Y-78995000D01*
X71916976Y-78937743D01*
X71955842Y-78893425D01*
X72136961Y-78766604D01*
X72136961Y-78766603D01*
X72141401Y-78763495D01*
X72308495Y-78596401D01*
X72444035Y-78402830D01*
X72543903Y-78188663D01*
X72605063Y-77960408D01*
X72625659Y-77725000D01*
X72605063Y-77489592D01*
X72556572Y-77308619D01*
X72545305Y-77266569D01*
X72545304Y-77266567D01*
X72543903Y-77261337D01*
X72444035Y-77047171D01*
X72308495Y-76853599D01*
X72141401Y-76686505D01*
X72136968Y-76683401D01*
X72136961Y-76683395D01*
X71955842Y-76556575D01*
X71916976Y-76512257D01*
X71902965Y-76455000D01*
X71916976Y-76397743D01*
X71955842Y-76353425D01*
X72136961Y-76226604D01*
X72136961Y-76226603D01*
X72141401Y-76223495D01*
X72308495Y-76056401D01*
X72444035Y-75862830D01*
X72543903Y-75648663D01*
X72605063Y-75420408D01*
X72625659Y-75185000D01*
X72605063Y-74949592D01*
X72546755Y-74731981D01*
X72545305Y-74726569D01*
X72545304Y-74726567D01*
X72543903Y-74721337D01*
X72444035Y-74507171D01*
X72308495Y-74313599D01*
X72141401Y-74146505D01*
X72136970Y-74143402D01*
X72136966Y-74143399D01*
X71955405Y-74016269D01*
X71916540Y-73971951D01*
X71902529Y-73914694D01*
X71916540Y-73857437D01*
X71955406Y-73813119D01*
X72136638Y-73686219D01*
X72144909Y-73679278D01*
X72304278Y-73519909D01*
X72311215Y-73511643D01*
X72440498Y-73327008D01*
X72445886Y-73317676D01*
X72541143Y-73113397D01*
X72544831Y-73103263D01*
X72596943Y-72908780D01*
X72597311Y-72897551D01*
X72586369Y-72895000D01*
X71144000Y-72895000D01*
X71082000Y-72878387D01*
X71036613Y-72833000D01*
X71020000Y-72771000D01*
X71020000Y-72519000D01*
X71036613Y-72457000D01*
X71082000Y-72411613D01*
X71144000Y-72395000D01*
X72586369Y-72395000D01*
X72597311Y-72392448D01*
X72596943Y-72381219D01*
X72561923Y-72250522D01*
X72561923Y-72186335D01*
X72594017Y-72130747D01*
X72649604Y-72098653D01*
X72713792Y-72098653D01*
X72769379Y-72130747D01*
G37*
%TD.AperFunction*%
%TA.AperFunction,Conductor*%
G36*
X93002854Y-46000632D02*
G01*
X93018811Y-46001369D01*
X93173088Y-46008502D01*
X93369795Y-46018166D01*
X93380787Y-46019201D01*
X93562876Y-46044601D01*
X93563781Y-46044732D01*
X93747261Y-46071949D01*
X93757413Y-46073892D01*
X93938614Y-46116510D01*
X93940023Y-46116852D01*
X94117874Y-46161401D01*
X94127091Y-46164096D01*
X94304478Y-46223550D01*
X94306618Y-46224292D01*
X94478220Y-46285692D01*
X94486519Y-46289004D01*
X94657980Y-46364712D01*
X94660909Y-46366051D01*
X94747263Y-46406892D01*
X94825119Y-46443715D01*
X94832411Y-46447465D01*
X94929135Y-46501341D01*
X94996435Y-46538827D01*
X94999810Y-46540777D01*
X95155371Y-46634017D01*
X95161670Y-46638058D01*
X95316699Y-46744256D01*
X95320459Y-46746935D01*
X95466009Y-46854882D01*
X95471305Y-46859040D01*
X95616009Y-46979200D01*
X95619947Y-46982617D01*
X95754206Y-47104303D01*
X95758590Y-47108478D01*
X95891520Y-47241408D01*
X95895698Y-47245795D01*
X96017375Y-47380045D01*
X96020805Y-47383998D01*
X96140951Y-47528684D01*
X96145124Y-47534000D01*
X96253041Y-47679509D01*
X96255742Y-47683299D01*
X96361940Y-47838328D01*
X96365999Y-47844656D01*
X96459200Y-48000153D01*
X96461171Y-48003563D01*
X96552525Y-48167573D01*
X96556291Y-48174896D01*
X96633947Y-48339089D01*
X96635286Y-48342018D01*
X96710994Y-48513479D01*
X96714311Y-48521791D01*
X96775666Y-48693265D01*
X96776487Y-48695634D01*
X96835894Y-48872881D01*
X96838606Y-48882157D01*
X96883104Y-49059803D01*
X96883526Y-49061543D01*
X96926101Y-49242562D01*
X96928053Y-49252758D01*
X96955257Y-49436156D01*
X96955410Y-49437218D01*
X96980794Y-49619184D01*
X96981834Y-49630232D01*
X96991512Y-49827238D01*
X96991529Y-49827595D01*
X96999368Y-49997145D01*
X96999500Y-50002872D01*
X96999500Y-107997128D01*
X96999368Y-108002855D01*
X96991529Y-108172404D01*
X96991512Y-108172761D01*
X96981834Y-108369766D01*
X96980794Y-108380814D01*
X96955410Y-108562780D01*
X96955257Y-108563842D01*
X96928053Y-108747240D01*
X96926101Y-108757436D01*
X96883526Y-108938455D01*
X96883104Y-108940195D01*
X96838606Y-109117841D01*
X96835894Y-109127117D01*
X96776487Y-109304364D01*
X96775666Y-109306733D01*
X96714311Y-109478207D01*
X96710994Y-109486519D01*
X96635286Y-109657980D01*
X96633947Y-109660909D01*
X96556291Y-109825102D01*
X96552525Y-109832425D01*
X96461171Y-109996435D01*
X96459200Y-109999845D01*
X96365999Y-110155342D01*
X96361940Y-110161670D01*
X96255742Y-110316699D01*
X96253041Y-110320489D01*
X96145135Y-110465984D01*
X96140935Y-110471334D01*
X96020851Y-110615947D01*
X96017331Y-110620004D01*
X95895717Y-110754183D01*
X95891520Y-110758590D01*
X95758590Y-110891520D01*
X95754183Y-110895717D01*
X95620004Y-111017331D01*
X95615947Y-111020851D01*
X95471334Y-111140935D01*
X95465984Y-111145135D01*
X95320489Y-111253041D01*
X95316699Y-111255742D01*
X95161670Y-111361940D01*
X95155342Y-111365999D01*
X94999845Y-111459200D01*
X94996435Y-111461171D01*
X94832425Y-111552525D01*
X94825102Y-111556291D01*
X94660909Y-111633947D01*
X94657980Y-111635286D01*
X94486519Y-111710994D01*
X94478207Y-111714311D01*
X94306733Y-111775666D01*
X94304364Y-111776487D01*
X94127117Y-111835894D01*
X94117841Y-111838606D01*
X93940195Y-111883104D01*
X93938455Y-111883526D01*
X93757436Y-111926101D01*
X93747240Y-111928053D01*
X93563842Y-111955257D01*
X93562780Y-111955410D01*
X93380814Y-111980794D01*
X93369766Y-111981834D01*
X93172931Y-111991503D01*
X93172575Y-111991520D01*
X93007393Y-111999158D01*
X93002854Y-111999368D01*
X92997128Y-111999500D01*
X70002872Y-111999500D01*
X69997145Y-111999368D01*
X69992305Y-111999144D01*
X69827423Y-111991520D01*
X69827067Y-111991503D01*
X69630232Y-111981834D01*
X69619184Y-111980794D01*
X69437218Y-111955410D01*
X69436156Y-111955257D01*
X69252758Y-111928053D01*
X69242562Y-111926101D01*
X69061543Y-111883526D01*
X69059803Y-111883104D01*
X68882157Y-111838606D01*
X68872881Y-111835894D01*
X68695634Y-111776487D01*
X68693265Y-111775666D01*
X68521791Y-111714311D01*
X68513479Y-111710994D01*
X68342018Y-111635286D01*
X68339089Y-111633947D01*
X68174896Y-111556291D01*
X68167573Y-111552525D01*
X68003563Y-111461171D01*
X68000153Y-111459200D01*
X67980648Y-111447509D01*
X67844645Y-111365992D01*
X67838328Y-111361940D01*
X67683299Y-111255742D01*
X67679509Y-111253041D01*
X67534000Y-111145124D01*
X67528684Y-111140951D01*
X67383998Y-111020805D01*
X67380045Y-111017375D01*
X67245795Y-110895698D01*
X67241408Y-110891520D01*
X67108478Y-110758590D01*
X67104303Y-110754206D01*
X66982617Y-110619947D01*
X66979200Y-110616009D01*
X66859040Y-110471305D01*
X66854882Y-110466009D01*
X66746935Y-110320459D01*
X66744256Y-110316699D01*
X66653368Y-110184020D01*
X68174812Y-110184020D01*
X68182499Y-110195346D01*
X68292441Y-110287598D01*
X68298239Y-110291915D01*
X68569565Y-110470369D01*
X68575814Y-110473976D01*
X68866022Y-110619725D01*
X68872661Y-110622588D01*
X69177838Y-110733664D01*
X69184728Y-110735727D01*
X69500768Y-110810630D01*
X69507834Y-110811876D01*
X69830435Y-110849582D01*
X69837605Y-110850000D01*
X70162395Y-110850000D01*
X70169564Y-110849582D01*
X70492165Y-110811876D01*
X70499231Y-110810630D01*
X70815271Y-110735727D01*
X70822161Y-110733664D01*
X71127338Y-110622588D01*
X71133977Y-110619725D01*
X71424185Y-110473976D01*
X71430434Y-110470369D01*
X71701760Y-110291915D01*
X71707558Y-110287598D01*
X71817499Y-110195346D01*
X71825186Y-110184020D01*
X91174812Y-110184020D01*
X91182499Y-110195346D01*
X91292441Y-110287598D01*
X91298239Y-110291915D01*
X91569565Y-110470369D01*
X91575814Y-110473976D01*
X91866022Y-110619725D01*
X91872661Y-110622588D01*
X92177838Y-110733664D01*
X92184728Y-110735727D01*
X92500768Y-110810630D01*
X92507834Y-110811876D01*
X92830435Y-110849582D01*
X92837605Y-110850000D01*
X93162395Y-110850000D01*
X93169564Y-110849582D01*
X93492165Y-110811876D01*
X93499231Y-110810630D01*
X93815271Y-110735727D01*
X93822161Y-110733664D01*
X94127338Y-110622588D01*
X94133977Y-110619725D01*
X94424185Y-110473976D01*
X94430434Y-110470369D01*
X94701760Y-110291915D01*
X94707558Y-110287598D01*
X94817499Y-110195346D01*
X94825186Y-110184020D01*
X94818515Y-110172068D01*
X93011542Y-108365095D01*
X93000000Y-108358431D01*
X92988457Y-108365095D01*
X91181482Y-110172069D01*
X91174812Y-110184020D01*
X71825186Y-110184020D01*
X71818515Y-110172068D01*
X70011542Y-108365095D01*
X70000000Y-108358431D01*
X69988457Y-108365095D01*
X68181482Y-110172069D01*
X68174812Y-110184020D01*
X66653368Y-110184020D01*
X66638058Y-110161670D01*
X66634017Y-110155371D01*
X66540777Y-109999810D01*
X66538827Y-109996435D01*
X66512261Y-109948740D01*
X66447465Y-109832411D01*
X66443715Y-109825119D01*
X66406892Y-109747263D01*
X66366051Y-109660909D01*
X66364712Y-109657980D01*
X66289004Y-109486519D01*
X66285692Y-109478220D01*
X66224292Y-109306618D01*
X66223550Y-109304478D01*
X66164096Y-109127091D01*
X66161401Y-109117874D01*
X66116852Y-108940023D01*
X66116510Y-108938614D01*
X66073892Y-108757413D01*
X66071949Y-108747261D01*
X66044732Y-108563781D01*
X66044588Y-108562780D01*
X66019201Y-108380787D01*
X66018166Y-108369795D01*
X66008480Y-108172611D01*
X66000667Y-108003606D01*
X67145380Y-108003606D01*
X67164262Y-108327812D01*
X67165101Y-108334991D01*
X67221494Y-108654811D01*
X67223156Y-108661824D01*
X67316305Y-108972963D01*
X67318761Y-108979712D01*
X67447402Y-109277934D01*
X67450635Y-109284370D01*
X67613016Y-109565623D01*
X67616982Y-109571654D01*
X67804384Y-109823377D01*
X67812616Y-109830544D01*
X67821798Y-109824647D01*
X69634904Y-108011542D01*
X69641568Y-108000000D01*
X70358431Y-108000000D01*
X70365095Y-108011542D01*
X72178200Y-109824647D01*
X72187382Y-109830544D01*
X72195614Y-109823377D01*
X72383017Y-109571654D01*
X72386983Y-109565623D01*
X72549364Y-109284370D01*
X72552597Y-109277934D01*
X72681238Y-108979712D01*
X72683694Y-108972963D01*
X72776843Y-108661824D01*
X72778505Y-108654811D01*
X72834898Y-108334991D01*
X72835737Y-108327812D01*
X72854620Y-108003606D01*
X90145380Y-108003606D01*
X90164262Y-108327812D01*
X90165101Y-108334991D01*
X90221494Y-108654811D01*
X90223156Y-108661824D01*
X90316305Y-108972963D01*
X90318761Y-108979712D01*
X90447402Y-109277934D01*
X90450635Y-109284370D01*
X90613016Y-109565623D01*
X90616982Y-109571654D01*
X90804384Y-109823377D01*
X90812616Y-109830544D01*
X90821798Y-109824647D01*
X92634904Y-108011542D01*
X92641568Y-108000000D01*
X93358431Y-108000000D01*
X93365095Y-108011542D01*
X95178200Y-109824647D01*
X95187382Y-109830544D01*
X95195614Y-109823377D01*
X95383017Y-109571654D01*
X95386983Y-109565623D01*
X95549364Y-109284370D01*
X95552597Y-109277934D01*
X95681238Y-108979712D01*
X95683694Y-108972963D01*
X95776843Y-108661824D01*
X95778505Y-108654811D01*
X95834898Y-108334991D01*
X95835737Y-108327812D01*
X95854620Y-108003606D01*
X95854620Y-107996394D01*
X95835737Y-107672187D01*
X95834898Y-107665008D01*
X95778505Y-107345188D01*
X95776843Y-107338175D01*
X95683694Y-107027036D01*
X95681238Y-107020287D01*
X95552597Y-106722065D01*
X95549364Y-106715629D01*
X95386983Y-106434376D01*
X95383017Y-106428345D01*
X95195614Y-106176621D01*
X95187382Y-106169454D01*
X95178200Y-106175351D01*
X93365095Y-107988457D01*
X93358431Y-108000000D01*
X92641568Y-108000000D01*
X92634904Y-107988457D01*
X90821798Y-106175351D01*
X90812616Y-106169455D01*
X90804383Y-106176622D01*
X90616982Y-106428344D01*
X90613016Y-106434376D01*
X90450635Y-106715629D01*
X90447402Y-106722065D01*
X90318761Y-107020287D01*
X90316305Y-107027036D01*
X90223156Y-107338175D01*
X90221494Y-107345188D01*
X90165101Y-107665008D01*
X90164262Y-107672187D01*
X90145380Y-107996394D01*
X90145380Y-108003606D01*
X72854620Y-108003606D01*
X72854620Y-107996394D01*
X72835737Y-107672187D01*
X72834898Y-107665008D01*
X72778505Y-107345188D01*
X72776843Y-107338175D01*
X72683694Y-107027036D01*
X72681238Y-107020287D01*
X72552597Y-106722065D01*
X72549364Y-106715629D01*
X72386983Y-106434376D01*
X72383017Y-106428345D01*
X72195614Y-106176621D01*
X72187382Y-106169454D01*
X72178200Y-106175351D01*
X70365095Y-107988457D01*
X70358431Y-108000000D01*
X69641568Y-108000000D01*
X69634904Y-107988457D01*
X67821798Y-106175351D01*
X67812616Y-106169455D01*
X67804383Y-106176622D01*
X67616982Y-106428344D01*
X67613016Y-106434376D01*
X67450635Y-106715629D01*
X67447402Y-106722065D01*
X67318761Y-107020287D01*
X67316305Y-107027036D01*
X67223156Y-107338175D01*
X67221494Y-107345188D01*
X67165101Y-107665008D01*
X67164262Y-107672187D01*
X67145380Y-107996394D01*
X67145380Y-108003606D01*
X66000667Y-108003606D01*
X66000632Y-108002854D01*
X66000500Y-107997128D01*
X66000500Y-105815978D01*
X68174812Y-105815978D01*
X68181482Y-105827929D01*
X69988457Y-107634904D01*
X70000000Y-107641568D01*
X70011542Y-107634904D01*
X71818516Y-105827929D01*
X71825185Y-105815978D01*
X91174812Y-105815978D01*
X91181482Y-105827929D01*
X92988457Y-107634904D01*
X93000000Y-107641568D01*
X93011542Y-107634904D01*
X94818516Y-105827929D01*
X94825186Y-105815977D01*
X94817500Y-105804653D01*
X94707558Y-105712401D01*
X94701760Y-105708084D01*
X94430434Y-105529630D01*
X94424185Y-105526023D01*
X94133977Y-105380274D01*
X94127338Y-105377411D01*
X93822161Y-105266335D01*
X93815271Y-105264272D01*
X93499231Y-105189369D01*
X93492165Y-105188123D01*
X93169564Y-105150417D01*
X93162395Y-105150000D01*
X92837605Y-105150000D01*
X92830435Y-105150417D01*
X92507834Y-105188123D01*
X92500768Y-105189369D01*
X92184728Y-105264272D01*
X92177838Y-105266335D01*
X91872661Y-105377411D01*
X91866022Y-105380274D01*
X91575814Y-105526023D01*
X91569565Y-105529630D01*
X91298241Y-105708083D01*
X91292440Y-105712402D01*
X91182498Y-105804653D01*
X91174812Y-105815978D01*
X71825185Y-105815978D01*
X71825186Y-105815977D01*
X71817500Y-105804653D01*
X71707558Y-105712401D01*
X71701760Y-105708084D01*
X71430434Y-105529630D01*
X71424185Y-105526023D01*
X71133977Y-105380274D01*
X71127338Y-105377411D01*
X70822161Y-105266335D01*
X70815271Y-105264272D01*
X70499231Y-105189369D01*
X70492165Y-105188123D01*
X70169564Y-105150417D01*
X70162395Y-105150000D01*
X69837605Y-105150000D01*
X69830435Y-105150417D01*
X69507834Y-105188123D01*
X69500768Y-105189369D01*
X69184728Y-105264272D01*
X69177838Y-105266335D01*
X68872661Y-105377411D01*
X68866022Y-105380274D01*
X68575814Y-105526023D01*
X68569565Y-105529630D01*
X68298241Y-105708083D01*
X68292440Y-105712402D01*
X68182498Y-105804653D01*
X68174812Y-105815978D01*
X66000500Y-105815978D01*
X66000500Y-73481745D01*
X66011269Y-73440352D01*
X66011245Y-73440256D01*
X66237112Y-73440256D01*
X66248028Y-73470939D01*
X66249028Y-73482370D01*
X66249500Y-73493176D01*
X66249500Y-73498709D01*
X66249916Y-73502272D01*
X66249917Y-73502282D01*
X66253098Y-73529496D01*
X66253464Y-73533082D01*
X66259371Y-73600604D01*
X66259372Y-73600609D01*
X66260001Y-73607797D01*
X66262271Y-73614649D01*
X66262976Y-73618063D01*
X66263028Y-73618384D01*
X66263120Y-73618709D01*
X66263920Y-73622085D01*
X66264759Y-73629255D01*
X66290413Y-73699742D01*
X66291582Y-73703108D01*
X66312913Y-73767479D01*
X66312917Y-73767489D01*
X66315186Y-73774334D01*
X66318971Y-73780472D01*
X66320443Y-73783628D01*
X66320570Y-73783935D01*
X66320729Y-73784220D01*
X66322295Y-73787338D01*
X66324763Y-73794117D01*
X66328727Y-73800144D01*
X66328729Y-73800148D01*
X66365979Y-73856784D01*
X66367916Y-73859824D01*
X66401760Y-73914695D01*
X66407288Y-73923656D01*
X66412392Y-73928760D01*
X66414542Y-73931479D01*
X66414739Y-73931752D01*
X66414973Y-73932007D01*
X66417202Y-73934663D01*
X66421170Y-73940696D01*
X66426423Y-73945652D01*
X66426424Y-73945653D01*
X66475709Y-73992151D01*
X66478296Y-73994664D01*
X66938874Y-74455242D01*
X67357130Y-74873497D01*
X67385971Y-74918767D01*
X67392977Y-74971985D01*
X67374813Y-75179604D01*
X67374341Y-75185000D01*
X67374813Y-75190395D01*
X67392167Y-75388756D01*
X67394937Y-75420408D01*
X67396336Y-75425630D01*
X67396337Y-75425634D01*
X67454694Y-75643430D01*
X67454697Y-75643438D01*
X67456097Y-75648663D01*
X67458385Y-75653570D01*
X67458386Y-75653572D01*
X67553678Y-75857927D01*
X67553681Y-75857933D01*
X67555965Y-75862830D01*
X67559064Y-75867257D01*
X67559066Y-75867259D01*
X67688399Y-76051966D01*
X67688402Y-76051970D01*
X67691505Y-76056401D01*
X67858599Y-76223495D01*
X67863032Y-76226599D01*
X67863038Y-76226604D01*
X68044158Y-76353425D01*
X68083024Y-76397743D01*
X68097035Y-76455000D01*
X68083024Y-76512257D01*
X68044159Y-76556575D01*
X67863041Y-76683395D01*
X67858599Y-76686505D01*
X67854775Y-76690328D01*
X67854769Y-76690334D01*
X67695334Y-76849769D01*
X67695328Y-76849775D01*
X67691505Y-76853599D01*
X67688402Y-76858029D01*
X67688399Y-76858034D01*
X67559073Y-77042731D01*
X67559068Y-77042738D01*
X67555965Y-77047171D01*
X67553677Y-77052077D01*
X67553675Y-77052081D01*
X67458386Y-77256427D01*
X67458383Y-77256432D01*
X67456097Y-77261337D01*
X67454698Y-77266557D01*
X67454694Y-77266569D01*
X67396337Y-77484365D01*
X67396335Y-77484371D01*
X67394937Y-77489592D01*
X67374341Y-77725000D01*
X67374813Y-77730395D01*
X67393254Y-77941181D01*
X67394937Y-77960408D01*
X67396336Y-77965630D01*
X67396337Y-77965634D01*
X67454694Y-78183430D01*
X67454697Y-78183438D01*
X67456097Y-78188663D01*
X67458385Y-78193570D01*
X67458386Y-78193572D01*
X67553678Y-78397927D01*
X67553681Y-78397933D01*
X67555965Y-78402830D01*
X67559064Y-78407257D01*
X67559066Y-78407259D01*
X67688399Y-78591966D01*
X67688402Y-78591970D01*
X67691505Y-78596401D01*
X67858599Y-78763495D01*
X67863031Y-78766598D01*
X67863033Y-78766600D01*
X68044595Y-78893731D01*
X68083460Y-78938049D01*
X68097471Y-78995306D01*
X68083460Y-79052563D01*
X68044595Y-79096881D01*
X67863352Y-79223788D01*
X67855092Y-79230719D01*
X67695719Y-79390092D01*
X67688784Y-79398357D01*
X67559508Y-79582982D01*
X67554110Y-79592332D01*
X67458856Y-79796602D01*
X67455168Y-79806736D01*
X67403056Y-80001219D01*
X67402688Y-80012448D01*
X67413631Y-80015000D01*
X68856000Y-80015000D01*
X68918000Y-80031613D01*
X68963387Y-80077000D01*
X68980000Y-80139000D01*
X68980000Y-80391000D01*
X68963387Y-80453000D01*
X68918000Y-80498387D01*
X68856000Y-80515000D01*
X67413631Y-80515000D01*
X67402688Y-80517551D01*
X67403056Y-80528780D01*
X67455168Y-80723263D01*
X67458856Y-80733397D01*
X67554113Y-80937676D01*
X67559501Y-80947008D01*
X67688784Y-81131643D01*
X67695721Y-81139909D01*
X67855090Y-81299278D01*
X67863356Y-81306215D01*
X68044595Y-81433120D01*
X68083460Y-81477438D01*
X68097471Y-81534695D01*
X68083460Y-81591952D01*
X68044594Y-81636270D01*
X67863034Y-81763399D01*
X67863029Y-81763402D01*
X67858599Y-81766505D01*
X67854775Y-81770328D01*
X67854769Y-81770334D01*
X67695334Y-81929769D01*
X67695328Y-81929775D01*
X67691505Y-81933599D01*
X67688402Y-81938029D01*
X67688399Y-81938034D01*
X67559073Y-82122731D01*
X67559068Y-82122738D01*
X67555965Y-82127171D01*
X67553677Y-82132077D01*
X67553675Y-82132081D01*
X67458386Y-82336427D01*
X67458383Y-82336432D01*
X67456097Y-82341337D01*
X67454698Y-82346557D01*
X67454694Y-82346569D01*
X67396337Y-82564365D01*
X67396335Y-82564371D01*
X67394937Y-82569592D01*
X67374341Y-82805000D01*
X67394937Y-83040408D01*
X67396336Y-83045630D01*
X67396337Y-83045634D01*
X67454694Y-83263430D01*
X67454697Y-83263438D01*
X67456097Y-83268663D01*
X67458385Y-83273570D01*
X67458386Y-83273572D01*
X67553678Y-83477927D01*
X67553681Y-83477933D01*
X67555965Y-83482830D01*
X67559064Y-83487257D01*
X67559066Y-83487259D01*
X67688399Y-83671966D01*
X67688402Y-83671970D01*
X67691505Y-83676401D01*
X67858599Y-83843495D01*
X67863032Y-83846599D01*
X67863038Y-83846604D01*
X68044158Y-83973425D01*
X68083024Y-84017743D01*
X68097035Y-84075000D01*
X68083024Y-84132257D01*
X68044159Y-84176575D01*
X67863041Y-84303395D01*
X67858599Y-84306505D01*
X67854775Y-84310328D01*
X67854769Y-84310334D01*
X67695334Y-84469769D01*
X67695328Y-84469775D01*
X67691505Y-84473599D01*
X67688402Y-84478029D01*
X67688399Y-84478034D01*
X67559073Y-84662731D01*
X67559068Y-84662738D01*
X67555965Y-84667171D01*
X67553677Y-84672077D01*
X67553675Y-84672081D01*
X67458386Y-84876427D01*
X67458383Y-84876432D01*
X67456097Y-84881337D01*
X67454698Y-84886557D01*
X67454694Y-84886569D01*
X67396337Y-85104365D01*
X67396335Y-85104371D01*
X67394937Y-85109592D01*
X67374341Y-85345000D01*
X67394937Y-85580408D01*
X67396336Y-85585630D01*
X67396337Y-85585634D01*
X67454694Y-85803430D01*
X67454697Y-85803438D01*
X67456097Y-85808663D01*
X67458385Y-85813570D01*
X67458386Y-85813572D01*
X67553678Y-86017927D01*
X67553681Y-86017933D01*
X67555965Y-86022830D01*
X67559064Y-86027257D01*
X67559066Y-86027259D01*
X67688399Y-86211966D01*
X67688402Y-86211970D01*
X67691505Y-86216401D01*
X67858599Y-86383495D01*
X67863031Y-86386598D01*
X67863033Y-86386600D01*
X68044595Y-86513731D01*
X68083460Y-86558049D01*
X68097471Y-86615306D01*
X68083460Y-86672563D01*
X68044595Y-86716881D01*
X67863352Y-86843788D01*
X67855092Y-86850719D01*
X67695719Y-87010092D01*
X67688784Y-87018357D01*
X67559508Y-87202982D01*
X67554110Y-87212332D01*
X67458856Y-87416602D01*
X67455168Y-87426736D01*
X67403056Y-87621219D01*
X67402688Y-87632448D01*
X67413631Y-87635000D01*
X68856000Y-87635000D01*
X68918000Y-87651613D01*
X68963387Y-87697000D01*
X68980000Y-87759000D01*
X68980000Y-88011000D01*
X68963387Y-88073000D01*
X68918000Y-88118387D01*
X68856000Y-88135000D01*
X67413631Y-88135000D01*
X67402688Y-88137551D01*
X67403056Y-88148780D01*
X67455168Y-88343263D01*
X67458856Y-88353397D01*
X67554113Y-88557676D01*
X67559501Y-88567008D01*
X67688784Y-88751643D01*
X67695721Y-88759909D01*
X67855090Y-88919278D01*
X67863356Y-88926215D01*
X68044595Y-89053120D01*
X68083460Y-89097438D01*
X68097471Y-89154695D01*
X68083460Y-89211952D01*
X68044594Y-89256270D01*
X67863034Y-89383399D01*
X67863029Y-89383402D01*
X67858599Y-89386505D01*
X67854775Y-89390328D01*
X67854769Y-89390334D01*
X67695334Y-89549769D01*
X67695328Y-89549775D01*
X67691505Y-89553599D01*
X67688402Y-89558029D01*
X67688399Y-89558034D01*
X67559073Y-89742731D01*
X67559068Y-89742738D01*
X67555965Y-89747171D01*
X67553677Y-89752077D01*
X67553675Y-89752081D01*
X67458386Y-89956427D01*
X67458383Y-89956432D01*
X67456097Y-89961337D01*
X67454698Y-89966557D01*
X67454694Y-89966569D01*
X67396337Y-90184365D01*
X67396335Y-90184371D01*
X67394937Y-90189592D01*
X67374341Y-90425000D01*
X67394937Y-90660408D01*
X67396336Y-90665630D01*
X67396337Y-90665634D01*
X67454694Y-90883430D01*
X67454697Y-90883438D01*
X67456097Y-90888663D01*
X67458385Y-90893570D01*
X67458386Y-90893572D01*
X67553678Y-91097927D01*
X67553681Y-91097933D01*
X67555965Y-91102830D01*
X67559064Y-91107257D01*
X67559066Y-91107259D01*
X67688399Y-91291966D01*
X67688402Y-91291970D01*
X67691505Y-91296401D01*
X67858599Y-91463495D01*
X67863032Y-91466599D01*
X67863038Y-91466604D01*
X68044158Y-91593425D01*
X68083024Y-91637743D01*
X68097035Y-91695000D01*
X68083024Y-91752257D01*
X68044159Y-91796575D01*
X67863041Y-91923395D01*
X67858599Y-91926505D01*
X67854775Y-91930328D01*
X67854769Y-91930334D01*
X67695334Y-92089769D01*
X67695328Y-92089775D01*
X67691505Y-92093599D01*
X67688402Y-92098029D01*
X67688399Y-92098034D01*
X67559073Y-92282731D01*
X67559068Y-92282738D01*
X67555965Y-92287171D01*
X67553677Y-92292077D01*
X67553675Y-92292081D01*
X67458386Y-92496427D01*
X67458383Y-92496432D01*
X67456097Y-92501337D01*
X67454698Y-92506557D01*
X67454694Y-92506569D01*
X67396337Y-92724365D01*
X67396335Y-92724371D01*
X67394937Y-92729592D01*
X67374341Y-92965000D01*
X67394937Y-93200408D01*
X67396336Y-93205630D01*
X67396337Y-93205634D01*
X67454694Y-93423430D01*
X67454697Y-93423438D01*
X67456097Y-93428663D01*
X67458385Y-93433570D01*
X67458386Y-93433572D01*
X67553678Y-93637927D01*
X67553681Y-93637933D01*
X67555965Y-93642830D01*
X67559064Y-93647257D01*
X67559066Y-93647259D01*
X67688399Y-93831966D01*
X67688402Y-93831970D01*
X67691505Y-93836401D01*
X67858599Y-94003495D01*
X67863032Y-94006599D01*
X67863038Y-94006604D01*
X68044158Y-94133425D01*
X68083024Y-94177743D01*
X68097035Y-94235000D01*
X68083024Y-94292257D01*
X68044160Y-94336574D01*
X67858599Y-94466505D01*
X67854775Y-94470328D01*
X67854769Y-94470334D01*
X67695334Y-94629769D01*
X67695328Y-94629775D01*
X67691505Y-94633599D01*
X67688402Y-94638029D01*
X67688399Y-94638034D01*
X67559073Y-94822731D01*
X67559068Y-94822738D01*
X67555965Y-94827171D01*
X67553677Y-94832077D01*
X67553675Y-94832081D01*
X67458386Y-95036427D01*
X67458383Y-95036432D01*
X67456097Y-95041337D01*
X67454698Y-95046557D01*
X67454694Y-95046569D01*
X67396337Y-95264365D01*
X67396335Y-95264371D01*
X67394937Y-95269592D01*
X67374341Y-95505000D01*
X67394937Y-95740408D01*
X67396336Y-95745630D01*
X67396337Y-95745634D01*
X67454694Y-95963430D01*
X67454697Y-95963438D01*
X67456097Y-95968663D01*
X67458385Y-95973570D01*
X67458386Y-95973572D01*
X67553678Y-96177927D01*
X67553681Y-96177933D01*
X67555965Y-96182830D01*
X67559064Y-96187257D01*
X67559066Y-96187259D01*
X67688399Y-96371966D01*
X67688402Y-96371970D01*
X67691505Y-96376401D01*
X67858599Y-96543495D01*
X67863031Y-96546598D01*
X67863033Y-96546600D01*
X68044595Y-96673731D01*
X68083460Y-96718049D01*
X68097471Y-96775306D01*
X68083460Y-96832563D01*
X68044595Y-96876881D01*
X67863352Y-97003788D01*
X67855092Y-97010719D01*
X67695719Y-97170092D01*
X67688784Y-97178357D01*
X67559508Y-97362982D01*
X67554110Y-97372332D01*
X67458856Y-97576602D01*
X67455168Y-97586736D01*
X67403056Y-97781219D01*
X67402688Y-97792448D01*
X67413631Y-97795000D01*
X68856000Y-97795000D01*
X68918000Y-97811613D01*
X68963387Y-97857000D01*
X68980000Y-97919000D01*
X68980000Y-98171000D01*
X68963387Y-98233000D01*
X68918000Y-98278387D01*
X68856000Y-98295000D01*
X67413631Y-98295000D01*
X67402688Y-98297551D01*
X67403056Y-98308780D01*
X67455168Y-98503263D01*
X67458856Y-98513397D01*
X67554113Y-98717676D01*
X67559501Y-98727008D01*
X67688784Y-98911643D01*
X67695721Y-98919909D01*
X67855090Y-99079278D01*
X67863356Y-99086215D01*
X68044595Y-99213120D01*
X68083460Y-99257438D01*
X68097471Y-99314695D01*
X68083460Y-99371952D01*
X68044594Y-99416270D01*
X67863034Y-99543399D01*
X67863029Y-99543402D01*
X67858599Y-99546505D01*
X67854775Y-99550328D01*
X67854769Y-99550334D01*
X67695334Y-99709769D01*
X67695328Y-99709775D01*
X67691505Y-99713599D01*
X67688402Y-99718029D01*
X67688399Y-99718034D01*
X67559073Y-99902731D01*
X67559068Y-99902738D01*
X67555965Y-99907171D01*
X67553677Y-99912077D01*
X67553675Y-99912081D01*
X67458386Y-100116427D01*
X67458383Y-100116432D01*
X67456097Y-100121337D01*
X67454698Y-100126557D01*
X67454694Y-100126569D01*
X67396337Y-100344365D01*
X67396335Y-100344371D01*
X67394937Y-100349592D01*
X67374341Y-100585000D01*
X67394937Y-100820408D01*
X67396336Y-100825630D01*
X67396337Y-100825634D01*
X67454694Y-101043430D01*
X67454697Y-101043438D01*
X67456097Y-101048663D01*
X67458385Y-101053570D01*
X67458386Y-101053572D01*
X67553678Y-101257927D01*
X67553681Y-101257933D01*
X67555965Y-101262830D01*
X67559064Y-101267257D01*
X67559066Y-101267259D01*
X67688399Y-101451966D01*
X67688402Y-101451970D01*
X67691505Y-101456401D01*
X67858599Y-101623495D01*
X67863032Y-101626599D01*
X67863038Y-101626604D01*
X68044158Y-101753425D01*
X68083024Y-101797743D01*
X68097035Y-101855000D01*
X68083024Y-101912257D01*
X68044159Y-101956575D01*
X67923619Y-102040978D01*
X67858599Y-102086505D01*
X67854775Y-102090328D01*
X67854769Y-102090334D01*
X67695334Y-102249769D01*
X67695328Y-102249775D01*
X67691505Y-102253599D01*
X67688402Y-102258029D01*
X67688399Y-102258034D01*
X67559073Y-102442731D01*
X67559068Y-102442738D01*
X67555965Y-102447171D01*
X67553677Y-102452077D01*
X67553675Y-102452081D01*
X67458386Y-102656427D01*
X67458383Y-102656432D01*
X67456097Y-102661337D01*
X67454698Y-102666557D01*
X67454694Y-102666569D01*
X67396337Y-102884365D01*
X67396335Y-102884371D01*
X67394937Y-102889592D01*
X67374341Y-103125000D01*
X67394937Y-103360408D01*
X67396336Y-103365630D01*
X67396337Y-103365634D01*
X67454694Y-103583430D01*
X67454697Y-103583438D01*
X67456097Y-103588663D01*
X67458385Y-103593570D01*
X67458386Y-103593572D01*
X67553678Y-103797927D01*
X67553681Y-103797933D01*
X67555965Y-103802830D01*
X67559064Y-103807257D01*
X67559066Y-103807259D01*
X67688399Y-103991966D01*
X67688402Y-103991970D01*
X67691505Y-103996401D01*
X67858599Y-104163495D01*
X67863031Y-104166598D01*
X67863033Y-104166600D01*
X68007260Y-104267589D01*
X68052170Y-104299035D01*
X68266337Y-104398903D01*
X68494592Y-104460063D01*
X68730000Y-104480659D01*
X68965408Y-104460063D01*
X69193663Y-104398903D01*
X69407830Y-104299035D01*
X69601401Y-104163495D01*
X69723329Y-104041566D01*
X69776072Y-104010273D01*
X69837365Y-104008084D01*
X69892210Y-104035537D01*
X69927189Y-104085916D01*
X69976204Y-104217331D01*
X69981518Y-104224430D01*
X69981519Y-104224431D01*
X70037367Y-104299035D01*
X70062454Y-104332546D01*
X70177669Y-104418796D01*
X70312517Y-104469091D01*
X70372127Y-104475500D01*
X72167872Y-104475499D01*
X72227483Y-104469091D01*
X72362331Y-104418796D01*
X72477546Y-104332546D01*
X72563796Y-104217331D01*
X72614091Y-104082483D01*
X72620500Y-104022873D01*
X72620499Y-102227128D01*
X72614091Y-102167517D01*
X72563796Y-102032669D01*
X72477546Y-101917454D01*
X72362331Y-101831204D01*
X72292359Y-101805106D01*
X72230916Y-101782189D01*
X72180537Y-101747210D01*
X72153084Y-101692365D01*
X72155273Y-101631072D01*
X72186566Y-101578329D01*
X72308495Y-101456401D01*
X72444035Y-101262830D01*
X72543903Y-101048663D01*
X72605063Y-100820408D01*
X72625659Y-100585000D01*
X72605063Y-100349592D01*
X72543903Y-100121337D01*
X72444035Y-99907171D01*
X72308495Y-99713599D01*
X72141401Y-99546505D01*
X72136968Y-99543401D01*
X72136961Y-99543395D01*
X71955842Y-99416575D01*
X71916976Y-99372257D01*
X71902965Y-99315000D01*
X71916976Y-99257743D01*
X71955842Y-99213425D01*
X72136961Y-99086604D01*
X72136961Y-99086603D01*
X72141401Y-99083495D01*
X72308495Y-98916401D01*
X72444035Y-98722830D01*
X72543903Y-98508663D01*
X72605063Y-98280408D01*
X72625659Y-98045000D01*
X72605063Y-97809592D01*
X72543903Y-97581337D01*
X72444035Y-97367171D01*
X72308495Y-97173599D01*
X72141401Y-97006505D01*
X72136968Y-97003401D01*
X72136961Y-97003395D01*
X71955842Y-96876575D01*
X71916976Y-96832257D01*
X71902965Y-96775000D01*
X71916976Y-96717743D01*
X71955842Y-96673425D01*
X72136961Y-96546604D01*
X72136961Y-96546603D01*
X72141401Y-96543495D01*
X72308495Y-96376401D01*
X72444035Y-96182830D01*
X72543903Y-95968663D01*
X72605063Y-95740408D01*
X72625659Y-95505000D01*
X72605063Y-95269592D01*
X72543903Y-95041337D01*
X72444035Y-94827171D01*
X72308495Y-94633599D01*
X72141401Y-94466505D01*
X72136970Y-94463402D01*
X72136966Y-94463399D01*
X71955405Y-94336269D01*
X71916540Y-94291951D01*
X71902529Y-94234694D01*
X71916540Y-94177437D01*
X71955406Y-94133119D01*
X72136638Y-94006219D01*
X72144909Y-93999278D01*
X72304278Y-93839909D01*
X72311215Y-93831643D01*
X72440498Y-93647008D01*
X72445886Y-93637676D01*
X72541143Y-93433397D01*
X72544831Y-93423263D01*
X72596943Y-93228780D01*
X72597311Y-93217551D01*
X72586369Y-93215000D01*
X71144000Y-93215000D01*
X71082000Y-93198387D01*
X71036613Y-93153000D01*
X71020000Y-93091000D01*
X71020000Y-92839000D01*
X71036613Y-92777000D01*
X71082000Y-92731613D01*
X71144000Y-92715000D01*
X72586369Y-92715000D01*
X72597311Y-92712448D01*
X72596943Y-92701219D01*
X72544831Y-92506736D01*
X72541143Y-92496602D01*
X72445889Y-92292332D01*
X72440491Y-92282982D01*
X72311215Y-92098357D01*
X72304280Y-92090092D01*
X72144909Y-91930721D01*
X72136643Y-91923784D01*
X71955405Y-91796880D01*
X71916540Y-91752562D01*
X71902529Y-91695305D01*
X71916540Y-91638048D01*
X71955406Y-91593730D01*
X72136961Y-91466604D01*
X72136961Y-91466603D01*
X72141401Y-91463495D01*
X72308495Y-91296401D01*
X72444035Y-91102830D01*
X72543903Y-90888663D01*
X72605063Y-90660408D01*
X72625659Y-90425000D01*
X72605063Y-90189592D01*
X72543903Y-89961337D01*
X72444035Y-89747171D01*
X72308495Y-89553599D01*
X72141401Y-89386505D01*
X72136968Y-89383401D01*
X72136961Y-89383395D01*
X71955842Y-89256575D01*
X71916976Y-89212257D01*
X71902965Y-89155000D01*
X71916976Y-89097743D01*
X71955842Y-89053425D01*
X72136961Y-88926604D01*
X72136961Y-88926603D01*
X72141401Y-88923495D01*
X72308495Y-88756401D01*
X72444035Y-88562830D01*
X72543903Y-88348663D01*
X72605063Y-88120408D01*
X72625659Y-87885000D01*
X72605063Y-87649592D01*
X72543903Y-87421337D01*
X72444035Y-87207171D01*
X72308495Y-87013599D01*
X72141401Y-86846505D01*
X72136968Y-86843401D01*
X72136961Y-86843395D01*
X71955842Y-86716575D01*
X71916976Y-86672257D01*
X71902965Y-86615000D01*
X71916976Y-86557743D01*
X71955842Y-86513425D01*
X72136961Y-86386604D01*
X72136961Y-86386603D01*
X72141401Y-86383495D01*
X72308495Y-86216401D01*
X72356126Y-86148376D01*
X72400445Y-86109511D01*
X72457702Y-86095500D01*
X85491293Y-86095500D01*
X85509264Y-86096809D01*
X85513160Y-86097379D01*
X85533023Y-86100289D01*
X85582368Y-86095972D01*
X85593176Y-86095500D01*
X85595100Y-86095500D01*
X85598709Y-86095500D01*
X85629550Y-86091894D01*
X85633031Y-86091539D01*
X85707797Y-86084999D01*
X85714653Y-86082726D01*
X85718043Y-86082027D01*
X85718375Y-86081973D01*
X85718728Y-86081873D01*
X85722071Y-86081080D01*
X85729255Y-86080241D01*
X85799760Y-86054579D01*
X85803118Y-86053412D01*
X85874334Y-86029814D01*
X85880486Y-86026018D01*
X85883607Y-86024564D01*
X85883929Y-86024430D01*
X85884238Y-86024258D01*
X85887315Y-86022712D01*
X85894117Y-86020237D01*
X85956837Y-85978984D01*
X85959732Y-85977140D01*
X86023656Y-85937712D01*
X86028763Y-85932603D01*
X86031476Y-85930459D01*
X86031758Y-85930254D01*
X86032029Y-85930007D01*
X86034659Y-85927799D01*
X86040696Y-85923830D01*
X86092185Y-85869253D01*
X86094630Y-85866736D01*
X90385642Y-81575724D01*
X90399266Y-81563950D01*
X90418530Y-81549610D01*
X90450366Y-81511667D01*
X90457680Y-81503688D01*
X90458264Y-81503103D01*
X90461591Y-81499777D01*
X90480833Y-81475439D01*
X90483090Y-81472670D01*
X90526654Y-81420753D01*
X90526653Y-81420753D01*
X90531302Y-81415214D01*
X90534548Y-81408748D01*
X90536436Y-81405879D01*
X90536645Y-81405589D01*
X90536819Y-81405278D01*
X90538624Y-81402350D01*
X90543111Y-81396677D01*
X90574834Y-81328645D01*
X90576349Y-81325514D01*
X90610040Y-81258433D01*
X90611708Y-81251391D01*
X90612878Y-81248178D01*
X90613022Y-81247830D01*
X90613118Y-81247492D01*
X90614199Y-81244227D01*
X90617257Y-81237673D01*
X90632450Y-81164088D01*
X90633186Y-81160771D01*
X90650500Y-81087721D01*
X90650500Y-81080489D01*
X90650900Y-81077067D01*
X90650957Y-81076714D01*
X90650972Y-81076374D01*
X90651273Y-81072931D01*
X90652734Y-81065856D01*
X90650552Y-80990870D01*
X90650500Y-80987263D01*
X90650500Y-71863707D01*
X90651809Y-71845736D01*
X90652297Y-71842396D01*
X90655289Y-71821977D01*
X90650971Y-71772633D01*
X90650500Y-71761827D01*
X90650500Y-71759902D01*
X90650500Y-71756291D01*
X90646894Y-71725443D01*
X90646537Y-71721956D01*
X90639998Y-71647203D01*
X90637724Y-71640341D01*
X90637027Y-71636965D01*
X90636970Y-71636613D01*
X90636875Y-71636277D01*
X90636079Y-71632919D01*
X90635241Y-71625745D01*
X90609567Y-71555207D01*
X90608399Y-71551843D01*
X90604182Y-71539117D01*
X90584814Y-71480666D01*
X90581026Y-71474524D01*
X90579557Y-71471373D01*
X90579431Y-71471070D01*
X90579261Y-71470765D01*
X90577709Y-71467675D01*
X90575237Y-71460883D01*
X90534019Y-71398215D01*
X90532087Y-71395181D01*
X90492712Y-71331344D01*
X90487604Y-71326236D01*
X90485459Y-71323523D01*
X90485257Y-71323244D01*
X90485022Y-71322987D01*
X90482796Y-71320334D01*
X90478830Y-71314304D01*
X90424290Y-71262848D01*
X90421703Y-71260335D01*
X89875729Y-70714361D01*
X89863947Y-70700727D01*
X89853925Y-70687265D01*
X89853921Y-70687261D01*
X89849610Y-70681470D01*
X89842763Y-70675725D01*
X89811666Y-70649631D01*
X89803691Y-70642323D01*
X89802329Y-70640961D01*
X89799777Y-70638409D01*
X89796953Y-70636176D01*
X89796944Y-70636168D01*
X89775445Y-70619170D01*
X89772674Y-70616913D01*
X89715214Y-70568698D01*
X89708760Y-70565456D01*
X89705859Y-70563548D01*
X89705588Y-70563352D01*
X89705292Y-70563187D01*
X89702339Y-70561366D01*
X89696677Y-70556889D01*
X89690134Y-70553838D01*
X89690131Y-70553836D01*
X89628692Y-70525186D01*
X89625446Y-70523615D01*
X89620205Y-70520983D01*
X89558433Y-70489960D01*
X89551409Y-70488295D01*
X89548151Y-70487109D01*
X89547832Y-70486977D01*
X89547504Y-70486884D01*
X89544218Y-70485795D01*
X89537673Y-70482743D01*
X89530604Y-70481283D01*
X89530600Y-70481282D01*
X89464212Y-70467574D01*
X89460691Y-70466794D01*
X89394741Y-70451163D01*
X89394734Y-70451162D01*
X89387721Y-70449500D01*
X89380510Y-70449500D01*
X89377061Y-70449097D01*
X89376727Y-70449043D01*
X89376374Y-70449028D01*
X89372929Y-70448726D01*
X89365856Y-70447266D01*
X89358638Y-70447476D01*
X89290870Y-70449448D01*
X89287263Y-70449500D01*
X86648707Y-70449500D01*
X86630736Y-70448191D01*
X86614126Y-70445758D01*
X86614124Y-70445757D01*
X86606977Y-70444711D01*
X86599784Y-70445340D01*
X86599778Y-70445340D01*
X86557631Y-70449028D01*
X86546824Y-70449500D01*
X86541291Y-70449500D01*
X86537730Y-70449916D01*
X86537715Y-70449917D01*
X86510501Y-70453098D01*
X86506916Y-70453464D01*
X86439393Y-70459371D01*
X86439385Y-70459372D01*
X86432203Y-70460001D01*
X86425352Y-70462270D01*
X86421935Y-70462976D01*
X86421619Y-70463027D01*
X86421295Y-70463119D01*
X86417913Y-70463920D01*
X86410745Y-70464759D01*
X86403968Y-70467225D01*
X86403957Y-70467228D01*
X86340231Y-70490421D01*
X86336831Y-70491603D01*
X86306863Y-70501533D01*
X86265666Y-70515186D01*
X86259528Y-70518971D01*
X86256367Y-70520445D01*
X86256061Y-70520571D01*
X86255781Y-70520728D01*
X86252659Y-70522296D01*
X86245883Y-70524763D01*
X86239855Y-70528727D01*
X86239854Y-70528728D01*
X86183220Y-70565976D01*
X86180182Y-70567911D01*
X86122492Y-70603495D01*
X86122483Y-70603501D01*
X86116345Y-70607288D01*
X86111243Y-70612389D01*
X86108504Y-70614555D01*
X86108239Y-70614745D01*
X86107995Y-70614970D01*
X86105331Y-70617205D01*
X86099304Y-70621170D01*
X86094355Y-70626414D01*
X86094353Y-70626417D01*
X86047833Y-70675725D01*
X86045321Y-70678310D01*
X85185521Y-71538110D01*
X85129933Y-71570204D01*
X84926569Y-71624694D01*
X84926557Y-71624698D01*
X84921337Y-71626097D01*
X84916432Y-71628383D01*
X84916427Y-71628386D01*
X84712081Y-71723675D01*
X84712077Y-71723677D01*
X84707171Y-71725965D01*
X84702738Y-71729068D01*
X84702731Y-71729073D01*
X84518034Y-71858399D01*
X84518029Y-71858402D01*
X84513599Y-71861505D01*
X84509775Y-71865328D01*
X84509769Y-71865334D01*
X84350334Y-72024769D01*
X84350328Y-72024775D01*
X84346505Y-72028599D01*
X84343402Y-72033029D01*
X84343399Y-72033034D01*
X84216575Y-72214159D01*
X84172257Y-72253025D01*
X84115000Y-72267036D01*
X84057743Y-72253025D01*
X84013425Y-72214159D01*
X83886600Y-72033034D01*
X83883495Y-72028599D01*
X83716401Y-71861505D01*
X83711970Y-71858402D01*
X83711966Y-71858399D01*
X83527259Y-71729066D01*
X83527257Y-71729064D01*
X83522830Y-71725965D01*
X83517933Y-71723681D01*
X83517927Y-71723678D01*
X83313572Y-71628386D01*
X83313570Y-71628385D01*
X83308663Y-71626097D01*
X83303438Y-71624697D01*
X83303430Y-71624694D01*
X83085634Y-71566337D01*
X83085630Y-71566336D01*
X83080408Y-71564937D01*
X83075020Y-71564465D01*
X83075017Y-71564465D01*
X82850395Y-71544813D01*
X82845000Y-71544341D01*
X82839605Y-71544813D01*
X82614982Y-71564465D01*
X82614977Y-71564465D01*
X82609592Y-71564937D01*
X82604371Y-71566335D01*
X82604365Y-71566337D01*
X82386569Y-71624694D01*
X82386557Y-71624698D01*
X82381337Y-71626097D01*
X82376432Y-71628383D01*
X82376427Y-71628386D01*
X82172081Y-71723675D01*
X82172077Y-71723677D01*
X82167171Y-71725965D01*
X82162738Y-71729068D01*
X82162731Y-71729073D01*
X81978034Y-71858399D01*
X81978029Y-71858402D01*
X81973599Y-71861505D01*
X81969775Y-71865328D01*
X81969769Y-71865334D01*
X81810334Y-72024769D01*
X81810328Y-72024775D01*
X81806505Y-72028599D01*
X81803402Y-72033029D01*
X81803399Y-72033034D01*
X81676575Y-72214159D01*
X81632257Y-72253025D01*
X81575000Y-72267036D01*
X81517743Y-72253025D01*
X81473425Y-72214159D01*
X81346600Y-72033034D01*
X81343495Y-72028599D01*
X81176401Y-71861505D01*
X81171970Y-71858402D01*
X81171966Y-71858399D01*
X80987259Y-71729066D01*
X80987257Y-71729064D01*
X80982830Y-71725965D01*
X80977933Y-71723681D01*
X80977927Y-71723678D01*
X80773572Y-71628386D01*
X80773570Y-71628385D01*
X80768663Y-71626097D01*
X80763438Y-71624697D01*
X80763430Y-71624694D01*
X80545634Y-71566337D01*
X80545630Y-71566336D01*
X80540408Y-71564937D01*
X80535020Y-71564465D01*
X80535017Y-71564465D01*
X80310395Y-71544813D01*
X80305000Y-71544341D01*
X80299605Y-71544813D01*
X80074982Y-71564465D01*
X80074977Y-71564465D01*
X80069592Y-71564937D01*
X80064371Y-71566335D01*
X80064365Y-71566337D01*
X79846569Y-71624694D01*
X79846557Y-71624698D01*
X79841337Y-71626097D01*
X79836432Y-71628383D01*
X79836427Y-71628386D01*
X79632081Y-71723675D01*
X79632077Y-71723677D01*
X79627171Y-71725965D01*
X79622738Y-71729068D01*
X79622731Y-71729073D01*
X79438034Y-71858399D01*
X79438029Y-71858402D01*
X79433599Y-71861505D01*
X79429775Y-71865328D01*
X79429769Y-71865334D01*
X79270334Y-72024769D01*
X79270328Y-72024775D01*
X79266505Y-72028599D01*
X79263402Y-72033029D01*
X79263399Y-72033034D01*
X79134073Y-72217731D01*
X79134068Y-72217738D01*
X79130965Y-72222171D01*
X79128677Y-72227077D01*
X79128675Y-72227081D01*
X79033386Y-72431427D01*
X79033383Y-72431432D01*
X79031097Y-72436337D01*
X79029698Y-72441557D01*
X79029694Y-72441569D01*
X78971337Y-72659365D01*
X78971335Y-72659371D01*
X78969937Y-72664592D01*
X78969465Y-72669977D01*
X78969465Y-72669982D01*
X78949813Y-72894605D01*
X78949341Y-72900000D01*
X78949813Y-72905395D01*
X78967124Y-73103263D01*
X78969937Y-73135408D01*
X78971336Y-73140630D01*
X78971337Y-73140634D01*
X79029694Y-73358430D01*
X79029697Y-73358438D01*
X79031097Y-73363663D01*
X79033385Y-73368570D01*
X79033386Y-73368572D01*
X79128678Y-73572927D01*
X79128681Y-73572933D01*
X79130965Y-73577830D01*
X79134064Y-73582257D01*
X79134066Y-73582259D01*
X79263399Y-73766966D01*
X79263402Y-73766970D01*
X79266505Y-73771401D01*
X79433599Y-73938495D01*
X79438032Y-73941599D01*
X79438038Y-73941604D01*
X79619158Y-74068425D01*
X79658024Y-74112743D01*
X79672035Y-74170000D01*
X79658024Y-74227257D01*
X79619159Y-74271575D01*
X79438041Y-74398395D01*
X79433599Y-74401505D01*
X79429775Y-74405328D01*
X79429769Y-74405334D01*
X79270334Y-74564769D01*
X79270328Y-74564775D01*
X79266505Y-74568599D01*
X79263402Y-74573029D01*
X79263399Y-74573034D01*
X79134073Y-74757731D01*
X79134068Y-74757738D01*
X79130965Y-74762171D01*
X79128677Y-74767077D01*
X79128675Y-74767081D01*
X79033386Y-74971427D01*
X79033383Y-74971432D01*
X79031097Y-74976337D01*
X79029698Y-74981557D01*
X79029694Y-74981569D01*
X78971337Y-75199365D01*
X78971335Y-75199371D01*
X78969937Y-75204592D01*
X78969465Y-75209977D01*
X78969465Y-75209982D01*
X78955067Y-75374549D01*
X78949341Y-75440000D01*
X78949813Y-75445395D01*
X78968026Y-75653572D01*
X78969937Y-75675408D01*
X78971336Y-75680630D01*
X78971337Y-75680634D01*
X79029694Y-75898430D01*
X79029697Y-75898438D01*
X79031097Y-75903663D01*
X79033386Y-75908572D01*
X79033388Y-75908577D01*
X79053742Y-75952227D01*
X79064436Y-76019743D01*
X79037726Y-76082667D01*
X78981730Y-76121875D01*
X78913466Y-76125453D01*
X78853679Y-76092312D01*
X76413999Y-73652632D01*
X73686819Y-70925451D01*
X73659939Y-70885223D01*
X73650500Y-70837770D01*
X73650500Y-54363707D01*
X73651809Y-54345736D01*
X73652297Y-54342396D01*
X73655289Y-54321977D01*
X73650972Y-54272631D01*
X73650500Y-54261824D01*
X73650500Y-54259901D01*
X73650500Y-54256291D01*
X73646903Y-54225520D01*
X73646536Y-54221929D01*
X73643495Y-54187171D01*
X73639999Y-54147203D01*
X73637726Y-54140345D01*
X73637027Y-54136957D01*
X73636972Y-54136619D01*
X73636878Y-54136286D01*
X73636079Y-54132915D01*
X73635241Y-54125745D01*
X73627783Y-54105255D01*
X73609592Y-54055274D01*
X73608408Y-54051868D01*
X73603079Y-54035787D01*
X73584814Y-53980666D01*
X73581019Y-53974513D01*
X73579564Y-53971393D01*
X73579430Y-53971069D01*
X73579259Y-53970763D01*
X73577710Y-53967680D01*
X73575237Y-53960883D01*
X73534001Y-53898188D01*
X73532086Y-53895181D01*
X73496504Y-53837492D01*
X73496501Y-53837489D01*
X73492712Y-53831345D01*
X73487605Y-53826238D01*
X73485463Y-53823529D01*
X73485257Y-53823244D01*
X73485027Y-53822993D01*
X73482796Y-53820335D01*
X73478830Y-53814304D01*
X73424273Y-53762832D01*
X73421686Y-53760319D01*
X72475729Y-52814361D01*
X72463947Y-52800727D01*
X72453925Y-52787265D01*
X72453921Y-52787261D01*
X72449610Y-52781470D01*
X72411667Y-52749631D01*
X72403691Y-52742323D01*
X72402329Y-52740961D01*
X72399777Y-52738409D01*
X72396953Y-52736176D01*
X72396944Y-52736168D01*
X72375445Y-52719170D01*
X72372674Y-52716913D01*
X72315214Y-52668698D01*
X72308760Y-52665456D01*
X72305859Y-52663548D01*
X72305588Y-52663352D01*
X72305292Y-52663187D01*
X72302339Y-52661366D01*
X72296677Y-52656889D01*
X72290134Y-52653838D01*
X72290131Y-52653836D01*
X72228692Y-52625186D01*
X72225446Y-52623615D01*
X72220207Y-52620984D01*
X72158433Y-52589960D01*
X72151409Y-52588295D01*
X72148151Y-52587109D01*
X72147832Y-52586977D01*
X72147504Y-52586884D01*
X72144218Y-52585795D01*
X72137673Y-52582743D01*
X72130604Y-52581283D01*
X72130600Y-52581282D01*
X72064212Y-52567574D01*
X72060691Y-52566794D01*
X71994741Y-52551163D01*
X71994734Y-52551162D01*
X71987721Y-52549500D01*
X71980510Y-52549500D01*
X71977061Y-52549097D01*
X71976727Y-52549043D01*
X71976374Y-52549028D01*
X71972929Y-52548726D01*
X71965856Y-52547266D01*
X71958638Y-52547476D01*
X71890870Y-52549448D01*
X71887263Y-52549500D01*
X71724309Y-52549500D01*
X71663563Y-52533601D01*
X71618394Y-52489982D01*
X71600385Y-52429827D01*
X71614154Y-52368563D01*
X71656170Y-52321899D01*
X71701771Y-52291906D01*
X71707558Y-52287598D01*
X71817499Y-52195346D01*
X71825186Y-52184020D01*
X91174812Y-52184020D01*
X91182499Y-52195346D01*
X91292441Y-52287598D01*
X91298239Y-52291915D01*
X91569565Y-52470369D01*
X91575814Y-52473976D01*
X91866022Y-52619725D01*
X91872661Y-52622588D01*
X92177838Y-52733664D01*
X92184728Y-52735727D01*
X92500768Y-52810630D01*
X92507834Y-52811876D01*
X92830435Y-52849582D01*
X92837605Y-52850000D01*
X93162395Y-52850000D01*
X93169564Y-52849582D01*
X93492165Y-52811876D01*
X93499231Y-52810630D01*
X93815271Y-52735727D01*
X93822161Y-52733664D01*
X94127338Y-52622588D01*
X94133977Y-52619725D01*
X94424185Y-52473976D01*
X94430434Y-52470369D01*
X94701760Y-52291915D01*
X94707558Y-52287598D01*
X94817499Y-52195346D01*
X94825186Y-52184020D01*
X94818515Y-52172068D01*
X93011542Y-50365095D01*
X93000000Y-50358431D01*
X92988457Y-50365095D01*
X91181482Y-52172069D01*
X91174812Y-52184020D01*
X71825186Y-52184020D01*
X71818515Y-52172068D01*
X70011542Y-50365095D01*
X70000000Y-50358431D01*
X69988457Y-50365095D01*
X68181482Y-52172069D01*
X68174812Y-52184020D01*
X68182499Y-52195346D01*
X68292441Y-52287598D01*
X68298228Y-52291906D01*
X68343830Y-52321899D01*
X68385846Y-52368563D01*
X68399615Y-52429827D01*
X68381606Y-52489982D01*
X68336437Y-52533601D01*
X68275691Y-52549500D01*
X67963707Y-52549500D01*
X67945736Y-52548191D01*
X67929126Y-52545758D01*
X67929124Y-52545757D01*
X67921977Y-52544711D01*
X67914785Y-52545340D01*
X67914778Y-52545340D01*
X67872634Y-52549028D01*
X67861827Y-52549500D01*
X67856291Y-52549500D01*
X67852717Y-52549917D01*
X67852711Y-52549918D01*
X67825487Y-52553099D01*
X67821906Y-52553465D01*
X67754397Y-52559372D01*
X67754392Y-52559372D01*
X67747203Y-52560002D01*
X67740351Y-52562271D01*
X67736951Y-52562974D01*
X67736611Y-52563029D01*
X67736304Y-52563116D01*
X67732904Y-52563921D01*
X67725745Y-52564759D01*
X67718971Y-52567224D01*
X67718964Y-52567226D01*
X67655245Y-52590417D01*
X67651842Y-52591600D01*
X67587511Y-52612917D01*
X67587507Y-52612918D01*
X67580665Y-52615186D01*
X67574528Y-52618970D01*
X67571357Y-52620449D01*
X67571062Y-52620571D01*
X67570772Y-52620733D01*
X67567662Y-52622294D01*
X67560883Y-52624763D01*
X67554852Y-52628729D01*
X67554853Y-52628729D01*
X67498235Y-52665966D01*
X67495197Y-52667901D01*
X67437487Y-52703498D01*
X67437481Y-52703502D01*
X67431344Y-52707288D01*
X67426246Y-52712385D01*
X67423503Y-52714554D01*
X67423247Y-52714739D01*
X67422997Y-52714968D01*
X67420330Y-52717205D01*
X67414304Y-52721170D01*
X67400570Y-52735727D01*
X67362849Y-52775708D01*
X67360337Y-52778293D01*
X66514358Y-53624272D01*
X66500730Y-53636050D01*
X66487263Y-53646076D01*
X66487257Y-53646081D01*
X66481470Y-53650390D01*
X66476832Y-53655916D01*
X66476830Y-53655919D01*
X66449633Y-53688330D01*
X66442350Y-53696280D01*
X66440969Y-53697661D01*
X66440955Y-53697676D01*
X66438409Y-53700223D01*
X66436173Y-53703050D01*
X66436171Y-53703053D01*
X66419176Y-53724546D01*
X66416902Y-53727337D01*
X66373339Y-53779254D01*
X66373335Y-53779258D01*
X66368698Y-53784786D01*
X66365460Y-53791230D01*
X66363537Y-53794155D01*
X66363352Y-53794411D01*
X66363192Y-53794698D01*
X66361363Y-53797663D01*
X66356889Y-53803323D01*
X66353839Y-53809862D01*
X66353838Y-53809865D01*
X66325192Y-53871294D01*
X66323623Y-53874536D01*
X66293196Y-53935122D01*
X66293194Y-53935127D01*
X66289960Y-53941567D01*
X66288296Y-53948584D01*
X66287109Y-53951847D01*
X66286977Y-53952163D01*
X66286888Y-53952480D01*
X66285791Y-53955787D01*
X66282743Y-53962327D01*
X66281284Y-53969390D01*
X66281283Y-53969395D01*
X66267574Y-54035787D01*
X66266794Y-54039306D01*
X66251164Y-54105255D01*
X66251163Y-54105260D01*
X66249500Y-54112279D01*
X66249500Y-54119491D01*
X66249097Y-54122939D01*
X66249043Y-54123273D01*
X66249028Y-54123625D01*
X66248726Y-54127071D01*
X66247266Y-54134144D01*
X66247348Y-54136964D01*
X66241832Y-54152468D01*
X66248448Y-54174764D01*
X66249448Y-54209130D01*
X66249500Y-54212737D01*
X66249500Y-73391293D01*
X66248191Y-73409264D01*
X66247191Y-73416091D01*
X66237112Y-73440256D01*
X66011245Y-73440256D01*
X66000500Y-73398120D01*
X66000500Y-54178371D01*
X66007610Y-54151575D01*
X66000500Y-54124244D01*
X66000500Y-50003606D01*
X67145380Y-50003606D01*
X67164262Y-50327812D01*
X67165101Y-50334991D01*
X67221494Y-50654811D01*
X67223156Y-50661824D01*
X67316305Y-50972963D01*
X67318761Y-50979712D01*
X67447402Y-51277934D01*
X67450635Y-51284370D01*
X67613016Y-51565623D01*
X67616982Y-51571654D01*
X67804384Y-51823377D01*
X67812616Y-51830544D01*
X67821798Y-51824647D01*
X69634904Y-50011542D01*
X69641568Y-50000000D01*
X69641567Y-49999999D01*
X70358431Y-49999999D01*
X70365095Y-50011542D01*
X72178200Y-51824647D01*
X72187382Y-51830544D01*
X72195614Y-51823377D01*
X72383017Y-51571654D01*
X72386983Y-51565623D01*
X72549364Y-51284370D01*
X72552597Y-51277934D01*
X72681238Y-50979712D01*
X72683694Y-50972963D01*
X72776843Y-50661824D01*
X72778505Y-50654811D01*
X72834898Y-50334991D01*
X72835737Y-50327812D01*
X72854620Y-50003606D01*
X72854620Y-49996394D01*
X72835737Y-49672187D01*
X72834898Y-49665008D01*
X72778505Y-49345188D01*
X72776843Y-49338175D01*
X72683694Y-49027036D01*
X72681238Y-49020287D01*
X72552597Y-48722065D01*
X72549364Y-48715629D01*
X72386983Y-48434376D01*
X72383017Y-48428345D01*
X72195614Y-48176621D01*
X72187382Y-48169454D01*
X72178200Y-48175351D01*
X70365095Y-49988457D01*
X70358431Y-49999999D01*
X69641567Y-49999999D01*
X69634904Y-49988457D01*
X67821798Y-48175351D01*
X67812616Y-48169455D01*
X67804383Y-48176622D01*
X67616982Y-48428344D01*
X67613016Y-48434376D01*
X67450635Y-48715629D01*
X67447402Y-48722065D01*
X67318761Y-49020287D01*
X67316305Y-49027036D01*
X67223156Y-49338175D01*
X67221494Y-49345188D01*
X67165101Y-49665008D01*
X67164262Y-49672187D01*
X67145380Y-49996394D01*
X67145380Y-50003606D01*
X66000500Y-50003606D01*
X66000500Y-50002872D01*
X66000632Y-49997146D01*
X66005846Y-49884365D01*
X66008490Y-49827168D01*
X66018166Y-49630200D01*
X66019200Y-49619217D01*
X66044611Y-49437054D01*
X66044722Y-49436286D01*
X66071950Y-49252729D01*
X66073890Y-49242595D01*
X66116526Y-49061318D01*
X66116837Y-49060037D01*
X66161405Y-48882111D01*
X66164091Y-48872922D01*
X66223572Y-48695457D01*
X66224270Y-48693442D01*
X66285699Y-48521759D01*
X66288996Y-48513497D01*
X66364713Y-48342015D01*
X66366051Y-48339089D01*
X66443727Y-48174855D01*
X66447452Y-48167612D01*
X66538864Y-48003497D01*
X66540745Y-48000243D01*
X66634036Y-47844598D01*
X66638034Y-47838363D01*
X66653368Y-47815978D01*
X68174812Y-47815978D01*
X68181482Y-47827929D01*
X69988457Y-49634904D01*
X70000000Y-49641568D01*
X70011542Y-49634904D01*
X71818516Y-47827929D01*
X71825186Y-47815977D01*
X71817500Y-47804653D01*
X71707558Y-47712401D01*
X71701760Y-47708084D01*
X71430434Y-47529630D01*
X71424185Y-47526023D01*
X71243371Y-47435214D01*
X73935214Y-47435214D01*
X73935214Y-51114786D01*
X77298460Y-51114786D01*
X77314786Y-51114786D01*
X77314786Y-51071829D01*
X79600001Y-51071829D01*
X79600321Y-51078111D01*
X79609805Y-51170959D01*
X79612623Y-51184122D01*
X79663370Y-51337267D01*
X79669432Y-51350266D01*
X79753890Y-51487194D01*
X79762794Y-51498455D01*
X79876544Y-51612205D01*
X79887805Y-51621109D01*
X80024733Y-51705567D01*
X80037732Y-51711629D01*
X80190874Y-51762375D01*
X80204041Y-51765194D01*
X80296890Y-51774680D01*
X80303168Y-51775000D01*
X80683674Y-51775000D01*
X80696549Y-51771549D01*
X80700000Y-51758674D01*
X80700000Y-51758673D01*
X81200000Y-51758673D01*
X81203450Y-51771548D01*
X81216326Y-51774999D01*
X81596829Y-51774999D01*
X81603111Y-51774678D01*
X81695959Y-51765194D01*
X81709122Y-51762376D01*
X81862267Y-51711629D01*
X81875266Y-51705567D01*
X82012194Y-51621109D01*
X82023455Y-51612205D01*
X82137205Y-51498455D01*
X82146109Y-51487194D01*
X82234358Y-51344122D01*
X82235205Y-51344644D01*
X82267286Y-51304667D01*
X82321241Y-51280922D01*
X82380064Y-51284775D01*
X82430460Y-51315355D01*
X82578599Y-51463495D01*
X82583031Y-51466598D01*
X82583033Y-51466600D01*
X82628527Y-51498455D01*
X82772170Y-51599035D01*
X82777070Y-51601320D01*
X82777072Y-51601321D01*
X82800413Y-51612205D01*
X82986337Y-51698903D01*
X82991567Y-51700304D01*
X82991569Y-51700305D01*
X83033619Y-51711572D01*
X83214592Y-51760063D01*
X83450000Y-51780659D01*
X83685408Y-51760063D01*
X83913663Y-51698903D01*
X84127829Y-51599035D01*
X84321401Y-51463495D01*
X84488495Y-51296401D01*
X84624035Y-51102829D01*
X84723903Y-50888663D01*
X84785063Y-50660408D01*
X84800500Y-50483966D01*
X84800500Y-50066034D01*
X84795038Y-50003606D01*
X90145380Y-50003606D01*
X90164262Y-50327812D01*
X90165101Y-50334991D01*
X90221494Y-50654811D01*
X90223156Y-50661824D01*
X90316305Y-50972963D01*
X90318761Y-50979712D01*
X90447402Y-51277934D01*
X90450635Y-51284370D01*
X90613016Y-51565623D01*
X90616982Y-51571654D01*
X90804384Y-51823377D01*
X90812616Y-51830544D01*
X90821798Y-51824647D01*
X92634904Y-50011542D01*
X92641568Y-50000000D01*
X92641567Y-49999999D01*
X93358431Y-49999999D01*
X93365095Y-50011542D01*
X95178200Y-51824647D01*
X95187382Y-51830544D01*
X95195614Y-51823377D01*
X95383017Y-51571654D01*
X95386983Y-51565623D01*
X95549364Y-51284370D01*
X95552597Y-51277934D01*
X95681238Y-50979712D01*
X95683694Y-50972963D01*
X95776843Y-50661824D01*
X95778505Y-50654811D01*
X95834898Y-50334991D01*
X95835737Y-50327812D01*
X95854620Y-50003606D01*
X95854620Y-49996394D01*
X95835737Y-49672187D01*
X95834898Y-49665008D01*
X95778505Y-49345188D01*
X95776843Y-49338175D01*
X95683694Y-49027036D01*
X95681238Y-49020287D01*
X95552597Y-48722065D01*
X95549364Y-48715629D01*
X95386983Y-48434376D01*
X95383017Y-48428345D01*
X95195614Y-48176621D01*
X95187382Y-48169454D01*
X95178200Y-48175351D01*
X93365095Y-49988457D01*
X93358431Y-49999999D01*
X92641567Y-49999999D01*
X92634904Y-49988457D01*
X90821798Y-48175351D01*
X90812616Y-48169455D01*
X90804383Y-48176622D01*
X90616982Y-48428344D01*
X90613016Y-48434376D01*
X90450635Y-48715629D01*
X90447402Y-48722065D01*
X90318761Y-49020287D01*
X90316305Y-49027036D01*
X90223156Y-49338175D01*
X90221494Y-49345188D01*
X90165101Y-49665008D01*
X90164262Y-49672187D01*
X90145380Y-49996394D01*
X90145380Y-50003606D01*
X84795038Y-50003606D01*
X84785063Y-49889592D01*
X84723903Y-49661337D01*
X84624035Y-49447171D01*
X84488495Y-49253599D01*
X84321401Y-49086505D01*
X84316970Y-49083402D01*
X84316966Y-49083399D01*
X84132259Y-48954066D01*
X84132257Y-48954064D01*
X84127830Y-48950965D01*
X84122933Y-48948681D01*
X84122927Y-48948678D01*
X83918572Y-48853386D01*
X83918570Y-48853385D01*
X83913663Y-48851097D01*
X83908438Y-48849697D01*
X83908430Y-48849694D01*
X83690634Y-48791337D01*
X83690630Y-48791336D01*
X83685408Y-48789937D01*
X83680020Y-48789465D01*
X83680017Y-48789465D01*
X83455395Y-48769813D01*
X83450000Y-48769341D01*
X83444605Y-48769813D01*
X83219982Y-48789465D01*
X83219977Y-48789465D01*
X83214592Y-48789937D01*
X83209371Y-48791335D01*
X83209365Y-48791337D01*
X82991569Y-48849694D01*
X82991557Y-48849698D01*
X82986337Y-48851097D01*
X82981432Y-48853383D01*
X82981427Y-48853386D01*
X82777081Y-48948675D01*
X82777077Y-48948677D01*
X82772171Y-48950965D01*
X82767738Y-48954068D01*
X82767731Y-48954073D01*
X82583034Y-49083399D01*
X82583029Y-49083402D01*
X82578599Y-49086505D01*
X82574775Y-49090328D01*
X82574775Y-49090329D01*
X82430460Y-49234644D01*
X82380065Y-49265223D01*
X82321244Y-49269078D01*
X82267290Y-49245336D01*
X82235204Y-49205355D01*
X82234358Y-49205878D01*
X82146109Y-49062805D01*
X82137205Y-49051544D01*
X82023455Y-48937794D01*
X82012194Y-48928890D01*
X81875266Y-48844432D01*
X81862267Y-48838370D01*
X81709125Y-48787624D01*
X81695958Y-48784805D01*
X81603109Y-48775319D01*
X81596832Y-48775000D01*
X81216326Y-48775000D01*
X81203450Y-48778450D01*
X81200000Y-48791326D01*
X81200000Y-51758673D01*
X80700000Y-51758673D01*
X80700000Y-50541326D01*
X80696549Y-50528450D01*
X80683674Y-50525000D01*
X79616327Y-50525000D01*
X79603451Y-50528450D01*
X79600001Y-50541326D01*
X79600001Y-51071829D01*
X77314786Y-51071829D01*
X77314786Y-50008674D01*
X79600000Y-50008674D01*
X79603450Y-50021549D01*
X79616326Y-50025000D01*
X80683674Y-50025000D01*
X80696549Y-50021549D01*
X80700000Y-50008674D01*
X80700000Y-48791327D01*
X80696549Y-48778451D01*
X80683674Y-48775001D01*
X80303171Y-48775001D01*
X80296888Y-48775321D01*
X80204040Y-48784805D01*
X80190877Y-48787623D01*
X80037732Y-48838370D01*
X80024733Y-48844432D01*
X79887805Y-48928890D01*
X79876544Y-48937794D01*
X79762794Y-49051544D01*
X79753890Y-49062805D01*
X79669432Y-49199733D01*
X79663370Y-49212732D01*
X79612624Y-49365874D01*
X79609805Y-49379041D01*
X79600319Y-49471890D01*
X79600000Y-49478168D01*
X79600000Y-50008674D01*
X77314786Y-50008674D01*
X77314786Y-47815978D01*
X91174812Y-47815978D01*
X91181482Y-47827929D01*
X92988457Y-49634904D01*
X93000000Y-49641568D01*
X93011542Y-49634904D01*
X94818516Y-47827929D01*
X94825186Y-47815977D01*
X94817500Y-47804653D01*
X94707558Y-47712401D01*
X94701760Y-47708084D01*
X94430434Y-47529630D01*
X94424185Y-47526023D01*
X94133977Y-47380274D01*
X94127338Y-47377411D01*
X93822161Y-47266335D01*
X93815271Y-47264272D01*
X93499231Y-47189369D01*
X93492165Y-47188123D01*
X93169564Y-47150417D01*
X93162395Y-47150000D01*
X92837605Y-47150000D01*
X92830435Y-47150417D01*
X92507834Y-47188123D01*
X92500768Y-47189369D01*
X92184728Y-47264272D01*
X92177838Y-47266335D01*
X91872661Y-47377411D01*
X91866022Y-47380274D01*
X91575814Y-47526023D01*
X91569565Y-47529630D01*
X91298241Y-47708083D01*
X91292440Y-47712402D01*
X91182498Y-47804653D01*
X91174812Y-47815978D01*
X77314786Y-47815978D01*
X77314786Y-47435214D01*
X73935214Y-47435214D01*
X71243371Y-47435214D01*
X71133977Y-47380274D01*
X71127338Y-47377411D01*
X70822161Y-47266335D01*
X70815271Y-47264272D01*
X70499231Y-47189369D01*
X70492165Y-47188123D01*
X70169564Y-47150417D01*
X70162395Y-47150000D01*
X69837605Y-47150000D01*
X69830435Y-47150417D01*
X69507834Y-47188123D01*
X69500768Y-47189369D01*
X69184728Y-47264272D01*
X69177838Y-47266335D01*
X68872661Y-47377411D01*
X68866022Y-47380274D01*
X68575814Y-47526023D01*
X68569565Y-47529630D01*
X68298241Y-47708083D01*
X68292440Y-47712402D01*
X68182498Y-47804653D01*
X68174812Y-47815978D01*
X66653368Y-47815978D01*
X66744270Y-47683278D01*
X66746899Y-47679590D01*
X66854909Y-47533954D01*
X66859011Y-47528728D01*
X66979239Y-47383944D01*
X66982577Y-47380097D01*
X67104340Y-47245752D01*
X67108437Y-47241450D01*
X67241450Y-47108437D01*
X67245752Y-47104340D01*
X67380097Y-46982577D01*
X67383944Y-46979239D01*
X67528728Y-46859011D01*
X67533954Y-46854909D01*
X67679590Y-46746899D01*
X67683278Y-46744270D01*
X67838363Y-46638034D01*
X67844598Y-46634036D01*
X68000243Y-46540745D01*
X68003497Y-46538864D01*
X68167612Y-46447452D01*
X68174855Y-46443727D01*
X68339098Y-46366046D01*
X68342018Y-46364712D01*
X68406007Y-46336458D01*
X68513497Y-46288996D01*
X68521759Y-46285699D01*
X68693442Y-46224270D01*
X68695457Y-46223572D01*
X68872922Y-46164091D01*
X68882111Y-46161405D01*
X69060037Y-46116837D01*
X69061318Y-46116526D01*
X69242595Y-46073890D01*
X69252729Y-46071950D01*
X69436286Y-46044722D01*
X69437054Y-46044611D01*
X69619217Y-46019200D01*
X69630200Y-46018166D01*
X69826898Y-46008502D01*
X69991674Y-46000884D01*
X69997146Y-46000632D01*
X70002872Y-46000500D01*
X92997128Y-46000500D01*
X93002854Y-46000632D01*
G37*
%TD.AperFunction*%
%TD*%
M02*
