M48
; DRILL file {KiCad (7.0.0)} date Tue May 30 16:09:43 2023
; FORMAT={-:-/ absolute / inch / decimal}
; #@! TF.CreationDate,2023-05-30T16:09:43+02:00
; #@! TF.GenerationSoftware,Kicad,Pcbnew,(7.0.0)
; #@! TF.FileFunction,Plated,1,2,PTH
FMAT,2
INCH
; #@! TA.AperFunction,Plated,PTH,ViaDrill
T1C0.0157
; #@! TA.AperFunction,Plated,PTH,ViaDrill
T2C0.0236
; #@! TA.AperFunction,Plated,PTH,ComponentDrill
T3C0.0394
; #@! TA.AperFunction,Plated,PTH,ComponentDrill
T4C0.1063
%
G90
G05
T1
X2.8819Y-3.3071
X3.0157Y-3.0217
X3.1102Y-3.1378
X3.1102Y-3.2756
X3.1496Y-2.4803
X3.1496Y-2.6772
X3.1772Y-2.2692
X3.2874Y-3.1378
X3.2874Y-3.2756
X3.3858Y-2.4803
X3.3858Y-2.6772
T2
X2.9075Y-2.9075
X2.9567Y-3.122
T3
X2.7059Y-2.16
X2.7059Y-2.26
X2.7059Y-2.36
X2.7059Y-2.46
X2.7059Y-2.56
X2.7059Y-2.66
X2.7059Y-2.76
X2.7059Y-2.86
X2.7059Y-2.96
X2.7059Y-3.06
X2.7059Y-3.16
X2.7059Y-3.26
X2.7059Y-3.36
X2.7059Y-3.46
X2.7059Y-3.56
X2.7059Y-3.66
X2.7059Y-3.76
X2.7059Y-3.86
X2.7059Y-3.96
X2.7059Y-4.06
X2.8059Y-2.16
X2.8059Y-2.26
X2.8059Y-2.36
X2.8059Y-2.46
X2.8059Y-2.56
X2.8059Y-2.66
X2.8059Y-2.76
X2.8059Y-2.86
X2.8059Y-2.96
X2.8059Y-3.06
X2.8059Y-3.16
X2.8059Y-3.26
X2.8059Y-3.36
X2.8059Y-3.46
X2.8059Y-3.56
X2.8059Y-3.66
X2.8059Y-3.76
X2.8059Y-3.86
X2.8059Y-3.96
X2.8059Y-4.06
X3.1616Y-2.8701
X3.1616Y-2.9701
X3.187Y-1.9793
X3.2616Y-2.8701
X3.2616Y-2.9701
X3.2854Y-1.9793
X3.3616Y-2.8701
X3.3616Y-2.9701
X3.4616Y-2.8701
X3.4616Y-2.9701
T4
X2.7559Y-1.9685
X2.7559Y-4.252
X3.6614Y-1.9685
X3.6614Y-4.252
T0
M30
